<svg width="13" height="13" viewBox="0 0 13 13" fill="none" xmlns="http://www.w3.org/2000/svg">
<path d="M11.4997 13H2.04519C1.07019 13 0.27246 12.2328 0.27246 11.2951V3.05464C0.27246 2.11694 1.07019 1.34973 2.04519 1.34973H3.22701V0.568306C3.22701 0.255738 3.49292 0 3.81792 0C4.14292 0 4.40882 0.255738 4.40882 0.568306V1.34973H9.1361V0.568306C9.1361 0.255738 9.40201 0 9.72701 0C10.052 0 10.3179 0.255738 10.3179 0.568306V1.34973H11.4997C12.4747 1.34973 13.2725 2.11694 13.2725 3.05464V11.2951C13.2725 12.247 12.4747 13 11.4997 13ZM2.04519 11.8634H11.4997C11.8247 11.8634 12.0906 11.6077 12.0906 11.2951V6.60656H1.45428V11.2951C1.45428 11.6219 1.72019 11.8634 2.04519 11.8634ZM11.4997 2.48634H10.3179V3.12568C10.3179 3.43825 10.052 3.69399 9.72701 3.69399C9.40201 3.69399 9.1361 3.43825 9.1361 3.12568V2.48634H4.40882V3.12568C4.40882 3.43825 4.14292 3.69399 3.81792 3.69399C3.49292 3.69399 3.22701 3.43825 3.22701 3.12568V2.48634H2.04519C1.72019 2.48634 1.45428 2.74208 1.45428 3.05464V5.46995H12.0906V3.05464C12.0906 2.74208 11.8247 2.48634 11.4997 2.48634Z" fill="white"/>
</svg>
