<?xml version="1.0" encoding="utf-8"?>
<!-- Generator: Adobe Illustrator 24.3.0, SVG Export Plug-In . SVG Version: 6.00 Build 0)  -->
<svg version="1.1" id="Capa_1" xmlns="http://www.w3.org/2000/svg" xmlns:xlink="http://www.w3.org/1999/xlink" x="0px" y="0px"
	 viewBox="0 0 35 35" style="enable-background:new 0 0 35 35;" xml:space="preserve">
<style type="text/css">
	.st0{fill-rule:evenodd;clip-rule:evenodd;fill:#414042;}
</style>
<g transform="translate(-20 -15)">
	<g>
		<path id="rs00d00epa" class="st0" d="M40,24v1h1.4c0.6,0,0.8,0.2,1,0.8l0.2,1.2H33v-1h2v-1h-5v1h2v1.4l-1.1,3.7
			C30.6,31,30.3,31,30,31c-2.8,0-5,2.2-5,5s2.2,5,5,5s5-2.2,5-5h1.1c0.2,0.6,0.8,1,1.4,1c0.8,0,1.5-0.7,1.5-1.5c0-0.4-0.2-0.8-0.4-1
			l4.3-6l0.6,2.8c-2,0.6-3.5,2.5-3.5,4.7c0,2.8,2.2,5,5,5s5-2.2,5-5c0-2.8-2.2-5-5-5c-0.2,0-0.3,0-0.5,0l-1.1-5.5
			c-0.2-1-0.9-1.6-1.9-1.6H40z M33.1,28H42l-4.3,6c-0.1,0-0.1,0-0.2,0c-0.1,0-0.2,0-0.4,0L33.1,28z M31.9,31.4l0.7-2.4l3.7,5.6
			c-0.1,0.1-0.2,0.2-0.2,0.4h-1.2v0C34.6,33.3,33.4,32,31.9,31.4L31.9,31.4z M46,36c0-0.4-0.3-0.8-0.7-0.9l-0.6-3c0.1,0,0.2,0,0.3,0
			c2.2,0,4,1.8,4,4c0,2.2-1.8,4-4,4c-2.2,0-4-1.8-4-4c0-1.7,1.1-3.2,2.7-3.8l0.6,3C44.1,35.4,44,35.7,44,36c0,0.5,0.5,1,1,1
			S46,36.5,46,36L46,36z M26,36c0-2.2,1.8-4,4-4c0.2,0,0.4,0,0.6,0.1l-0.9,3C29.3,35.1,29,35.5,29,36c0,0.5,0.5,1,1,1s1-0.5,1-1h3
			c0,2.2-1.8,4-4,4S26,38.2,26,36z M31.6,32.3c1.1,0.5,2,1.5,2.3,2.7h-3C30.8,35,31.6,32.3,31.6,32.3z"/>
	</g>
</g>
</svg>
