<svg width="26" height="26" viewBox="0 0 26 26" fill="none" xmlns="http://www.w3.org/2000/svg">
<g clip-path="url(#clip0)">
<path d="M19.0926 3.9172H18.609V2.1648C18.609 1.5824 18.0266 1 17.3454 1H7.14304C6.56064 1 5.97824 1.5824 5.97824 2.1648V3.912H4.52224C4.32984 3.912 4.13224 4.0108 4.03864 4.2032C3.94504 4.3956 4.03864 4.5932 4.13744 4.6868L6.37344 7.5052L7.92824 17.0264L6.27464 23.7292C6.17584 24.1192 6.27464 24.504 6.46704 24.8004C6.65944 25.0916 7.04944 25.284 7.43944 25.284H17.1582C17.5482 25.284 17.933 25.0916 18.1306 24.8004C18.323 24.5092 18.4218 24.1192 18.323 23.7292L16.6694 17.0264L18.5154 4.8792H19.0978C20.4602 4.8792 21.5262 5.9504 21.5262 7.3076V11.6912H22.4986V7.318C22.4934 5.472 20.9386 3.9172 19.0926 3.9172ZM6.94544 2.1648C6.94544 2.066 7.04424 1.9724 7.13784 1.9724H17.3402C17.5326 1.9724 17.6314 2.0712 17.6314 2.1648V3.912H6.94544V2.1648ZM17.3454 24.2232C17.3454 24.2232 17.2466 24.322 17.153 24.322H7.43424C7.33544 24.322 7.24184 24.2232 7.24184 24.2232C7.24184 24.2232 7.14304 24.1244 7.24184 24.0308L8.79664 17.5204H15.7906L17.3454 24.0308C17.439 24.1296 17.3454 24.2232 17.3454 24.2232ZM15.7906 16.548H12.7746V14.312L14.6206 12.5648L13.9394 11.8836L12.3846 13.4384L10.8298 11.8836L10.1486 12.5648L11.8958 14.312V16.548H8.88504L7.33544 7.2192C7.33544 7.1204 7.23664 7.0268 7.23664 7.0268L5.48944 4.8896H6.36304H17.439L15.7906 16.548ZM12.291 18.4928C10.9286 18.4928 9.86264 19.564 9.86264 20.9212C9.86264 22.2836 10.9338 23.3496 12.291 23.3496C13.6482 23.3496 14.7194 22.2784 14.7194 20.9212C14.7194 19.5588 13.6534 18.4928 12.291 18.4928ZM12.291 22.3772C11.5162 22.3772 10.835 21.696 10.835 20.9212C10.835 20.1464 11.5162 19.4652 12.291 19.4652C13.0658 19.4652 13.747 20.1464 13.747 20.9212C13.747 21.696 13.0658 22.3772 12.291 22.3772Z" fill="#414042"/>
</g>
<defs>
<clipPath id="clip0">
<rect width="26" height="26" fill="white"/>
</clipPath>
</defs>
</svg>
