<?xml version="1.0" encoding="utf-8"?>
<!-- Generator: Adobe Illustrator 24.3.0, SVG Export Plug-In . SVG Version: 6.00 Build 0)  -->
<svg version="1.1" id="Capa_1" xmlns="http://www.w3.org/2000/svg" xmlns:xlink="http://www.w3.org/1999/xlink" x="0px" y="0px"
	 viewBox="0 0 35 35" style="enable-background:new 0 0 35 35;" xml:space="preserve">
<style type="text/css">
	.st0{fill-rule:evenodd;clip-rule:evenodd;fill:#414042;}
</style>
<g id="Symbols">
	<g id="Group-29" transform="translate(-21.000000, -12.000000)">
		<g id="Clip-197">
			<path id="path-1_1_" class="st0" d="M35.5,19.6c0,0.2,0,0.4,0.1,0.6l0,0c-3.8,0.6-6.6,2.2-6.6,4.3l0,0V25h-1c-1.1,0-2,0.9-2,2
				l0,0c0,1.1,0.9,2,2,2l0,0h1v6.5c0,2.5,2,4.5,4.5,4.5l0,0h10c2.5,0,4.5-2,4.5-4.5l0,0V29h1c1.1,0,2-0.9,2-2l0,0c0-1.1-0.9-2-2-2
				l0,0h-1v-0.5c0-2-2.7-3.7-6.6-4.3l0,0c0-0.2,0.1-0.4,0.1-0.6l0,0c0-1.5-1.3-2.6-3-2.6l0,0C36.9,17,35.5,18.2,35.5,19.6L35.5,19.6
				z M36.5,19.6c0-0.9,0.9-1.6,2-1.6l0,0c1.1,0,2,0.7,2,1.6l0,0c0,0.1,0,0.3-0.1,0.4l0,0C39.8,20,39.2,20,38.5,20l0,0
				c-0.7,0-1.3,0-1.9,0.1l0,0C36.5,19.9,36.5,19.8,36.5,19.6L36.5,19.6z M38.5,21c4.5,0,7.8,1.5,8.4,3l0,0H30.1
				C30.7,22.5,34,21,38.5,21L38.5,21z M30,35.5V25h17v10.5c0,1.9-1.6,3.5-3.5,3.5l0,0h-10C31.6,39,30,37.4,30,35.5L30,35.5z M48,26
				h1c0.6,0,1,0.4,1,1l0,0c0,0.6-0.4,1-1,1l0,0h-1V26z M27,27c0-0.6,0.4-1,1-1l0,0h1v2h-1C27.4,28,27,27.6,27,27L27,27z M29,42h19
				v-1H29V42z"/>
		</g>
	</g>
</g>
</svg>
