<svg width="18" height="14" viewBox="0 0 18 14" fill="none" xmlns="http://www.w3.org/2000/svg">
<path d="M15.1675 13.0136C14.763 13.4046 14.1563 13.6001 13.5495 13.6001C12.9428 13.6001 12.3361 13.4046 11.9316 13.0136C11.5271 12.6226 11.3248 12.0362 11.3248 11.4497H6.77426C6.77426 12.0362 6.57201 12.5249 6.16751 13.0136C5.76302 13.5023 5.15628 13.6001 4.54954 13.6001C3.94279 13.6001 3.43718 13.4046 2.93156 13.0136C2.42594 12.6226 2.32482 12.0362 2.32482 11.4497H0.100098V0.600098H11.3248V3.82565H15.2686L18.1001 6.56252V11.4497H15.8754C15.8754 12.0362 15.572 12.5249 15.1675 13.0136ZM10.2125 10.3745V1.67529H1.21246V10.3745H2.62819C2.83043 10.0813 3.1338 9.78806 3.43718 9.59257C3.74055 9.39708 4.14504 9.29935 4.54954 9.29935C4.95403 9.29935 5.35852 9.39708 5.6619 9.59257C5.96527 9.78806 6.26864 10.0813 6.47088 10.3745H10.2125ZM4.54954 10.3745C4.24616 10.3745 4.04392 10.4723 3.84167 10.6678C3.63942 10.8633 3.5383 11.1565 3.5383 11.4497C3.5383 11.743 3.63942 11.9384 3.84167 12.2317C4.04392 12.4272 4.34729 12.5249 4.54954 12.5249C4.85291 12.5249 5.15628 12.4272 5.35852 12.2317C5.56077 12.0362 5.6619 11.743 5.6619 11.4497C5.6619 11.1565 5.56077 10.8633 5.35852 10.6678C5.15628 10.4723 4.95403 10.3745 4.54954 10.3745ZM12.4372 9.59257C12.7405 9.39708 13.145 9.29935 13.5495 9.29935C13.954 9.29935 14.3585 9.39708 14.6619 9.59257C14.9653 9.78806 15.2686 10.0813 15.4709 10.3745H16.8866V8.22415H15.1675C14.9653 8.22415 14.8641 8.12643 14.763 8.02868C14.6619 7.93094 14.5608 7.83317 14.5608 7.63768C14.5608 7.53994 14.6619 7.34445 14.763 7.24671C14.8641 7.14896 14.9653 7.05124 15.1675 7.05124H16.8866V6.95349L14.763 4.90085H11.3248V10.3745H11.6282C11.8304 10.0813 12.1338 9.78806 12.4372 9.59257ZM12.8417 10.6678C12.6394 10.8633 12.5383 11.1565 12.5383 11.4497C12.5383 11.743 12.6394 11.9384 12.8417 12.2317C13.0439 12.4272 13.3473 12.5249 13.5495 12.5249C13.8529 12.5249 14.0552 12.4272 14.2574 12.2317C14.4596 12.0362 14.5608 11.743 14.5608 11.4497C14.5608 11.1565 14.4596 10.8633 14.2574 10.6678C14.0552 10.4723 13.7518 10.3745 13.5495 10.3745C13.3473 10.3745 13.0439 10.4723 12.8417 10.6678Z" fill="#0071CE"/>
</svg>
