<svg width="26" height="26" viewBox="0 0 26 26" fill="none" xmlns="http://www.w3.org/2000/svg">
<g clip-path="url(#clip0)">
<path d="M8.97236 11.3159C7.94393 11.3159 7.08154 12.1574 7.08154 13.1724C7.08154 14.1822 7.93857 15.0289 8.97236 15.0289C10.0062 15.0289 10.8632 14.1875 10.8632 13.1724C10.8632 12.1574 10.0008 11.3159 8.97236 11.3159ZM8.97236 14.1822C8.4153 14.1822 7.94393 13.7194 7.94393 13.1724C7.94393 12.6255 8.4153 12.1627 8.97236 12.1627C9.52943 12.1627 10.0008 12.6255 10.0008 13.1724C10.0008 13.7194 9.52943 14.1822 8.97236 14.1822Z" fill="#414042"/>
<path d="M25.9736 16.3277L25.7593 14.3871C25.6736 13.6297 24.4309 7.98133 23.7828 7.13459L22.84 5.69882C22.7972 5.65674 22.7543 5.61467 22.7115 5.5726V5.4043C22.7115 5.32015 22.6686 5.236 22.6258 5.15186C22.5829 5.10978 21.8973 4.14208 20.7778 4.01586C20.135 3.93171 19.4923 4.18416 18.8441 4.73112C18.7584 4.81527 18.7156 4.94149 18.7156 5.02564V5.44637C18.6299 5.48845 18.587 5.53052 18.5442 5.5726C18.5013 5.61467 18.3299 5.65674 17.9871 5.61467H17.9443H8.07235H8.0295C7.68668 5.65674 7.51528 5.61467 7.47243 5.5726C7.42958 5.53052 7.38672 5.48845 7.30102 5.44637V5.02564C7.30102 4.89941 7.25817 4.77319 7.17247 4.73112C6.57255 4.18416 5.92977 3.93171 5.23879 4.01586C4.12466 4.14208 3.39082 5.10978 3.39082 5.15186C3.34797 5.236 3.30512 5.32015 3.30512 5.4043V5.5726C3.26227 5.61467 3.21942 5.65674 3.17657 5.69882L2.23383 7.13985C1.59106 7.98133 0.343012 13.6298 0.257309 14.3923L0.043052 16.333C-0.128354 18.1054 0.214458 19.4097 1.02864 20.2091C1.58571 20.756 2.22848 20.8822 2.40524 20.9243C4.21036 21.3451 5.4959 19.9145 5.92442 19.0257L7.30102 15.6546C7.77239 15.9911 8.37231 16.1594 8.97758 16.1594C9.66321 16.1594 10.3542 15.907 10.9113 15.4863H15.1643C15.7213 15.907 16.3641 16.1594 17.0979 16.1594C17.6979 16.1594 18.2549 15.9911 18.7745 15.6546L20.1511 19.0257C20.5368 19.741 21.5277 20.9664 22.9847 20.9664C23.1989 20.9664 23.4132 20.9243 23.6274 20.8822C23.7988 20.8822 24.3988 20.756 25.004 20.167C25.7593 19.3676 26.1021 18.1001 25.9736 16.3277ZM19.578 5.24126C19.9636 4.94675 20.3064 4.82052 20.6493 4.8626C21.0349 4.90467 21.3777 5.11504 21.592 5.32541C21.0778 5.28334 20.3921 5.24126 19.5298 5.32541V5.24126H19.578ZM9.40074 6.46667H16.6159V9.75369C16.6159 9.96406 16.4016 10.1744 16.1873 10.1744H9.82926C9.615 10.1744 9.40074 9.96406 9.40074 9.75369V6.46667ZM5.36735 4.82052C5.71016 4.77845 6.09582 4.90467 6.43864 5.19919V5.28334C5.58161 5.19919 4.89063 5.24126 4.37641 5.28334C4.63352 5.11504 4.93883 4.8626 5.36735 4.82052ZM23.4828 20.0828C23.44 20.0828 23.44 20.0828 23.3971 20.0828C21.8062 20.5036 20.9064 18.7312 20.8635 18.6891L19.4012 15.1076C19.3584 15.0234 19.3155 14.9393 19.1869 14.8972L18.887 14.7289C18.8013 14.6869 18.7584 14.6869 18.6727 14.6869C18.587 14.6869 18.4585 14.7289 18.3728 14.771C17.9871 15.1076 17.4729 15.2759 16.9533 15.2759C16.3962 15.2759 15.882 15.0655 15.491 14.7289C15.4053 14.6448 15.3196 14.6027 15.191 14.6027H10.7238C10.6381 14.6027 10.5095 14.6448 10.4238 14.7289C10.0382 15.0655 9.52394 15.2759 8.96152 15.2759C8.4473 15.2759 7.93308 15.1076 7.54206 14.771C7.41351 14.6448 7.19925 14.6448 7.07069 14.7289L6.77073 14.8972C6.68503 14.9393 6.59933 15.0234 6.55648 15.1076L5.09417 18.6891C5.05132 18.7733 4.15144 20.5036 2.56058 20.0828H2.51772C2.43202 20.0828 0.584052 19.8304 0.884012 16.4171L1.05542 14.4765C1.14112 13.3826 2.47487 8.15488 2.86054 7.64474C2.86054 7.64474 2.86054 7.64474 2.90339 7.60266L3.76042 6.29837C4.10323 6.21422 5.22272 6.00385 6.85108 6.21422C7.02249 6.38252 7.40815 6.55081 8.05092 6.46667H8.47944V9.75369C8.47944 10.4269 9.07936 11.0159 9.76498 11.0159H16.1177C16.8462 11.0159 17.4033 10.4269 17.4033 9.75369V6.46667H17.8318C18.4745 6.55081 18.8174 6.38252 19.0316 6.21422C20.6653 6.00385 21.7366 6.21422 22.1223 6.29837L22.9793 7.60266C22.9793 7.60266 22.9793 7.64474 23.0222 7.64474C23.4078 8.14962 24.7416 13.3773 24.8273 14.4765L25.0415 16.4171C25.4165 19.8304 23.5685 20.0828 23.4828 20.0828Z" fill="#414042"/>
<path d="M17.0441 11.3159C16.0157 11.3159 15.1533 12.1574 15.1533 13.1724C15.1533 14.1822 16.0103 15.0289 17.0441 15.0289C18.0726 15.0289 18.935 14.1875 18.935 13.1724C18.935 12.1574 18.0726 11.3159 17.0441 11.3159ZM17.0441 14.1822C16.4871 14.1822 16.0157 13.7194 16.0157 13.1724C16.0157 12.6255 16.4871 12.1627 17.0441 12.1627C17.6012 12.1627 18.0726 12.6255 18.0726 13.1724C18.0726 13.7194 17.6012 14.1822 17.0441 14.1822Z" fill="#414042"/>
<path d="M19.021 10.8007C19.6097 10.8007 20.0869 10.3321 20.0869 9.75411C20.0869 9.17609 19.6097 8.70752 19.021 8.70752C18.4323 8.70752 17.9551 9.17609 17.9551 9.75411C17.9551 10.3321 18.4323 10.8007 19.021 10.8007Z" fill="#414042"/>
<path d="M22.7119 10.8007C23.3006 10.8007 23.7779 10.3321 23.7779 9.75411C23.7779 9.17609 23.3006 8.70752 22.7119 8.70752C22.1232 8.70752 21.646 9.17609 21.646 9.75411C21.646 10.3321 22.1232 10.8007 22.7119 10.8007Z" fill="#414042"/>
<path d="M20.7778 12.6986C21.3665 12.6986 21.8438 12.2301 21.8438 11.6521C21.8438 11.074 21.3665 10.6055 20.7778 10.6055C20.1891 10.6055 19.7119 11.074 19.7119 11.6521C19.7119 12.2301 20.1891 12.6986 20.7778 12.6986Z" fill="#414042"/>
<path d="M20.7778 9.02775C21.3665 9.02775 21.8438 8.55917 21.8438 7.98116C21.8438 7.40314 21.3665 6.93457 20.7778 6.93457C20.1891 6.93457 19.7119 7.40314 19.7119 7.98116C19.7119 8.55917 20.1891 9.02775 20.7778 9.02775Z" fill="#414042"/>
<path d="M4.37647 8.74398L4.84784 9.16472C4.93354 9.24886 5.01924 9.29094 5.1478 9.29094C5.27635 9.29094 5.36205 9.24886 5.44776 9.16472L5.91912 8.7019C6.00483 8.61776 6.04768 8.53361 6.04768 8.44946L6.13338 7.81835C6.13338 7.69213 6.09053 7.56591 6.00483 7.48176C5.40491 6.89273 4.67643 7.14517 4.32826 7.48176C4.24256 7.56591 4.19971 7.69213 4.19971 7.81835L4.28541 8.44946C4.24792 8.57568 4.29077 8.65983 4.37647 8.74398Z" fill="#414042"/>
<path d="M5.88142 10.8897L5.41006 10.4689C5.23865 10.3006 4.98154 10.3427 4.81014 10.4689L4.33877 10.9317C4.25307 11.0159 4.21021 11.1 4.21021 11.1842L4.12451 11.8153C4.12451 11.9415 4.16736 12.0677 4.25307 12.1519C4.51017 12.4043 4.81014 12.4885 5.06724 12.4885C5.41006 12.4885 5.75287 12.3202 5.92427 12.1519C6.00998 12.0677 6.05283 11.9415 6.05283 11.8153L5.96712 11.1842C6.00998 11.0632 5.96712 10.9317 5.88142 10.8897Z" fill="#414042"/>
<path d="M7.20988 10.7633C7.33844 10.7633 7.42414 10.7213 7.50984 10.6371C8.10976 10.0481 7.85265 9.33282 7.50984 8.99097C7.42414 8.90682 7.29559 8.86475 7.16703 8.86475L6.52426 8.94889C6.43856 8.94889 6.31 8.99097 6.26715 9.07512L5.83864 9.53793C5.66723 9.70622 5.71008 9.95867 5.83864 10.127L6.31 10.5898C6.39571 10.6739 6.48141 10.716 6.56711 10.716L7.20988 10.8001C7.16703 10.7633 7.20988 10.7633 7.20988 10.7633Z" fill="#414042"/>
<path d="M4.5046 9.5433L4.07608 9.08049C3.99038 8.99634 3.90468 8.95427 3.81897 8.95427L3.13335 8.87012C3.0048 8.87012 2.87624 8.91219 2.79054 8.99634C2.44772 9.33293 2.19062 10.0482 2.79054 10.6425C2.87624 10.7266 2.96194 10.7687 3.0905 10.7687H3.13335L3.73327 10.6846C3.81897 10.6846 3.90468 10.6425 3.99038 10.5583L4.46175 10.0955C4.63315 9.96404 4.63315 9.7116 4.5046 9.5433Z" fill="#414042"/>
<path d="M14.5107 13.1665H12.7913C12.5771 13.1665 12.3628 13.3769 12.3628 13.5872C12.3628 13.7976 12.5771 14.008 12.7913 14.008H14.5107C14.725 14.008 14.9392 13.7976 14.9392 13.5872C14.9392 13.3769 14.7678 13.1665 14.5107 13.1665Z" fill="#414042"/>
<path d="M11.6772 13.041C11.3772 13.041 11.1201 13.2935 11.1201 13.588C11.1201 13.8825 11.3772 14.1349 11.6772 14.1349C11.9771 14.1349 12.2343 13.8825 12.2343 13.588C12.1914 13.2935 11.9771 13.041 11.6772 13.041Z" fill="#414042"/>
</g>
<defs>
<clipPath id="clip0">
<rect width="26" height="26" fill="white"/>
</clipPath>
</defs>
</svg>
