<svg width="26" height="26" viewBox="0 0 26 26" fill="none" xmlns="http://www.w3.org/2000/svg">
<g clip-path="url(#clip0)">
<path fill-rule="evenodd" clip-rule="evenodd" d="M7.494 0C7.494 1.71524 8.8408 3.12109 10.484 3.12109C11.6904 3.12109 12.7096 4.02756 12.928 5.22171C9.6104 5.50939 7 8.42422 7 11.9578V19.2422C7 22.9658 9.9068 26 13.474 26C17.0412 26 19.948 22.9658 19.948 19.2422V11.9578C19.948 8.40251 17.296 5.46597 13.942 5.22171C13.7028 3.44134 12.2468 2.07891 10.484 2.07891C9.392 2.07891 8.4924 1.1453 8.4924 0H7.494V0ZM7.9932 19.2422V11.9578C7.9932 8.80418 10.4528 6.23674 13.474 6.23674C16.4952 6.23674 18.9548 8.80418 18.9548 11.9578V19.2422C18.9548 22.3958 16.4952 24.9633 13.474 24.9633C10.4528 24.9578 7.9932 22.3904 7.9932 19.2422ZM11.9816 10.9211V13C11.9816 13.863 12.6472 14.5633 13.474 14.5633C14.3008 14.5633 14.9664 13.863 14.9664 13V10.9211C14.9664 10.058 14.3008 9.36326 13.474 9.36326C12.6472 9.35783 11.9816 10.058 11.9816 10.9211ZM12.9748 13V10.9211C12.9748 10.6334 13.1932 10.4 13.474 10.4C13.7548 10.4 13.9732 10.628 13.9732 10.9211V13C13.9732 13.2931 13.7548 13.5211 13.474 13.5211C13.1932 13.5211 12.9748 13.2931 12.9748 13Z" fill="#414042"/>
</g>
<defs>
<clipPath id="clip0">
<rect width="26" height="26" fill="white"/>
</clipPath>
</defs>
</svg>
