<?xml version="1.0" encoding="utf-8"?>
<!-- Generator: Adobe Illustrator 24.3.0, SVG Export Plug-In . SVG Version: 6.00 Build 0)  -->
<svg version="1.1" id="Capa_1" xmlns="http://www.w3.org/2000/svg" xmlns:xlink="http://www.w3.org/1999/xlink" x="0px" y="0px"
	 viewBox="0 0 35 35" style="enable-background:new 0 0 35 35;" xml:space="preserve">
<style type="text/css">
	.st0{fill-rule:evenodd;clip-rule:evenodd;fill:#414042;}
</style>
<g transform="translate(-23 -13)">
	<g>
		<path id="yzb151av5a" class="st0" d="M33,20.5c-1,0-1.8,0.8-1.8,1.7v9.9l-1.7,6.1c0,0,0,0.1,0,0.1v1.1c0,0.6,0.5,1.1,1.1,1.1h19.8
			c0.6,0,1.1-0.5,1.1-1.1v-1.1c0,0,0-0.1,0-0.1l-1.7-6.1v-9.9c0-1-0.8-1.7-1.8-1.7L33,20.5L33,20.5z M32.1,22.2
			c0-0.5,0.4-0.9,0.9-0.9h15c0.5,0,0.9,0.4,0.9,0.9v9.6H32.1C32.1,31.8,32.1,22.2,32.1,22.2z M32,32.7h17l1.5,5.2h-20
			C30.5,37.9,32,32.7,32,32.7z M30.4,39.4v-0.7h20.2v0.7c0,0.1-0.1,0.2-0.2,0.2H30.6C30.5,39.6,30.4,39.5,30.4,39.4L30.4,39.4z
			 M33.5,22.2c-0.2,0-0.4,0.2-0.4,0.4v7.8c0,0.2,0.2,0.4,0.4,0.4h14.1c0.2,0,0.4-0.2,0.4-0.4v-7.8c0-0.2-0.2-0.4-0.4-0.4L33.5,22.2
			L33.5,22.2z M33.9,30.1h13.2v-7H33.9L33.9,30.1L33.9,30.1z M37.9,34.4c-0.2,0-0.4,0.1-0.4,0.3L37,36.5c0,0.1,0,0.3,0.1,0.4
			c0.1,0.1,0.2,0.2,0.3,0.2h6.1c0.1,0,0.3-0.1,0.3-0.2c0.1-0.1,0.1-0.2,0.1-0.4l-0.4-1.7c0-0.2-0.2-0.3-0.4-0.3
			C43.2,34.4,37.9,34.4,37.9,34.4z M38.2,35.3h4.6l0.2,0.9h-5L38.2,35.3L38.2,35.3z"/>
	</g>
</g>
</svg>
