<svg width="26" height="26" viewBox="0 0 26 26" fill="none" xmlns="http://www.w3.org/2000/svg">
<g clip-path="url(#clip0)">
<path fill-rule="evenodd" clip-rule="evenodd" d="M6.2116 1.0052C5.5408 1.0052 5 1.5512 5 2.222V24.0724C5 24.7432 5.546 25.284 6.2116 25.284H20.2932C20.964 25.284 21.5048 24.738 21.5048 24.0724V2.2168C21.5048 1.546 20.964 1 20.2932 1H6.2116V1.0052ZM5.9672 2.2168C5.9672 2.0816 6.0764 1.9724 6.2116 1.9724H20.2932C20.4284 1.9724 20.5376 2.0816 20.5376 2.2168V9.7412H5.9672V2.2168ZM5.9776 21.1552V10.7136H20.5428V21.1552H20.5324C20.5324 21.2904 20.418 21.3996 20.288 21.3996H6.222C6.0868 21.3944 5.9776 21.2904 5.9776 21.1552ZM20.2828 22.3668C20.3712 22.3668 20.4492 22.3356 20.5272 22.32V24.0672C20.5324 24.2024 20.4284 24.3116 20.2932 24.3116H6.2116C6.0764 24.3116 5.9672 24.2076 5.9672 24.0672V22.32C6.0452 22.3356 6.1232 22.3668 6.2116 22.3668H20.2828ZM6.9396 7.8016H7.912V3.9172H6.9396V7.8016ZM6.9396 16.5428H7.912V12.6584H6.9396V16.5428Z" fill="#414042"/>
</g>
<defs>
<clipPath id="clip0">
<rect width="26" height="26" fill="white"/>
</clipPath>
</defs>
</svg>
