<?xml version="1.0" encoding="utf-8"?>
<!-- Generator: Adobe Illustrator 24.3.0, SVG Export Plug-In . SVG Version: 6.00 Build 0)  -->
<svg version="1.1" id="Capa_1" xmlns="http://www.w3.org/2000/svg" xmlns:xlink="http://www.w3.org/1999/xlink" x="0px" y="0px"
	 viewBox="0 0 35 35" style="enable-background:new 0 0 35 35;" xml:space="preserve">
<style type="text/css">
	.st0{fill:#414042;}
</style>
<g>
	<path class="st0" d="M28.7,11.4h-1v-0.1c0-0.3,0-0.6-0.3-0.9c-0.2-0.2-0.6-0.3-1.1-0.3h0V7.9c0-0.2-0.2-0.4-0.4-0.4
		c-0.2,0-0.4,0.2-0.4,0.4v2.3l-1.5,0V7.9c0-0.2-0.2-0.4-0.4-0.4s-0.4,0.2-0.4,0.4v2.2l-11.4-0.1V9.2c0-0.2-0.2-0.4-0.4-0.4h-0.5V8.5
		c0-0.2-0.2-0.4-0.4-0.4c-0.2,0-0.4,0.2-0.4,0.4v0.3H9.6C9.3,8.8,9.2,9,9.2,9.2V10L8,10c-0.6,0-1.1,0.5-1.1,1.1l0.3,6.6
		c0,0.4,0.4,0.8,0.8,0.8h1.8v2.3H6.4c-0.2,0-0.3,0.1-0.4,0.3l-0.5,2.2c0,0.1,0,0.1,0,0.2v3.1c0,0.6,0.5,1,1,1h20
		c0.6,0,1.2-0.5,1.2-1.1v-9.5h1c0.2,0,0.8,0,0.8-2.7C29.5,11.4,28.9,11.4,28.7,11.4L28.7,11.4z M10,9.6h1v0.5L10,10
		C10,10,10,9.6,10,9.6z M10.6,18.4h1c0.3,0,0.6-0.2,0.7-0.5l1-2.2c0.1-0.2,0.3-0.4,0.6-0.4l4.8,0c0.5,0,0.8,0.4,0.8,0.8v4.2
		c0,0.1-0.1,0.2-0.2,0.2h-8.8L10.6,18.4L10.6,18.4L10.6,18.4z M6.7,21.5h3.1v0.6c0,0.2,0.2,0.4,0.4,0.4s0.4-0.2,0.4-0.4v-0.6h8.8
		c0.6,0,1-0.4,1-1v-4.2c0-0.9-0.7-1.6-1.6-1.6l-4.8,0c-0.6,0-1.1,0.3-1.4,0.9l-1,2.2l-3.6,0l-0.3-6.5c0-0.2,0.1-0.3,0.3-0.3l1.4,0
		c0,0,0.1,0,0.1,0h1.8L23.6,11l2.3,0l0.4,0c0.5,0,0.6,0,0.6,0c0,0,0,0.2,0,0.3V23H6.4L6.7,21.5L6.7,21.5z M26.5,26.7h-20
		c-0.1,0-0.2-0.1-0.2-0.2l0-2.7h20.6v2.6C26.9,26.5,26.7,26.7,26.5,26.7L26.5,26.7z M27.7,12.2h0.8c0.1,0.2,0.2,0.9,0.2,1.9
		c0,1-0.1,1.7-0.2,1.9h-0.8V12.2L27.7,12.2z"/>
	<path class="st0" d="M23.6,16.2c1.4,0,2.4-1.1,2.4-2.4s-1.1-2.4-2.4-2.4c-1.4,0-2.4,1.1-2.4,2.4S22.2,16.2,23.6,16.2z M23.6,12.2
		c0.9,0,1.6,0.7,1.6,1.6c0,0.9-0.7,1.6-1.6,1.6c-0.9,0-1.6-0.7-1.6-1.6C21.9,13,22.7,12.2,23.6,12.2L23.6,12.2z M23.6,22
		c1.4,0,2.4-1.1,2.4-2.4s-1.1-2.4-2.4-2.4c-1.4,0-2.4,1.1-2.4,2.4S22.2,22,23.6,22z M23.6,18c0.9,0,1.6,0.7,1.6,1.6
		c0,0.9-0.7,1.6-1.6,1.6c-0.9,0-1.6-0.7-1.6-1.6C21.9,18.7,22.7,18,23.6,18z"/>
</g>
</svg>
