<svg xmlns="http://www.w3.org/2000/svg" xmlns:xlink="http://www.w3.org/1999/xlink" viewBox="0 0 35 35">
    <defs>
        <path id="e6k8r9hz4a" d="M25.16 16.84v2.2h-5.024c-.3 0-.58.14-.8.387-.248.282-.371.678-.327 1.029l1.673 12.567c.079.555.563.977 1.127.977h16.384c.555 0 1.048-.458 1.127-1.047l1.673-12.497c.043-.351-.08-.747-.327-1.029-.22-.246-.501-.387-.8-.387H34.84v-2.2c0-2.666-2.173-4.84-4.84-4.84-2.666 0-4.84 2.174-4.84 4.84zm.882 0c0-2.182 1.776-3.96 3.959-3.96 2.182 0 3.96 1.778 3.96 3.96v2.2h-7.92v-2.2zm-4.49 16.06L19.88 20.334c-.016-.106.035-.238.116-.336.043-.052.096-.087.14-.087h19.73c.044 0 .097.035.141.087.08.098.13.23.114.336L38.449 32.83c-.018.14-.15.29-.256.29H21.809c-.133 0-.239-.097-.256-.22zm12.41-10.34c0 .484.394.88.878.88s.88-.396.88-.88-.396-.88-.88-.88-.878.396-.878.88zm-9.681 0c0 .484.397.88.88.88.484 0 .88-.396.88-.88s-.396-.88-.88-.88c-.483 0-.88.396-.88.88z"/>
    </defs>
    <g fill="none" fill-rule="evenodd" transform="translate(5 5)">
        <g>
            <g>
                <g>
                    <g>
                        <g transform="translate(-19 -1072) translate(-2 89) translate(2 189) translate(0 46) translate(0 736)">
                            <use fill="#414042" xlink:href="#e6k8r9hz4a"/>
                        </g>
                    </g>
                </g>
            </g>
        </g>
    </g>
</svg>
