<svg width="22" height="18" viewBox="0 0 22 18" fill="none" xmlns="http://www.w3.org/2000/svg">
<g clip-path="url(#clip0)">
<path fill-rule="evenodd" clip-rule="evenodd" d="M17.9454 17.1544C17.274 17.1524 16.7306 16.6125 16.7296 15.9409C16.7306 15.2703 17.274 14.7294 17.9454 14.7274C18.6198 14.7294 19.1632 15.2713 19.1642 15.9409C19.1632 16.6115 18.6198 17.1544 17.9454 17.1544ZM17.9454 13.8818C16.8052 13.8818 15.8818 14.8048 15.8818 15.9409C15.8818 17.078 16.8062 18 17.9454 18C19.0876 17.998 20.012 17.079 20.012 15.9409C20.012 14.8028 19.0876 13.8818 17.9454 13.8818ZM7.28158 17.1544C6.60917 17.1524 6.06479 16.6115 6.06479 15.9409C6.06479 15.2713 6.61018 14.7294 7.28158 14.7274C7.95399 14.7294 8.49737 15.2703 8.49737 15.9409C8.49737 16.6115 7.95399 17.1544 7.28158 17.1544ZM7.28158 13.8818C6.1404 13.8818 5.21697 14.8038 5.21697 15.9409C5.21697 17.079 6.1404 18 7.28158 18C8.42176 17.997 9.34317 17.079 9.34619 15.9409C9.34619 14.8038 8.42277 13.8818 7.28158 13.8818ZM20.754 3.20025L18.2216 9.59269H9.34317L7.07795 3.20025H20.754ZM8.74536 10.4383H18.7993L22 2.35469H5.88132L6.07992 2.91873L8.74536 10.4383ZM4.99015 11.506V11.4125C4.99216 10.9098 5.39642 10.5056 5.9035 10.5036H6.91665L3.04449 0H0V0.845557H2.45374L5.70691 9.67011C4.82482 9.76864 4.14434 10.5106 4.14334 11.4115V11.508C4.14434 12.4762 4.92865 13.2574 5.90148 13.2615H20.8649V12.4149H5.90148C5.39642 12.4129 4.99216 12.0097 4.99015 11.506Z" fill="#F3B43F"/>
</g>
<defs>
<clipPath id="clip0">
<rect width="22" height="18" fill="white"/>
</clipPath>
</defs>
</svg>
