<svg xmlns="http://www.w3.org/2000/svg" width="20" height="20" viewBox="0 0 20 20">
    <g fill="#FFC220">
        <path d="M5.904 8.364c.229-.403.21-.856-.03-1.057L1.698 4.31c-.434-.258-1.086.053-1.455.707-.371.656-.305 1.387.128 1.645l4.626 2.203c.29.11.682-.101.91-.504l-.002.003zM5.904 11.609c.229.403.21.856-.03 1.059l-4.177 2.994c-.434.257-1.086-.054-1.455-.708-.371-.654-.305-1.387.128-1.644l4.626-2.202c.29-.111.682.098.91.503l-.002-.002zM8.651 13.234c.455 0 .83.24.88.553l.45 5.198c0 .516-.588.937-1.328.937-.74 0-1.327-.421-1.327-.937l.449-5.198c.049-.313.424-.553.878-.553H8.65zM11.4 11.61c.227-.403.62-.612.91-.501l4.625 2.2c.435.258.498.99.13 1.646-.37.653-1.023.964-1.456.707l-4.178-2.995c-.239-.203-.257-.656-.03-1.059l-.001.002zM11.4 8.36c.227.404.62.615.91.504l4.625-2.202c.435-.258.498-.989.13-1.645-.37-.656-1.023-.965-1.456-.707L11.43 7.307c-.239.201-.257.654-.03 1.057l-.001-.003zM8.651 6.74c.455 0 .83-.243.88-.555l.45-5.199C9.98.471 9.393.05 8.653.05c-.74 0-1.327.422-1.327.937l.449 5.2c.049.311.424.553.878.553H8.65zM18.428 15.314h.096c.103 0 .195-.033.195-.125 0-.075-.046-.126-.182-.126-.055 0-.087.004-.11.01v.241zm0 .437h-.14v-.777c.075-.013.158-.022.263-.022.127 0 .191.022.24.06.046.032.078.093.078.163 0 .097-.067.158-.15.186v.01c.069.027.104.087.127.185.023.12.036.167.055.195h-.145c-.023-.028-.041-.096-.06-.204-.018-.085-.069-.12-.177-.12h-.091v.324zm.128-1.02c-.328 0-.579.275-.579.611 0 .345.25.614.588.614.327.006.568-.269.568-.61 0-.34-.241-.614-.573-.614h-.004zm.009-.129c.409 0 .733.325.733.74 0 .423-.324.75-.738.75-.415 0-.742-.327-.742-.75 0-.415.327-.74.742-.74h.005z"/>
    </g>
</svg>
