<?xml version="1.0" encoding="utf-8"?>
<!-- Generator: Adobe Illustrator 24.3.0, SVG Export Plug-In . SVG Version: 6.00 Build 0)  -->
<svg version="1.1" id="Capa_1" xmlns="http://www.w3.org/2000/svg" xmlns:xlink="http://www.w3.org/1999/xlink" x="0px" y="0px"
	 viewBox="0 0 35 35" style="enable-background:new 0 0 35 35;" xml:space="preserve">
<style type="text/css">
	.st0{fill-rule:evenodd;clip-rule:evenodd;fill:#5FB446;}
</style>
<g transform="translate(-21 -12)">
	<g>
		<path id="qg5vqrzdra" class="st0" d="M26,18.5v1h3.4c0.1,0,0.2,0.1,0.2,0.2l3.7,14.9c0.1,0.5,0.6,0.9,1.2,0.9l13,0
			c0.6,0,1.1-0.4,1.2-1L51,24c0.1-0.4,0-0.8-0.3-1.1c-0.2-0.3-0.6-0.5-1-0.5l-18.3,0l-0.8-3.1c-0.1-0.5-0.6-0.9-1.2-0.9H26z
			 M45,23.5h4.8c0.1,0,0.2,0.1,0.2,0.1c0,0,0.1,0.1,0,0.2l-0.6,2.7h-4.7L45,23.5z M38,23.5H44l-0.2,3h-5.4L38,23.5z M31.6,23.5H37
			l0.2,3h-4.9L31.6,23.5z M44.6,27.5h4.6l-0.6,3h-4.2L44.6,27.5z M38.4,27.5h5.2l-0.3,3h-4.7L38.4,27.5z M32.6,27.5h4.7l0.2,3h-4.2
			L32.6,27.5z M44,34.5l0.2-3h4.1l-0.6,2.8c0,0.1-0.1,0.2-0.2,0.2L44,34.5z M39,34.5l-0.2-3h4.6l-0.2,3L39,34.5z M34.6,34.5
			c-0.1,0-0.2-0.1-0.2-0.2l-0.7-2.8h4.1l0.2,3C38,34.5,34.6,34.5,34.6,34.5z M44,38.5c0,1.1,0.9,2,2,2c1.1,0,2-0.9,2-2s-0.9-2-2-2
			C44.9,36.5,44,37.4,44,38.5z M45,38.5c0-0.5,0.5-1,1-1c0.5,0,1,0.5,1,1s-0.5,1-1,1C45.5,39.5,45,39,45,38.5z M34,38.5
			c0,1.1,0.9,2,2,2c1.1,0,2-0.9,2-2s-0.9-2-2-2C34.9,36.5,34,37.4,34,38.5z M35,38.5c0-0.5,0.5-1,1-1s1,0.5,1,1s-0.5,1-1,1
			S35,39,35,38.5z"/>
	</g>
</g>
</svg>
