<?xml version="1.0" encoding="utf-8"?>
<!-- Generator: Adobe Illustrator 24.3.0, SVG Export Plug-In . SVG Version: 6.00 Build 0)  -->
<svg version="1.1" id="Capa_1" xmlns="http://www.w3.org/2000/svg" xmlns:xlink="http://www.w3.org/1999/xlink" x="0px" y="0px"
	 viewBox="0 0 35 35" style="enable-background:new 0 0 35 35;" xml:space="preserve">
<style type="text/css">
	.st0{fill-rule:evenodd;clip-rule:evenodd;fill:#414042;}
</style>
<g transform="translate(-23 -13)">
	<g>
		<path id="b29h9o2h4a" class="st0" d="M32.1,20.6l-1.5,1.5c-0.1,0.1-0.2,0.3-0.1,0.5l1.8,3.2c0,0.1,0.1,0.1,0.2,0.2l2.3,0.8l3,3
			l-6.8,6.8c-0.9,0.9-0.9,2.4,0,3.3c0.5,0.4,1,0.7,1.6,0.7s1.2-0.2,1.6-0.7l6.3-6.5h0.1v1c0,0.1,0,0.2,0.1,0.3l5,5.2
			c0.5,0.5,1.2,0.8,1.8,0.8c0.7,0,1.4-0.3,1.9-0.8c0.5-0.5,0.8-1.2,0.8-1.9c0-0.7-0.3-1.3-0.8-1.8l0,0L44.6,31
			c-0.1-0.1-0.2-0.1-0.3-0.1h-1v-0.1l1.7-1.7c0.4,0.1,0.7,0.2,1.1,0.2c0.1,0,0.3,0,0.4,0c2.1-0.2,3.8-1.9,4-4.1
			c0.1-0.7-0.1-1.4-0.4-2.1c-0.1-0.1-0.2-0.2-0.3-0.2c-0.1,0-0.3,0-0.4,0.1l-2.2,2.2c0,0-0.2,0-0.2,0l-1.2-1.2c0,0,0-0.2,0-0.2
			l2.3-2.3c0.1-0.1,0.1-0.2,0.1-0.4c0-0.1-0.1-0.2-0.2-0.3c-0.6-0.3-1.3-0.5-2.1-0.4c-2.2,0.1-4,1.8-4.2,3.9c0,0.5,0,1,0.1,1.5
			l-2.1,2l-3-3l-0.8-2.4c0-0.1-0.1-0.2-0.2-0.2l-3.2-1.8c-0.1,0-0.1-0.1-0.2-0.1C32.3,20.5,32.2,20.5,32.1,20.6z M43.5,27.4
			c-0.8-0.8-1.1-1.8-1-2.9c0.2-1.7,1.7-3.1,3.5-3.2h0.1c0.4,0,0.7,0,1,0.1l-1.9,1.9C45.1,23.5,45,23.7,45,24c0,0.2,0.1,0.5,0.3,0.7
			l1.2,1.2c0.4,0.4,1,0.4,1.3,0l1.8-1.8c0.1,0.4,0.1,0.7,0.1,1.1c-0.1,1.7-1.5,3.2-3.3,3.3c-0.1,0-0.2,0-0.3,0
			C45.1,28.5,44.2,28.1,43.5,27.4z M35.4,26.1c0,0-0.1-0.1-0.2-0.1L33,25.2l-1.6-2.8l1-1l2.8,1.6l0.8,2.3c0,0,0.1,0.1,0.1,0.1
			l4.3,4.3l-0.7,0.7L35.4,26.1L35.4,26.1z M40.3,28.5l1.8-1.8c0.2,0.5,0.5,0.9,0.9,1.2c0.4,0.4,0.8,0.6,1.2,0.9l-0.9,0.9v-0.3
			c0-0.1,0-0.2-0.1-0.3l-0.4-0.3c-0.2-0.2-0.4-0.3-0.7-0.3c-0.3,0-0.5,0.1-0.7,0.3L41,29.2C41,29.2,40.3,28.5,40.3,28.5z M39.4,32.2
			c0,0,0-0.1,0-0.1c0-0.1,0-0.1,0-0.2l2.6-2.6c0,0,0.1,0,0.1,0c0.1,0,0.1,0,0.2,0.1l0.2,0.2v1.7c0,0.2,0.2,0.4,0.4,0.4h1.2l5,4.8
			c0.3,0.3,0.5,0.8,0.5,1.3c0,0.5-0.2,1-0.6,1.3c-0.8,0.8-1.9,0.8-2.6,0l-4.8-5v-1.2c0-0.2-0.2-0.4-0.4-0.4h-1.7
			C39.6,32.5,39.4,32.2,39.4,32.2z M31.8,39.2c-0.6-0.6-0.6-1.6,0-2.1l6.8-6.8l0.7,0.7l-0.4,0.4c-0.2,0.2-0.3,0.5-0.3,0.7
			c0,0.3,0.1,0.5,0.3,0.7l0.3,0.4c0.1,0.1,0.2,0.1,0.3,0.1h0.3l-5.8,5.9c-0.3,0.3-0.7,0.4-1.1,0.4C32.4,39.7,32.1,39.5,31.8,39.2
			L31.8,39.2z M43.4,25.2l2.4,2.4l0.6-0.6L44,24.6L43.4,25.2z M42.7,32.7c-0.2,0.2-0.2,0.4,0,0.6l5,5c0.1,0.1,0.2,0.1,0.3,0.1
			c0.1,0,0.2,0,0.3-0.1c0.2-0.2,0.2-0.4,0-0.6l-5-5c-0.1-0.1-0.2-0.1-0.3-0.1S42.8,32.7,42.7,32.7z M32.5,37.7
			c0,0.4,0.4,0.8,0.8,0.8c0.4,0,0.8-0.4,0.8-0.8s-0.4-0.8-0.8-0.8C32.9,36.9,32.5,37.2,32.5,37.7z"/>
	</g>
</g>
</svg>
