<?xml version="1.0" encoding="utf-8"?>
<!-- Generator: Adobe Illustrator 24.3.0, SVG Export Plug-In . SVG Version: 6.00 Build 0)  -->
<svg version="1.1" id="Capa_1" xmlns="http://www.w3.org/2000/svg" xmlns:xlink="http://www.w3.org/1999/xlink" x="0px" y="0px"
	 viewBox="0 0 35 35" style="enable-background:new 0 0 35 35;" xml:space="preserve">
<style type="text/css">
	.st0{fill-rule:evenodd;clip-rule:evenodd;fill:#414042;}
</style>
<g transform="translate(-24 -13)">
	<g>
		<path id="mkw28vdyra" class="st0" d="M33,20.5c-0.6,0-1,0.5-1,1v18c0,0.6,0.5,1,1,1h16.9c0.6,0,1-0.5,1-1v-18c0-0.6-0.5-1-1-1H33
			L33,20.5z M32.8,21.5c0-0.1,0.1-0.2,0.2-0.2h16.9c0.1,0,0.2,0.1,0.2,0.2v3.1H32.8C32.8,24.7,32.8,21.5,32.8,21.5z M32.8,39.5v-14
			h17.3v14c0,0.1-0.1,0.2-0.2,0.2H33C32.9,39.7,32.8,39.6,32.8,39.5z M47.7,23c0,0.5,0.4,0.8,0.8,0.8s0.8-0.4,0.8-0.8
			c0-0.4-0.4-0.8-0.8-0.8S47.7,22.5,47.7,23z M45.2,23c0,0.5,0.4,0.8,0.8,0.8c0.5,0,0.8-0.4,0.8-0.8c0-0.4-0.4-0.8-0.8-0.8
			S45.2,22.5,45.2,23z M36.1,32.6c0,3,2.4,5.4,5.4,5.4s5.4-2.4,5.4-5.4s-2.4-5.4-5.4-5.4S36.1,29.6,36.1,32.6z M41.5,28
			c2.4,0,4.4,1.9,4.5,4.4c-2.1,1.8-3.1,1-4.3-0.1c-1.1-1-2.5-2.1-4.7-0.6C37.5,29.6,39.3,28,41.5,28z M37,32.7
			c2.1-1.7,3-0.9,4.2,0.2c0.7,0.6,1.5,1.3,2.7,1.3c0.6,0,1.3-0.2,2.1-0.8c-0.4,2.1-2.3,3.7-4.5,3.7C39,37.2,37,35.2,37,32.7z"/>
	</g>
</g>
</svg>
