<?xml version="1.0" encoding="utf-8"?>
<!-- Generator: Adobe Illustrator 24.3.0, SVG Export Plug-In . SVG Version: 6.00 Build 0)  -->
<svg version="1.1" id="Capa_1" xmlns="http://www.w3.org/2000/svg" xmlns:xlink="http://www.w3.org/1999/xlink" x="0px" y="0px"
	 viewBox="0 0 500 500" style="enable-background:new 0 0 500 500;" xml:space="preserve">
<style type="text/css">
	.st0{fill:#414042;}
</style>
<path class="st0" d="M81.4,260.9c-11.9,0-19.8,9.9-19.8,19.8c0,9.9,9.9,19.8,19.8,19.8c11.9,0,19.8-9.9,19.8-19.8
	C101.2,270.8,93.3,260.9,81.4,260.9z M81.4,320.4c-21.8,0-39.7-17.9-39.7-39.7s17.9-39.7,39.7-39.7s39.7,17.9,39.7,39.7
	S103.2,320.4,81.4,320.4z M160.7,300.6h178.6v-39.7H160.7V300.6z M351.2,320.4H152.8c-6,0-9.9-4-9.9-9.9V251c0-6,4-9.9,9.9-9.9
	h198.4c6,0,9.9,4,9.9,9.9v59.5C361.1,316.5,357.1,320.4,351.2,320.4z M420.6,260.9c-11.9,0-19.8,9.9-19.8,19.8
	c0,9.9,9.9,19.8,19.8,19.8c11.9,0,19.8-9.9,19.8-19.8C440.5,270.8,432.5,260.9,420.6,260.9z M420.6,320.4
	c-21.8,0-39.7-17.9-39.7-39.7s17.9-39.7,39.7-39.7c21.8,0,39.7,17.9,39.7,39.7S442.4,320.4,420.6,320.4z M77.4,179.6h357.1h2
	L398.8,74.4c-2-7.9-9.9-13.9-19.8-13.9h-246c-9.9,0-15.9,6-19.8,13.9L77.4,179.6z M470.2,360.1h-11.9c11.9,0,19.8-9.9,19.8-19.8
	v-97.2c0-23.8-19.8-41.7-47.6-41.7H69.5c-27.8-2-47.6,15.9-47.6,39.7v97.2c0,11.9,9.9,19.8,19.8,19.8h428.5V360.1z M41.7,380v49.6
	c0,6,4,9.9,9.9,9.9h59.5c6,0,9.9-4,9.9-9.9V380H41.7z M450.4,459.3h-59.5c-15.9,0-29.8-13.9-29.8-29.8V380h19.8v49.6
	c0,6,4,9.9,9.9,9.9h59.5c6,0,9.9-4,9.9-9.9V380H140.9v49.6c0,15.9-13.9,29.8-29.8,29.8H51.6c-15.9,0-29.8-13.9-29.8-29.8V374
	C9.9,366.1,2,354.2,2,340.3V239.1c0-2,0-2,0-4c4-27.8,23.8-47.6,53.6-53.6L95.2,68.5c6-15.9,19.8-27.8,37.7-27.8h246
	c17.9,0,33.7,11.9,37.7,27.8l39.7,115.1c23.8,7.9,39.7,25.8,41.7,49.6c0,2,0,2,0,4v103.2c0,13.9-7.9,27.8-19.8,33.7v55.6
	C480.1,445.4,466.3,459.3,450.4,459.3z"/>
</svg>
