<?xml version="1.0" encoding="utf-8"?>
<!-- Generator: Adobe Illustrator 24.3.0, SVG Export Plug-In . SVG Version: 6.00 Build 0)  -->
<svg version="1.1" id="Capa_1" xmlns="http://www.w3.org/2000/svg" xmlns:xlink="http://www.w3.org/1999/xlink" x="0px" y="0px"
	 viewBox="0 0 500 500" style="enable-background:new 0 0 500 500;" xml:space="preserve">
<style type="text/css">
	.st0{fill:#414042;}
</style>
<g id="Page-1_1_">
	<g id="Artboard" transform="translate(-316.000000, -3764.000000)">
		<g id="Blender" transform="translate(316.000000, 3764.000000)">
			<path class="st0" d="M362.5,72.5h-9.3V38.8c0-11.2-11.2-22.4-24.3-22.4H132.7c-11.2,0-22.4,11.2-22.4,22.4v33.6h-28
				c-3.7,0-7.5,1.9-9.3,5.6s0,7.5,1.9,9.3l43,54.2l29.9,183.1l-31.8,128.9c-1.9,7.5,0,14.9,3.7,20.6c3.7,5.6,11.2,9.3,18.7,9.3
				h186.9c7.5,0,14.9-3.7,18.7-9.3c3.7-5.6,5.6-13.1,3.7-20.6l-31.8-128.9l35.5-233.6h11.2c26.2,0,46.7,20.6,46.7,46.7V222h18.7
				v-84.1C427.9,102.4,398,72.5,362.5,72.5z M128.9,38.8c0-1.9,1.9-3.7,3.7-3.7h196.2c3.7,0,5.6,1.9,5.6,3.7v33.6H128.9V38.8z
				 M328.9,463c0,0-1.9,1.9-3.7,1.9H138.3c-1.9,0-3.7-1.9-3.7-1.9s-1.9-1.9,0-3.7l29.9-125.2H299l29.9,125.2
				C330.7,461.2,328.9,463,328.9,463z M299,315.4H241v-43l35.5-33.6l-13.1-13.1l-29.9,29.9l-29.9-29.9l-13.1,13.1l33.6,33.6v43
				h-57.9L136.4,136c0-1.9-1.9-3.7-1.9-3.7l-33.6-41.1h16.8h213L299,315.4z M231.7,352.8c-26.2,0-46.7,20.6-46.7,46.7
				c0,26.2,20.6,46.7,46.7,46.7s46.7-20.6,46.7-46.7C278.4,373.3,257.9,352.8,231.7,352.8z M231.7,427.5c-14.9,0-28-13.1-28-28
				s13.1-28,28-28s28,13.1,28,28S246.6,427.5,231.7,427.5z"/>
		</g>
	</g>
</g>
</svg>
