<?xml version="1.0" encoding="utf-8"?>
<!-- Generator: Adobe Illustrator 24.3.0, SVG Export Plug-In . SVG Version: 6.00 Build 0)  -->
<svg version="1.1" id="Capa_1" xmlns="http://www.w3.org/2000/svg" xmlns:xlink="http://www.w3.org/1999/xlink" x="0px" y="0px"
	 viewBox="0 0 35 35" style="enable-background:new 0 0 35 35;" xml:space="preserve">
<style type="text/css">
	.st0{fill-rule:evenodd;clip-rule:evenodd;fill:#414042;}
</style>
<g transform="translate(-22 -13)">
	<g>
		<path id="v8q6wk1k5a" class="st0" d="M37.8,20.6c-0.2,0.1-0.3,0.4-0.2,0.6l1.3,2.3l-9.2,16.2h-1.2v0.8h22v-0.9h-1.3L40,23.5
			l1.3-2.3c0.1-0.2,0-0.5-0.2-0.6c-0.1,0-0.1-0.1-0.2-0.1c-0.2,0-0.3,0.1-0.4,0.2l-1,1.9l-1.1-1.9c-0.1-0.1-0.2-0.2-0.4-0.2
			C38,20.5,37.9,20.5,37.8,20.6L37.8,20.6z M39.5,24.4l8.7,15.3h-4c-4.1-3.1-4.3-8-4.3-8v-0.1v-0.1v-0.1c0,0,0,0,0-0.1
			c0,0,0,0-0.1-0.1c0,0,0,0-0.1,0s-0.1,0-0.1,0s0,0-0.1,0l0,0h-0.1c0,0,0,0-0.1,0c0,0-0.1,0-0.1,0.1l0,0c0,0,0,0.1-0.1,0.1
			c0,0,0,0,0,0.1v0.1c0,0,0,0,0,0.1s-0.2,5-4.3,8h-4L39.5,24.4z M39.5,34.1c0.5,1.6,1.4,3.7,3.4,5.5h-6.8
			C38.1,37.8,39,35.7,39.5,34.1L39.5,34.1z"/>
	</g>
</g>
</svg>
