<?xml version="1.0" encoding="utf-8"?>
<!-- Generator: Adobe Illustrator 24.3.0, SVG Export Plug-In . SVG Version: 6.00 Build 0)  -->
<svg version="1.1" id="Capa_1" xmlns="http://www.w3.org/2000/svg" xmlns:xlink="http://www.w3.org/1999/xlink" x="0px" y="0px"
	 viewBox="0 0 35 35" style="enable-background:new 0 0 35 35;" xml:space="preserve">
<style type="text/css">
	.st0{fill:#414042;}
</style>
<path class="st0" d="M9,18.1c-0.6,0-1,0.5-1,1s0.5,1,1,1c0.6,0,1-0.5,1-1S9.6,18.1,9,18.1z M9,21.1c-1.1,0-2-0.9-2-2s0.9-2,2-2
	s2,0.9,2,2S10.1,21.1,9,21.1z M13,20.1h9v-2h-9V20.1z M22.6,21.1h-10c-0.3,0-0.5-0.2-0.5-0.5v-3c0-0.3,0.2-0.5,0.5-0.5h10
	c0.3,0,0.5,0.2,0.5,0.5v3C23.1,20.9,22.9,21.1,22.6,21.1z M26.1,18.1c-0.6,0-1,0.5-1,1s0.5,1,1,1c0.6,0,1-0.5,1-1
	S26.7,18.1,26.1,18.1z M26.1,21.1c-1.1,0-2-0.9-2-2s0.9-2,2-2s2,0.9,2,2S27.2,21.1,26.1,21.1z M8.8,14h18h0.1L25,8.7
	C24.9,8.3,24.5,8,24,8H11.6c-0.5,0-0.8,0.3-1,0.7L8.8,14z M28.6,23.1H28c0.6,0,1-0.5,1-1v-4.9c0-1.2-1-2.1-2.4-2.1H8.4
	C7,15,6,15.9,6,17.1V22c0,0.6,0.5,1,1,1h21.6V23.1z M7,24.1v2.5c0,0.3,0.2,0.5,0.5,0.5h3c0.3,0,0.5-0.2,0.5-0.5v-2.5H7z M27.6,28.1
	h-3c-0.8,0-1.5-0.7-1.5-1.5v-2.5h1v2.5c0,0.3,0.2,0.5,0.5,0.5h3c0.3,0,0.5-0.2,0.5-0.5v-2.5H12v2.5c0,0.8-0.7,1.5-1.5,1.5h-3
	c-0.8,0-1.5-0.7-1.5-1.5v-2.8c-0.6-0.4-1-1-1-1.7V17c0-0.1,0-0.1,0-0.2c0.2-1.4,1.2-2.4,2.7-2.7l2-5.7C10,7.6,10.7,7,11.6,7H24
	c0.9,0,1.7,0.6,1.9,1.4l2,5.8c1.2,0.4,2,1.3,2.1,2.5c0,0.1,0,0.1,0,0.2v5.2c0,0.7-0.4,1.4-1,1.7v2.8C29.1,27.4,28.4,28.1,27.6,28.1z
	"/>
</svg>
