<?xml version="1.0" encoding="utf-8"?>
<!-- Generator: Adobe Illustrator 24.3.0, SVG Export Plug-In . SVG Version: 6.00 Build 0)  -->
<svg version="1.1" id="Capa_1" xmlns="http://www.w3.org/2000/svg" xmlns:xlink="http://www.w3.org/1999/xlink" x="0px" y="0px"
	 viewBox="0 0 35 35" style="enable-background:new 0 0 35 35;" xml:space="preserve">
<style type="text/css">
	.st0{fill-rule:evenodd;clip-rule:evenodd;fill:#414042;}
</style>
<g transform="translate(-21 -14)">
	<g>
		<path id="x474xnotea" class="st0" d="M26,27.5c0,1.5,0.5,2.8,1.4,3.9c0.8,1.3,1.6,4.9,1.6,6.3v2.1c0,0.9,0.5,1.8,1.4,1.8h2.2
			c0.8,0,1.5-0.7,1.6-1.6c0.1-2,1.1-6.7,3.3-7.2l0,0c3-0.7,6-1.4,6.2-1.5c0.2-0.1,0.4-0.2,0.4-0.5v-6.2c0-0.2-0.2-0.4-0.3-0.5
			c-0.4-0.1-8.6-2.5-11.7-2.5C28.7,21.5,26,24.2,26,27.5z M28.1,30.6c0-0.1-0.1-0.1-0.1-0.1c-0.6-0.8-1-1.9-1-3c0-2.8,2.2-5,5-5
			c2.5,0,9.4,1.9,11,2.3v5.5c-1.7,0.4-8.5,2.2-11,2.2C30.4,32.5,29,31.8,28.1,30.6L28.1,30.6z M30,39.8v-2.1c0-1-0.3-3.1-0.9-4.9
			c0.9,0.5,1.8,0.8,2.9,0.8c0.8,0,2-0.2,3.3-0.4c-1.5,1.9-2,5.3-2.1,6.8c0,0.3-0.3,0.6-0.6,0.6h-2.2C30.1,40.5,30,40,30,39.8
			L30,39.8z M29,27.5c0,1.6,1.3,3,3,3c1.6,0,3-1.3,3-3s-1.3-3-3-3C30.3,24.5,29,25.8,29,27.5L29,27.5z M30,27.5c0-1.1,0.9-2,2-2
			c1.1,0,2,0.9,2,2s-0.9,2-2,2C30.9,29.5,30,28.6,30,27.5L30,27.5z M45.2,25.3c-0.2,0.1-0.3,0.5-0.2,0.7c0.2,0.2,0.5,0.3,0.7,0.1
			c1.1-0.7,1.4-0.5,1.9,0c0.4,0.4,0.8,0.7,1.4,0.7c0.4,0,1-0.2,1.7-0.6c0.2-0.1,0.3-0.5,0.2-0.7c-0.2-0.2-0.5-0.3-0.7-0.1
			c-1.1,0.7-1.4,0.5-1.9,0c-0.4-0.4-0.8-0.7-1.4-0.7C46.5,24.7,45.9,24.9,45.2,25.3L45.2,25.3z M45.2,28.3c-0.2,0.1-0.3,0.5-0.2,0.7
			c0.2,0.2,0.5,0.3,0.7,0.1c1.1-0.7,1.4-0.5,1.9,0c0.4,0.4,0.8,0.7,1.4,0.7c0.5,0,1-0.2,1.7-0.6c0.2-0.1,0.3-0.5,0.2-0.7
			c-0.2-0.2-0.5-0.3-0.7-0.1c-1.1,0.7-1.4,0.5-1.9,0c-0.4-0.4-0.8-0.7-1.4-0.7C46.5,27.7,45.9,27.9,45.2,28.3L45.2,28.3z"/>
	</g>
</g>
</svg>
