<?xml version="1.0" encoding="utf-8"?>
<!-- Generator: Adobe Illustrator 24.3.0, SVG Export Plug-In . SVG Version: 6.00 Build 0)  -->
<svg version="1.1" id="Capa_1" xmlns="http://www.w3.org/2000/svg" xmlns:xlink="http://www.w3.org/1999/xlink" x="0px" y="0px"
	 viewBox="0 0 35 35" style="enable-background:new 0 0 35 35;" xml:space="preserve">
<style type="text/css">
	.st0{fill:#414042;}
</style>
<path id="Fireplace" class="st0" d="M29.4,8.2C29.4,8.1,29.2,8,29.1,8H6C5.8,7.9,5.7,8,5.6,8.2C5.5,8.2,5.5,8.4,5.5,8.5l0.9,3.8v4.8
	v4.8v4.8c0,0.2,0.2,0.5,0.5,0.5h2.4h1.5h13.5h3.4h0.5c0.2,0,0.5-0.2,0.5-0.5v-4.8V17v-4.8l0.9-3.8C29.5,8.4,29.5,8.2,29.4,8.2z
	 M28.4,8.9l-0.8,2.9h-3.5H10.8H7.3L6.6,8.9H28.4z M18.3,17.1c1,0.7,2.5,2.3,2.5,5.7c0,1-0.5,2-1.2,2.6c-0.8,0.6-1.8,0.9-2.8,0.7
	c-1.5-0.3-2.7-1.8-2.7-3.3c0-1.2,0.5-1.9,1.2-2.7c0.4-0.5,0.8-1.1,1-1.8c0.2,0.2,0.4,0.5,0.5,0.9c0.1,0.3,0.4,0.5,0.7,0.5
	c0.3,0,0.6-0.2,0.7-0.5C18.5,18.7,18.5,17.9,18.3,17.1z M20.2,26.1c1-0.8,1.6-2.1,1.6-3.4c0-5.8-4.1-7.1-4.2-7.1
	c-0.2,0-0.4,0-0.5,0.2c-0.1,0.2-0.2,0.3-0.1,0.5c0.4,0.8,0.5,1.5,0.4,2c-0.5-0.9-1.3-1.5-1.4-1.5c-0.2-0.1-0.4-0.1-0.5,0
	c-0.2,0.1-0.2,0.3-0.2,0.5c0.2,0.8-0.2,1.3-0.8,2.1c-0.6,0.8-1.4,1.7-1.4,3.3c0,1.4,0.6,2.6,1.6,3.4h-3.6v-4.3v-4.8v-4.3h12.5v4.3
	v4.8v4.3H20.2C20.2,26.2,20.2,26.2,20.2,26.1z M10.3,16.6H7.4v-3.8h2.9C10.3,12.8,10.3,16.6,10.3,16.6z M7.4,17.5h2.9v3.8H7.4V17.5z
	 M27.6,16.6h-2.9v-3.8h2.9V16.6z M24.7,17.5h2.9v3.8h-2.9V17.5z M9.3,26.2H7.4v-3.8h2.9v3.8H9.3L9.3,26.2z M27.6,26.2h-2.9v-3.8h2.9
	V26.2z M17.2,24.2c0.1,0,0.2,0,0.2,0v0.9c-0.2,0-0.3,0-0.5-0.1c-1.1-0.2-1.9-1.4-1.9-2.8H16C16,23.3,16.6,24,17.2,24.2z"/>
</svg>
