<?xml version="1.0" encoding="utf-8"?>
<!-- Generator: Adobe Illustrator 24.3.0, SVG Export Plug-In . SVG Version: 6.00 Build 0)  -->
<svg version="1.1" id="Capa_1" xmlns="http://www.w3.org/2000/svg" xmlns:xlink="http://www.w3.org/1999/xlink" x="0px" y="0px"
	 viewBox="0 0 35 35" style="enable-background:new 0 0 35 35;" xml:space="preserve">
<style type="text/css">
	.st0{fill-rule:evenodd;clip-rule:evenodd;fill:#0071CE;}
</style>
<g transform="translate(-23 -14)">
	<g>
		<path id="z4qbqs7e8a" class="st0" d="M42.2,21.5c-0.7,0-1.6,0.3-2.1,0.8L31,31.4c-0.6,0.6-0.6,1.4,0,2l7.7,7.7
			c0.3,0.3,0.7,0.4,1,0.4s0.8-0.1,1-0.4l9-9.1c0.5-0.5,0.8-1.4,0.8-2.1v-7.1c0-0.8-0.5-1.3-1.3-1.3C49.2,21.5,42.2,21.5,42.2,21.5z
			 M39.2,40.5l-7.7-7.7c-0.3-0.3-0.3-0.6,0-0.9l9.1-9.1c0.3-0.3,1-0.5,1.5-0.5h7.1c0.4,0,0.5,0.1,0.5,0.5v7.1c0,0.5-0.2,1.2-0.5,1.5
			l-9,9.1c-0.1,0.1-0.3,0.2-0.5,0.2C39.5,40.7,39.3,40.6,39.2,40.5z M42.5,27.1c0,1.3,1.1,2.4,2.4,2.4s2.4-1.1,2.4-2.4
			s-1.1-2.4-2.4-2.4S42.5,25.8,42.5,27.1z M43.3,27.1c0-0.9,0.7-1.6,1.6-1.6c0.9,0,1.6,0.7,1.6,1.6s-0.7,1.6-1.6,1.6
			S43.3,28,43.3,27.1z"/>
	</g>
</g>
</svg>
