<?xml version="1.0" encoding="utf-8"?>
<!-- Generator: Adobe Illustrator 24.3.0, SVG Export Plug-In . SVG Version: 6.00 Build 0)  -->
<svg version="1.1" id="Capa_1" xmlns="http://www.w3.org/2000/svg" xmlns:xlink="http://www.w3.org/1999/xlink" x="0px" y="0px"
	 viewBox="0 0 35 35" style="enable-background:new 0 0 35 35;" xml:space="preserve">
<style type="text/css">
	.st0{fill-rule:evenodd;clip-rule:evenodd;fill:#414042;}
</style>
<g transform="translate(-22 -11)">
	<g>
		<path id="j12jpxewla" class="st0" d="M31.1,18.4c-0.2,0.1-0.3,0.2-0.3,0.4v6.7c0,0,0,0-0.1,0.1l-2.7,6c0,0.1,0,0.4,0,0.4v7.6
			c0,0.3,0.2,0.5,0.5,0.5h2.8c0.3,0,0.5-0.2,0.5-0.5v-1.4h15.6v1.4c0,0.3,0.2,0.5,0.5,0.5h2.8c0.3,0,0.5-0.2,0.5-0.5v-7.6
			c0,0,0-0.3,0-0.4l-2.7-5.7c0,0,0,0,0-0.1v-6.9c0-0.2-0.1-0.4-0.3-0.4c-2-0.7-5.2-1.4-8.3-1.4C36.4,17,33,17.7,31.1,18.4L31.1,18.4
			z M31.7,19.2c1.6-0.5,4.7-1.3,7.9-1.3c2.8,0,5.8,0.6,7.7,1.3v6.1h-1.2c0.2-0.3,0.3-0.6,0.3-0.9v-0.9c0-1-0.8-1.8-1.8-1.8h-2.8
			c-1,0-1.8,0.8-1.8,1.8v0.9H39v-0.9c0-1-0.8-1.8-1.8-1.8h-2.8c-1,0-1.8,0.8-1.8,1.8v0.9c0,0.3,0.1,0.6,0.3,0.9h-1.2V19.2z
			 M40.9,24.4v-0.9c0-0.5,0.4-0.9,0.9-0.9h2.8c0.5,0,0.9,0.4,0.9,0.9v0.9c0,0.5-0.4,0.9-0.9,0.9h-2.1C42.1,24.7,41.6,24.4,40.9,24.4
			z M33.5,24.4v-0.9c0-0.5,0.4-0.9,0.9-0.9h2.8c0.5,0,0.9,0.4,0.9,0.9v0.9c-0.7,0-1.3,0.4-1.6,0.9h-2.1
			C33.9,25.3,33.5,24.9,33.5,24.4z M37.2,26.2c0-0.5,0.4-0.9,0.9-0.9h2.8c0.5,0,0.9,0.4,0.9,0.9c0,0.5-0.4,0.9-0.9,0.9h-2.8
			C37.6,27.1,37.2,26.7,37.2,26.2L37.2,26.2z M40.9,28c1,0,1.8-0.8,1.8-1.8h4.7l2.2,4.6H29.4l2.1-4.6h4.8c0,1,0.8,1.8,1.8,1.8H40.9z
			 M28.9,34.3V32c0-0.1,0.1-0.2,0.2-0.2h20.7c0.1,0,0.2,0.1,0.2,0.2v2.3c0,0.1-0.1,0.2-0.2,0.2H29.2C29,34.5,28.9,34.4,28.9,34.3
			L28.9,34.3z M49.9,35.4c0.1,0,0.2,0,0.2,0v3.7h-1.8v-1.4c0-0.3-0.2-0.5-0.5-0.5H31.2c-0.3,0-0.5,0.2-0.5,0.5v1.4h-1.8v-3.7
			c0.1,0,0.1,0,0.2,0L49.9,35.4L49.9,35.4z"/>
	</g>
</g>
</svg>
