<?xml version="1.0" encoding="utf-8"?>
<!-- Generator: Adobe Illustrator 24.3.0, SVG Export Plug-In . SVG Version: 6.00 Build 0)  -->
<svg version="1.1" id="Capa_1" xmlns="http://www.w3.org/2000/svg" xmlns:xlink="http://www.w3.org/1999/xlink" x="0px" y="0px"
	 viewBox="0 0 35 35" style="enable-background:new 0 0 35 35;" xml:space="preserve">
<style type="text/css">
	.st0{fill-rule:evenodd;clip-rule:evenodd;fill:#414042;}
</style>
<g transform="translate(-23 -11)">
	<g>
		<path id="op9h8ebgea" class="st0" d="M43.1,17.5c-0.9-0.4-1.8-0.4-2.7-0.4s-1.8,0.1-2.6,0.5c-0.6-0.9-1.7-1.5-2.8-1.5
			c-1.9,0-3.5,1.7-3.5,3.7c0,1.4,0.6,2.6,1.6,3.2C33,23.4,33,23.7,33,24.1c0,1.4,0.4,2.6,1.1,3.7c-0.2-0.1-0.4-0.2-0.6-0.3
			c-0.2-0.1-0.5-0.2-0.7-0.3C32.4,27,32.1,27,31.7,27c-1.2,0-2.3,0.8-2.7,1.9c-0.5,1.5,0.1,3.1,1.5,3.8c0.8,0.4,1.6,0.8,2.8,1
			c-0.5,0.5-1.3,1.2-2.1,2c-0.6,0.6-0.9,1.5-0.8,2.3c0.1,0.9,0.5,1.7,1.1,2.2l0.3,0.2c1,0.8,2.4,0.9,3.3,0.1
			c0.8-0.6,2.5-1.7,4.7-1.7h1c2.2,0,3.9,1,4.7,1.7c0.5,0.3,1,0.5,1.6,0.5s1.2-0.2,1.8-0.6l0.2-0.2c0.7-0.5,1.1-1.3,1.1-2.2
			c0.1-0.9-0.2-1.7-0.8-2.3c-0.8-0.9-1.6-1.6-2.1-2c1.2-0.2,2-0.6,2.8-1c1-0.5,1.6-1.5,1.6-2.7c0-0.4-0.1-0.7-0.2-1
			c-0.3-0.8-0.8-1.4-1.6-1.7c-0.7-0.3-1.5-0.3-2.2,0c-0.2,0.1-0.5,0.2-0.7,0.3c-0.3,0.1-0.5,0.2-0.8,0.3c0.7-1.1,1.2-2.4,1.2-3.7
			c0-0.4,0-0.7-0.1-1.1c1-0.6,1.9-1.9,1.9-3.3c0-2.1-1.6-3.7-3.5-3.7C45,15.9,43.7,16.5,43.1,17.5z M43.8,18.3
			c0.4-0.9,1.1-1.3,2.1-1.3c1.4,0,2.5,1.2,2.5,2.7c0,1.1-0.5,2-1.3,2.4l0,0c-0.2,0-0.4,0.3-0.4,0.6c0,0.1,0,0.1,0,0.2
			c0.1,0.4,0.1,0.8,0.1,1.2c0,3.3-2.8,6-6.3,6s-6.3-2.7-6.3-6c0-0.4,0-0.8,0.1-1.3v-0.1c0-0.3-0.2-0.4-0.4-0.5
			c-0.8-0.4-1.3-1.3-1.3-2.4c0-1.5,1.1-2.7,2.5-2.7c0.9,0,1.7,0.5,2.1,1.4c0.1,0.2,0.4,0.3,0.6,0.2c0.9-0.4,1.7-0.6,2.6-0.6
			c1,0,1.8,0,2.5,0.5c0.1,0.1,0.2,0.1,0.3,0.1C43.5,18.6,43.7,18.5,43.8,18.3L43.8,18.3z M32.5,39.5l-0.3-0.2
			c-0.4-0.3-0.7-0.9-0.8-1.5c0-0.6,0.2-1.2,0.5-1.6c1.7-1.8,3-2.7,3-2.7c0.2-0.1,0.2-0.4,0.2-0.5c-0.1-0.2-0.2-0.3-0.5-0.3
			c-1.7,0-2.6-0.5-3.7-1c-0.9-0.4-1.3-1.5-0.9-2.5c0.3-0.8,1-1.3,1.7-1.3c0.2,0,0.4,0.1,0.7,0.2c0.2,0.1,0.4,0.2,0.7,0.3
			c0.6,0.3,1.3,0.6,2.1,0.7c0.4,0.4,0.9,0.8,1.5,1.1c-0.3,0.6-0.5,1.4-0.5,2.1c0,2.6,1.9,4.7,4.2,4.7s4.2-2.1,4.2-4.7
			c0-0.8-0.2-1.5-0.5-2.1c0.5-0.3,1-0.7,1.4-1.1c0.9,0,1.6-0.3,2.2-0.7c0.2-0.1,0.4-0.2,0.7-0.3c0.4-0.2,0.9-0.2,1.3,0
			c0.5,0.2,0.9,0.6,1,1.1c0.1,0.2,0.1,0.5,0.1,0.7c0,0.8-0.4,1.5-1.1,1.8c-1,0.5-1.9,1-3.6,1c-0.2,0-0.4,0.1-0.5,0.3
			c-0.1,0.2,0,0.4,0.2,0.5c0,0,1.3,1,3,2.7c0.4,0.4,0.6,1,0.5,1.6c0,0.6-0.3,1.1-0.8,1.5l-0.2,0.2c-0.6,0.5-1.5,0.5-2.1,0.1
			c-0.9-0.7-2.8-1.8-5.3-1.8H40c-2.5,0-4.4,1.2-5.3,1.8c-0.3,0.3-0.7,0.4-1,0.4C33.3,40,32.9,39.8,32.5,39.5z M43.2,30.5
			c0.2,0.5,0.4,1.1,0.4,1.7c0,2-1.4,3.7-3.2,3.7c-1.7,0-3.2-1.6-3.2-3.7c0-0.6,0.1-1.2,0.4-1.7c0.9,0.3,1.8,0.5,2.8,0.5
			S42.4,30.8,43.2,30.5z M44.6,18.7l0.9,0.4c0-0.1,0.2-0.1,0.3-0.1c0.3,0,0.5,0.3,0.5,0.6h1c0-0.8-0.7-1.6-1.5-1.6
			C45.2,18.1,44.8,18.3,44.6,18.7z M33.5,19.6h1c0-0.3,0.3-0.5,0.5-0.5s0.3,0.1,0.4,0.3l0.9-0.5c-0.3-0.5-0.8-0.8-1.3-0.8
			C34.3,18.1,33.5,18.8,33.5,19.6z M42,22c0,0.5,0.5,1,1,1s1-0.5,1-1s-0.5-1-1-1S42,21.4,42,22z M37,22c0,0.5,0.5,1,1,1s1-0.5,1-1
			s-0.5-1-1-1S37,21.4,37,22z M39,24v0.5c0,0.6,0.4,1.2,1,1.4c0,0.6-0.5,1.1-1.1,1.1s-1-0.5-1.1-1.1h-1V26c0.1,1.1,1,2,2.1,2
			c0.6,0,1.2-0.3,1.6-0.8c0.4,0.5,0.9,0.8,1.5,0.8l0,0c1.1,0,2-0.9,2-2v-0.1L43,26c0,0.6-0.5,1-1.1,1s-1-0.5-1-1.1
			c0.6-0.2,1-0.8,1-1.4V24C42,24,39,24,39,24z"/>
	</g>
</g>
</svg>
