<?xml version="1.0" encoding="utf-8"?>
<!-- Generator: Adobe Illustrator 24.3.0, SVG Export Plug-In . SVG Version: 6.00 Build 0)  -->
<svg version="1.1" id="Capa_1" xmlns="http://www.w3.org/2000/svg" xmlns:xlink="http://www.w3.org/1999/xlink" x="0px" y="0px"
	 viewBox="0 0 35 35" style="enable-background:new 0 0 35 35;" xml:space="preserve">
<style type="text/css">
	.st0{fill-rule:evenodd;clip-rule:evenodd;fill:#414042;}
</style>
<g transform="translate(-20 -13)">
	<g>
		<path id="_x34_s7nnhijda" class="st0" d="M37.4,23.3c-1.1-1.4-3.7-2.8-7.8-2.8c-0.2,0-0.4,0.2-0.4,0.4v2.5L27,23.1
			c-0.1,0-0.3,0-0.3,0.1c-0.1,0.1-0.2,0.2-0.2,0.3v12.9c0,0.2,0.1,0.4,0.3,0.4l8,2.2c0.2,0.8,0.9,1.5,1.8,1.5h1.4
			c0.9,0,1.7-0.6,1.8-1.5l8-2.2c0.2-0.1,0.3-0.2,0.3-0.4V23.5c0-0.1-0.1-0.2-0.2-0.3c-0.1-0.1-0.2-0.1-0.3-0.1l-2.1,0.3v-2.5
			c0-0.2-0.2-0.4-0.4-0.4C41,20.5,38.5,21.9,37.4,23.3z M37.8,24.2c0.7-1.3,3-2.7,7-2.8v12.9c-3.9,0.1-5.5,1.1-7,2.5V24.2z M30,34.2
			V21.4c4,0.1,6.2,1.6,7,2.8v12.5C35.5,35.4,33.8,34.3,30,34.2z M38.2,37.5c1.5-1.4,2.9-2.4,7-2.4c0.2,0,0.4-0.2,0.4-0.4V24.3
			l1.7-0.3v12l-8,2.2c-0.2,0.1-0.3,0.2-0.3,0.4c0,0.5-0.5,1-1,1h-1.4c-0.5,0-1-0.4-1-1c0-0.2-0.1-0.4-0.3-0.4l-8-2.2h0v-12l1.7,0.3
			v10.3c0,0.2,0.2,0.4,0.4,0.4c4.1,0,5.5,1,7,2.4c0.2,0.2,0.5,0.3,0.8,0.3C37.6,37.9,37.9,37.8,38.2,37.5z"/>
	</g>
</g>
</svg>
