<?xml version="1.0" encoding="utf-8"?>
<!-- Generator: Adobe Illustrator 24.3.0, SVG Export Plug-In . SVG Version: 6.00 Build 0)  -->
<svg version="1.1" id="Capa_1" xmlns="http://www.w3.org/2000/svg" xmlns:xlink="http://www.w3.org/1999/xlink" x="0px" y="0px"
	 viewBox="0 0 35 35" style="enable-background:new 0 0 35 35;" xml:space="preserve">
<style type="text/css">
	.st0{fill-rule:evenodd;clip-rule:evenodd;fill:#414042;}
</style>
<g transform="translate(-22 -13)">
	<g>
		<path id="p8j25tg1ra" class="st0" d="M33.6,20.5c-1.3,0-2.3,1-2.3,2.4v4.3c-0.2,0-0.3,0-0.5,0c-1.9,0-3.4,1.5-3.4,3.3
			c0,1.3,0.8,2.5,1.9,3v2.7c0,1.2,0.8,2.2,1.9,2.3v1.9h1v-1.9h14.4v1.9h1v-2c1.1-0.3,1.9-1.2,1.9-2.3v-2.7c1.1-0.5,1.9-1.7,1.9-3
			c0-1.8-1.5-3.3-3.4-3.3c-0.2,0-0.3,0-0.5,0v-4.3c0-1.3-1.1-2.4-2.5-2.4C45.2,20.5,33.6,20.5,33.6,20.5z M34.2,30.5
			c0-1.3-0.8-2.5-1.9-3v-4.6c0-0.8,0.6-1.4,1.3-1.4h11.5c0.8,0,1.5,0.7,1.5,1.4v4.6c-1.1,0.5-1.9,1.7-1.9,3v2.4H34.2L34.2,30.5
			L34.2,30.5z M45.3,33.8c0.3,0,0.5-0.2,0.5-0.5v-2.9c0-1.3,1.1-2.4,2.4-2.4c1.3,0,2.4,1.1,2.4,2.4c0,1.3-1.1,2.4-2.4,2.4h-0.5v1
			h0.5c0.2,0,0.3,0,0.5,0v2.4c0,0.8-0.7,1.4-1.5,1.4H31.7c-0.8,0-1.3-0.6-1.3-1.4v-2.4c0.2,0,0.3,0,0.5,0h0.5v-1h-0.5
			c-1.3,0-2.4-1.1-2.4-2.4c0-1.3,1.1-2.4,2.4-2.4c1.3,0,2.4,1.1,2.4,2.4v2.9c0,0.3,0.2,0.5,0.5,0.5C33.7,33.8,45.3,33.8,45.3,33.8z"
			/>
	</g>
</g>
</svg>
