<?xml version="1.0" encoding="utf-8"?>
<!-- Generator: Adobe Illustrator 24.3.0, SVG Export Plug-In . SVG Version: 6.00 Build 0)  -->
<svg version="1.1" id="Capa_1" xmlns="http://www.w3.org/2000/svg" xmlns:xlink="http://www.w3.org/1999/xlink" x="0px" y="0px"
	 viewBox="0 0 35 35" style="enable-background:new 0 0 35 35;" xml:space="preserve">
<style type="text/css">
	.st0{fill-rule:evenodd;clip-rule:evenodd;fill:#414042;}
</style>
<g transform="translate(-23 -13)">
	<g>
		<path id="tb8k677iza" class="st0" d="M46.5,20.5c-1.1,0-2.1,0.5-2.9,1.3c-0.6,0.6-0.8,1.3-1,2c-0.2,0.6-0.3,1.2-0.7,1.8
			c-4.4-3.9-7.4-5.1-9.1-3.5c-1.5,1.5-0.4,4.1,1.5,6.7L32.1,31c-1,1-1.6,2.4-1.6,3.9c0,1.5,0.6,2.9,1.6,3.9c1,1,2.4,1.6,3.9,1.6
			c1.5,0,2.9-0.6,3.9-1.6l2.2-2.2c1.8,1.3,3.5,2.2,4.9,2.2c0.7,0,1.3-0.2,1.8-0.7c1.6-1.6,0.4-4.7-3.5-9.1c0.6-0.4,1.2-0.6,1.8-0.7
			c0.7-0.2,1.4-0.4,2-1c0.8-0.8,1.3-1.9,1.3-2.9c0-1.1-0.3-2.1-1.1-2.9c-0.7-0.7-1.7-1.1-2.7-1.1C46.6,20.5,46.6,20.5,46.5,20.5
			L46.5,20.5z M40.4,30.6c-0.7-0.7-1.3-1.6-1.9-2.5c0.2-0.1,0.6-0.2,0.9-0.2c0.8-0.1,1.7-0.3,2.7-1.2c0.9-0.9,1.1-1.8,1.3-2.6
			c0.2-0.6,0.3-1.2,0.7-1.6c0.7-0.7,1.5-1.1,2.4-1.1c0.9,0,1.7,0.3,2.3,0.9c0.6,0.6,0.9,1.4,0.9,2.3c0,0.9-0.4,1.7-1.1,2.4
			c-0.4,0.4-1,0.6-1.6,0.7c-0.8,0.2-1.7,0.4-2.6,1.3c-1,1-1.1,1.9-1.2,2.7c-0.1,0.4-0.1,0.7-0.2,0.9C41.9,32,41.1,31.3,40.4,30.6
			L40.4,30.6z M38.6,32.4c-4.7-4.8-6.6-8.3-5.2-9.8c1.2-1.2,4.1,0,8,3.5c-0.7,0.7-1.4,0.8-2.1,0.9c-0.6,0.1-1.2,0.2-1.6,0.6
			c-0.1,0.1-0.2,0.3-0.1,0.5c0.6,1.2,1.4,2.2,2.2,3c0.8,0.8,1.8,1.6,3,2.2c0.1,0,0.1,0.1,0.2,0.1c0.1,0,0.2,0,0.3-0.1
			c0.5-0.5,0.6-1,0.6-1.6c0.1-0.7,0.2-1.4,0.9-2.1c3.5,3.9,4.7,6.7,3.5,8c-0.3,0.3-0.7,0.5-1.2,0.5C45.3,38.1,42.3,36.1,38.6,32.4
			L38.6,32.4z M32.7,38.3c-0.9-0.9-1.4-2.1-1.4-3.4c0-1.3,0.5-2.5,1.4-3.4l2.2-2.2c0.3,0.3,0.5,0.6,0.8,1l-2.1,2.1
			c-1.4,1.4-1.4,3.6,0,4.9c0.7,0.7,1.6,1,2.5,1s1.8-0.3,2.5-1l2.1-2.1c0.3,0.3,0.6,0.5,1,0.8l-2.2,2.2c-0.9,0.9-2.1,1.4-3.4,1.4
			C34.8,39.7,33.6,39.2,32.7,38.3z M34.2,36.9c-1-1.1-1-2.7,0-3.8l2-2c0.6,0.7,1.2,1.3,1.8,2c0.6,0.6,1.3,1.2,2,1.8l-2,2.1
			c-0.5,0.5-1.2,0.8-1.9,0.8C35.4,37.6,34.7,37.4,34.2,36.9z"/>
	</g>
</g>
</svg>
