<?xml version="1.0" encoding="utf-8"?>
<!-- Generator: Adobe Illustrator 24.3.0, SVG Export Plug-In . SVG Version: 6.00 Build 0)  -->
<svg version="1.1" id="Capa_1" xmlns="http://www.w3.org/2000/svg" xmlns:xlink="http://www.w3.org/1999/xlink" x="0px" y="0px"
	 viewBox="0 0 35 35" style="enable-background:new 0 0 35 35;" xml:space="preserve">
<style type="text/css">
	.st0{fill-rule:evenodd;clip-rule:evenodd;fill:#414042;}
</style>
<g id="Page-1_1_">
	<g id="Artboard-Copy-3" transform="translate(-456.000000, -105.000000)">
		<g id="Group-301" transform="translate(56.000000, 76.000000)">
			<g id="Group-27" transform="translate(400.000000, 29.000000)">
				<g id="Clip-26">
					<path id="path-1_1_" class="st0" d="M5.9,6.1c-0.7,0-1.4,0.6-1.4,1.2l0,0v16.1c0,0.7,0.6,1.2,1.2,1.2l0,0h7.1v3.1H7.6v1h19.8
						v-1h-5.2v-3.1h7.1c0.7,0,1.2-0.6,1.2-1.2l0,0V7.4c0-0.7-0.6-1.2-1.2-1.2l0,0H5.9z M5.5,23.6V7.4c0-0.1,0.1-0.2,0.2-0.2l0,0
						h23.4c0.1,0,0.2,0.1,0.2,0.2l0,0v16.1c0,0.1-0.1,0.2-0.2,0.2l0,0h-7H5.9C5.6,23.8,5.5,23.7,5.5,23.6L5.5,23.6z M13.9,28h7.3
						v-3.1h-7.3V28z M7.1,8.2c-0.3,0-0.5,0.2-0.5,0.5l0,0v13.5c0,0.3,0.2,0.5,0.5,0.5l0,0h20.8c0.3,0,0.5-0.2,0.5-0.5l0,0V8.7
						c0-0.3-0.2-0.5-0.5-0.5l0,0H7.1z M7.6,21.7h19.8V9.2H7.6V21.7z"/>
				</g>
			</g>
		</g>
	</g>
</g>
</svg>
