<?xml version="1.0" encoding="utf-8"?>
<!-- Generator: Adobe Illustrator 24.3.0, SVG Export Plug-In . SVG Version: 6.00 Build 0)  -->
<svg version="1.1" id="Capa_1" xmlns="http://www.w3.org/2000/svg" xmlns:xlink="http://www.w3.org/1999/xlink" x="0px" y="0px"
	 viewBox="0 0 35 35" style="enable-background:new 0 0 35 35;" xml:space="preserve">
<style type="text/css">
	.st0{fill-rule:evenodd;clip-rule:evenodd;fill:#414042;}
</style>
<g transform="translate(-27 -12)">
	<g>
		<path id="bu98fdev0a" class="st0" d="M39.1,18.5c-0.6,0-1.1,0.5-1.1,1.1v19.8c0,0.6,0.5,1.1,1.1,1.1h10.8c0.6,0,1.1-0.5,1.1-1.1
			V19.6c0-0.6-0.5-1.1-1.1-1.1H39.1z M38.9,19.6c0-0.1,0.1-0.2,0.2-0.2h10.8c0.1,0,0.2,0.1,0.2,0.2V22H38.9V19.6z M38.9,35.2h11.3
			V22.9H38.9V35.2z M38.9,39.4v-3.3h11.3v3.3c0,0.1-0.1,0.2-0.2,0.2H39.1C39,39.6,38.9,39.5,38.9,39.4z M42.3,21.1h4.3v-0.9h-4.3
			V21.1z M43.6,37.9c0,0.5,0.4,0.9,0.9,0.9s0.9-0.4,0.9-0.9S45,37,44.5,37S43.6,37.4,43.6,37.9z"/>
	</g>
</g>
</svg>
