<?xml version="1.0" standalone="no"?>
<!DOCTYPE svg PUBLIC "-//W3C//DTD SVG 1.1//EN" "http://www.w3.org/Graphics/SVG/1.1/DTD/svg11.dtd" >
<svg xmlns="http://www.w3.org/2000/svg">
<metadata>Generated by IcoMoon</metadata>
<defs>
<font id="icomoon" horiz-adv-x="1024">
<font-face units-per-em="1024" ascent="960" descent="-64" />
<missing-glyph horiz-adv-x="1024" />
<glyph unicode="&#x20;" horiz-adv-x="512" d="" />
<glyph unicode="&#xe900;" glyph-name="arrow-right" d="M314.832 23.040c-12.436 0-24.829 4.784-34.318 14.267-18.589 18.62-19.066 48.231-1.17 67.412l346.95 334.603-346.56 346.37c-18.286 19.568-17.766 49.18 0.78 67.8 18.632 18.706 48.357 19.137 67.683 1.207l0.477-0.474 409.087-415.247-409.26-402.575c-9.619-8.922-21.665-13.362-33.668-13.362z" />
<glyph unicode="&#xe901;" glyph-name="bed" d="M266.24 743.497c-5.851-2.926-8.777-5.851-8.777-11.703v-196.023c0 0 0 0-2.926-2.926l-78.994-175.543c0-2.926 0-11.703 0-11.703v-222.354c0-8.777 5.851-14.629 14.629-14.629h81.92c8.777 0 14.629 5.851 14.629 14.629v40.96h456.411v-40.96c0-8.777 5.851-14.629 14.629-14.629h81.92c8.777 0 14.629 5.851 14.629 14.629v222.354c0 0 0 8.777 0 11.703l-78.994 166.766c0 0 0 0 0 2.926v201.874c0 5.851-2.926 11.703-8.777 11.703-58.514 20.48-152.137 40.96-242.834 40.96-102.4 2.926-201.874-17.554-257.463-38.034v0zM283.794 720.091c46.811 14.629 137.509 38.034 231.131 38.034 81.92 0 169.691-17.554 225.28-38.034v-178.469h-35.109c5.851 8.777 8.777 17.554 8.777 26.331v26.331c0 29.257-23.406 52.663-52.663 52.663h-81.92c-29.257 0-52.663-23.406-52.663-52.663v-26.331h-29.257v26.331c0 29.257-23.406 52.663-52.663 52.663h-81.92c-29.257 0-52.663-23.406-52.663-52.663v-26.331c0-8.777 2.926-17.554 8.777-26.331h-35.109v178.469zM552.96 567.954v26.331c0 14.629 11.703 26.331 26.331 26.331h81.92c14.629 0 26.331-11.703 26.331-26.331v-26.331c0-14.629-11.703-26.331-26.331-26.331h-61.44c-11.703 17.554-26.331 26.331-46.811 26.331zM336.457 567.954v26.331c0 14.629 11.703 26.331 26.331 26.331h81.92c14.629 0 26.331-11.703 26.331-26.331v-26.331c-20.48 0-38.034-11.703-46.811-26.331h-61.44c-14.629 0-26.331 11.703-26.331 26.331zM444.709 515.291c0 14.629 11.703 26.331 26.331 26.331h81.92c14.629 0 26.331-11.703 26.331-26.331s-11.703-26.331-26.331-26.331h-81.92c-14.629 0-26.331 11.703-26.331 26.331v0zM552.96 462.629c29.257 0 52.663 23.406 52.663 52.663h137.509l64.366-134.583h-590.994l61.44 134.583h140.434c0-29.257 23.406-52.663 52.663-52.663h81.92zM201.874 278.309v67.291c0 2.926 2.926 5.851 5.851 5.851h605.623c2.926 0 5.851-2.926 5.851-5.851v-67.291c0-2.926-2.926-5.851-5.851-5.851h-602.697c-5.851 0-8.777 2.926-8.777 5.851v0zM816.274 246.126c2.926 0 5.851 0 5.851 0v-108.251h-52.663v40.96c0 8.777-5.851 14.629-14.629 14.629h-485.669c-8.777 0-14.629-5.851-14.629-14.629v-40.96h-52.663v108.251c2.926 0 2.926 0 5.851 0h608.549z" />
<glyph unicode="&#xe902;" glyph-name="bicycle" d="M585.143 696.686v-29.257h40.96c17.554 0 23.406-5.851 29.257-23.406l5.851-35.109h-280.869v29.257h58.514v29.257h-146.286v-29.257h58.514v-40.96l-32.183-108.251c-8.777 2.926-17.554 2.926-26.331 2.926-81.92 0-146.286-64.366-146.286-146.286s64.366-146.286 146.286-146.286 146.286 64.366 146.286 146.286h32.183c5.851-17.554 23.406-29.257 40.96-29.257 23.406 0 43.886 20.48 43.886 43.886 0 11.703-5.851 23.406-11.703 29.257l125.806 175.543 17.554-81.92c-58.514-17.554-102.4-73.143-102.4-137.509 0-81.92 64.366-146.286 146.286-146.286s146.286 64.366 146.286 146.286c0 81.92-64.366 146.286-146.286 146.286-5.851 0-8.777 0-14.629 0l-32.183 160.914c-5.851 29.257-26.331 46.811-55.589 46.811h-43.886zM383.269 579.657h260.389l-125.806-175.543c-2.926 0-2.926 0-5.851 0s-5.851 0-11.703 0l-117.029 175.543zM348.16 480.183l20.48 70.217 108.251-163.84c-2.926-2.926-5.851-5.851-5.851-11.703h-35.109c-8.777 49.737-43.886 87.771-87.771 105.326v0zM760.686 345.6c0 11.703-8.777 23.406-20.48 26.331l-17.554 87.771c2.926 0 5.851 0 8.777 0 64.366 0 117.029-52.663 117.029-117.029s-52.663-117.029-117.029-117.029c-64.366 0-117.029 52.663-117.029 117.029 0 49.737 32.183 93.623 78.994 111.177l17.554-87.771c-5.851-2.926-8.777-11.703-8.777-20.48 0-14.629 14.629-29.257 29.257-29.257s29.257 14.629 29.257 29.257v0zM175.543 345.6c0 64.366 52.663 117.029 117.029 117.029 5.851 0 11.703 0 17.554-2.926l-26.331-87.771c-11.703 0-20.48-11.703-20.48-26.331s14.629-29.257 29.257-29.257 29.257 14.629 29.257 29.257h87.771c0-64.366-52.663-117.029-117.029-117.029s-117.029 52.663-117.029 117.029zM339.383 453.851c32.183-14.629 58.514-43.886 67.291-78.994h-87.771c-2.926 0 20.48 78.994 20.48 78.994z" />
<glyph unicode="&#xe903;" glyph-name="book" d="M509.074 658.651c-32.183 40.96-108.251 81.92-228.206 81.92-5.851 0-11.703-5.851-11.703-11.703v-73.143l-64.366 8.777c-2.926 0-8.777 0-8.777-2.926-2.926-2.926-5.851-5.851-5.851-8.777v-377.417c0-5.851 2.926-11.703 8.777-11.703l234.057-64.366c5.851-23.406 26.331-43.886 52.663-43.886h40.96c26.331 0 49.737 17.554 52.663 43.886l234.057 64.366c5.851 2.926 8.777 5.851 8.777 11.703v377.417c0 2.926-2.926 5.851-5.851 8.777s-5.851 2.926-8.777 2.926l-61.44-8.777v73.143c0 5.851-5.851 11.703-11.703 11.703-119.954 0-193.097-40.96-225.28-81.92zM520.777 632.32c20.48 38.034 87.771 78.994 204.8 81.92v-377.417c-114.103-2.926-160.914-32.183-204.8-73.143v368.64zM292.571 339.749v374.491c117.029-2.926 181.394-46.811 204.8-81.92v-365.714c-43.886 38.034-93.623 70.217-204.8 73.143zM532.48 243.2c43.886 40.96 84.846 70.217 204.8 70.217 5.851 0 11.703 5.851 11.703 11.703v304.274l49.737 8.777v-351.086l-234.057-64.366c-5.851-2.926-8.777-5.851-8.777-11.703 0-14.629-14.629-29.257-29.257-29.257h-40.96c-14.629 0-29.257 11.703-29.257 29.257 0 5.851-2.926 11.703-8.777 11.703l-234.057 64.366v351.086l49.737-8.777v-301.349c0-5.851 5.851-11.703 11.703-11.703 119.954 0 160.914-29.257 204.8-70.217 5.851-5.851 14.629-8.777 23.406-8.777 11.703-5.851 20.48-2.926 29.257 5.851z" />
<glyph unicode="&#xe904;" glyph-name="car" d="M263.314 430.446c-17.554 0-29.257-14.629-29.257-29.257s14.629-29.257 29.257-29.257c17.554 0 29.257 14.629 29.257 29.257s-11.703 29.257-29.257 29.257zM263.314 342.674c-32.183 0-58.514 26.331-58.514 58.514s26.331 58.514 58.514 58.514 58.514-26.331 58.514-58.514-26.331-58.514-58.514-58.514zM380.343 371.931h263.314v58.514h-263.314v-58.514zM661.211 342.674h-292.571c-8.777 0-14.629 5.851-14.629 14.629v87.771c0 8.777 5.851 14.629 14.629 14.629h292.571c8.777 0 14.629-5.851 14.629-14.629v-87.771c0-8.777-5.851-14.629-14.629-14.629zM763.611 430.446c-17.554 0-29.257-14.629-29.257-29.257s14.629-29.257 29.257-29.257c17.554 0 29.257 14.629 29.257 29.257s-11.703 29.257-29.257 29.257zM763.611 342.674c-32.183 0-58.514 26.331-58.514 58.514s26.331 58.514 58.514 58.514 58.514-26.331 58.514-58.514-26.331-58.514-58.514-58.514zM257.463 550.4h529.554l-55.589 155.063c-2.926 11.703-14.629 20.48-29.257 20.48h-362.789c-14.629 0-23.406-8.777-29.257-20.48l-52.663-155.063zM836.754 284.16h-17.554c17.554 0 29.257 14.629 29.257 29.257v143.36c0 35.109-29.257 61.44-70.217 61.44h-532.48c-40.96 2.926-70.217-23.406-70.217-58.514v-143.36c0-17.554 14.629-29.257 29.257-29.257h631.954v-2.926zM204.8 254.903v-73.143c0-8.777 5.851-14.629 14.629-14.629h87.771c8.777 0 14.629 5.851 14.629 14.629v73.143h-117.029zM807.497 137.874h-87.771c-23.406 0-43.886 20.48-43.886 43.886v73.143h29.257v-73.143c0-8.777 5.851-14.629 14.629-14.629h87.771c8.777 0 14.629 5.851 14.629 14.629v73.143h-471.040v-73.143c0-23.406-20.48-43.886-43.886-43.886h-87.771c-23.406 0-43.886 20.48-43.886 43.886v81.92c-17.554 11.703-29.257 29.257-29.257 49.737v149.211c0 2.926 0 2.926 0 5.851 5.851 40.96 35.109 70.217 78.994 78.994l58.514 166.766c8.777 23.406 29.257 40.96 55.589 40.96h362.789c26.331 0 49.737-17.554 55.589-40.96l58.514-169.691c35.109-11.703 58.514-38.034 61.44-73.143 0-2.926 0-2.926 0-5.851v-152.137c0-20.48-11.703-40.96-29.257-49.737v-81.92c2.926-23.406-17.554-43.886-40.96-43.886z" />
<glyph unicode="&#xe905;" glyph-name="casserole" d="M424.229 737.646c0-5.851 0-11.703 2.926-17.554v0c-111.177-17.554-193.097-64.366-193.097-125.806v0-14.629h-29.257c-32.183 0-58.514-26.331-58.514-58.514v0c0-32.183 26.331-58.514 58.514-58.514v0h29.257v-190.171c0-73.143 58.514-131.657 131.657-131.657v0h292.571c73.143 0 131.657 58.514 131.657 131.657v0 190.171h29.257c32.183 0 58.514 26.331 58.514 58.514v0c0 32.183-26.331 58.514-58.514 58.514v0h-29.257v14.629c0 58.514-78.994 108.251-193.097 125.806v0c0 5.851 2.926 11.703 2.926 17.554v0c0 43.886-38.034 76.069-87.771 76.069v0c-46.811 0-87.771-35.109-87.771-76.069v0zM453.486 737.646c0 26.331 26.331 46.811 58.514 46.811v0c32.183 0 58.514-20.48 58.514-46.811v0c0-2.926 0-8.777-2.926-11.703v0c-17.554 0-35.109 0-55.589 0v0c-20.48 0-38.034 0-55.589-2.926v0c-2.926 5.851-2.926 8.777-2.926 14.629v0zM512 696.686c131.657 0 228.206-43.886 245.76-87.771v0h-491.52c17.554 43.886 114.103 87.771 245.76 87.771v0zM263.314 272.457v307.2h497.371v-307.2c0-55.589-46.811-102.4-102.4-102.4v0h-292.571c-55.589 0-102.4 46.811-102.4 102.4v0zM789.943 550.4h29.257c17.554 0 29.257-11.703 29.257-29.257v0c0-17.554-11.703-29.257-29.257-29.257v0h-29.257v58.514zM175.543 521.143c0 17.554 11.703 29.257 29.257 29.257v0h29.257v-58.514h-29.257c-17.554 0-29.257 11.703-29.257 29.257v0zM234.057 82.286h555.886v29.257h-555.886v-29.257z" />
<glyph unicode="&#xe906;" glyph-name="delivery" d="M862.862 105.893c-23.012-22.244-57.526-33.365-92.046-33.365-34.514 0-69.029 11.122-92.041 33.365s-34.52 55.603-34.52 88.969h-258.875c0-33.365-11.506-61.167-34.517-88.969s-57.528-33.365-92.045-33.365c-34.517 0-63.281 11.122-92.045 33.365s-34.517 55.603-34.517 88.969h-126.562v617.222h638.561v-183.498h224.358l161.081-155.697v-278.026h-126.561c0-33.365-17.26-61.167-40.272-88.969zM580.978 256.028v494.888h-512.002v-494.888h80.539c11.505 16.68 28.764 33.362 46.023 44.483s40.269 16.681 63.281 16.681c23.011 0 46.022-5.56 63.281-16.681s34.517-27.803 46.022-44.483h212.857zM258.818 256.028c-17.259 0-28.764-5.564-40.27-16.686s-17.258-27.802-17.258-44.481c0-16.686 5.753-27.802 17.258-44.487 11.506-11.122 28.764-16.68 40.27-16.68 17.258 0 34.517 5.558 46.022 16.68s17.259 27.802 17.259 44.487c0 16.68-5.753 33.36-17.259 44.481s-23.011 16.686-46.022 16.686zM707.538 300.512c17.254 11.121 40.266 16.681 63.278 16.681s46.023-5.56 63.283-16.681c17.26-11.121 34.514-27.803 46.023-44.483h80.538v122.331h-97.798c-11.503 0-17.26 5.559-23.012 11.12s-11.503 11.122-11.503 22.244c0 5.56 5.751 16.682 11.503 22.242s11.509 11.12 23.012 11.12h97.798v5.561l-120.809 116.772h-195.595v-311.39h17.26c11.503 16.68 28.763 33.362 46.023 44.483zM730.55 239.343c-11.509-11.122-17.26-27.802-17.26-44.481 0-16.686 5.751-27.802 17.26-44.487 11.503-11.122 28.763-16.68 40.266-16.68 17.26 0 28.769 5.558 40.272 16.68s17.26 27.802 17.26 44.487c0 16.68-5.757 33.36-17.26 44.481s-28.763 16.686-40.272 16.686c-11.503 0-28.763-5.564-40.266-16.686z" />
<glyph unicode="&#xe907;" glyph-name="destacados" d="M561.737 740.571c-20.48 0-46.811-8.777-61.44-23.406l-266.24-266.24c-17.554-17.554-17.554-40.96 0-58.514l225.28-225.28c8.777-8.777 20.48-11.703 29.257-11.703s23.406 2.926 29.257 11.703l263.314 266.24c14.629 14.629 23.406 40.96 23.406 61.44v207.726c0 23.406-14.629 38.034-38.034 38.034 0 0-204.8 0-204.8 0zM473.966 184.686l-225.28 225.28c-8.777 8.777-8.777 17.554 0 26.331l266.24 266.24c8.777 8.777 29.257 14.629 43.886 14.629h207.726c11.703 0 14.629-2.926 14.629-14.629v-207.726c0-14.629-5.851-35.109-14.629-43.886l-263.314-266.24c-2.926-2.926-8.777-5.851-14.629-5.851s-11.703 2.926-14.629 5.851zM570.514 576.731c0-38.034 32.183-70.217 70.217-70.217s70.217 32.183 70.217 70.217-32.183 70.217-70.217 70.217-70.217-32.183-70.217-70.217zM593.92 576.731c0 26.331 20.48 46.811 46.811 46.811s46.811-20.48 46.811-46.811-20.48-46.811-46.811-46.811-46.811 20.48-46.811 46.811z" />
<glyph unicode="&#xe908;" glyph-name="facebook" d="M662.708 762.733c-32.692 0-53.996-7.606-63.87-22.774-9.874-15.19-14.821-34.853-14.821-59.010v-106.632h157.361l-20.43-167.716h-136.91v-429.64h-164.505v429.619h-137.933v167.716h137.933v123.205c0 71.78 18.894 126.641 56.705 164.605 37.81 37.942 87.008 56.935 147.637 56.935 0.661 0 1.365 0 2.047 0 0.661 0 1.365 0 2.047 0 21.112 0 41.713-0.519 61.823-1.556 20.089-1.037 39.346-2.593 57.728-4.667v-150.106l-84.812 0.022z" />
<glyph unicode="&#xe909;" glyph-name="fireplace" d="M860.16 720.091c0 2.926-5.851 5.851-8.777 5.851h-675.84c-5.851 2.926-8.777 0-11.703-5.851-2.926 0-2.926-5.851-2.926-8.777l26.331-111.177v-421.303c0-5.851 5.851-14.629 14.629-14.629h623.177c5.851 0 14.629 5.851 14.629 14.629v424.229l26.331 111.177c-2.926 0-2.926 5.851-5.851 5.851zM830.903 699.611l-23.406-84.846h-593.92l-20.48 84.846h637.806zM535.406 459.703c29.257-20.48 73.143-67.291 73.143-166.766 0-29.257-14.629-58.514-35.109-76.069-23.406-17.554-52.663-26.331-81.92-20.48-43.886 8.777-78.994 52.663-78.994 96.549 0 35.109 14.629 55.589 35.109 78.994 11.703 14.629 23.406 32.183 29.257 52.663 5.851-5.851 11.703-14.629 14.629-26.331 2.926-8.777 11.703-14.629 20.48-14.629s17.554 5.851 20.48 14.629c8.777 14.629 8.777 38.034 2.926 61.44zM590.994 196.389c29.257 23.406 46.811 61.44 46.811 99.474 0 169.691-119.954 207.726-122.88 207.726-5.851 0-11.703 0-14.629-5.851s-5.851-8.777-2.926-14.629c11.703-23.406 14.629-43.886 11.703-58.514-14.629 26.331-38.034 43.886-40.96 43.886-5.851 2.926-11.703 2.926-14.629 0-5.851-2.926-5.851-8.777-5.851-14.629 5.851-23.406-5.851-38.034-23.406-61.44s-40.96-49.737-40.96-96.549c0-40.96 17.554-76.069 46.811-99.474h-105.326v392.046h365.714v-392.046h-99.474c0-2.926 0-2.926 0 0zM301.349 474.331h-84.846v111.177h84.846c0 0 0-111.177 0-111.177zM216.503 448h84.846v-111.177h-84.846v111.177zM807.497 474.331h-84.846v111.177h84.846v-111.177zM722.651 448h84.846v-111.177h-84.846v111.177zM272.091 193.463h-55.589v111.177h84.846v-111.177h-29.257zM807.497 193.463h-84.846v111.177h84.846v-111.177zM503.223 251.977c2.926 0 5.851 0 5.851 0v-26.331c-5.851 0-8.777 0-14.629 2.926-32.183 5.851-55.589 40.96-55.589 81.92h29.257c0-32.183 17.554-52.663 35.109-58.514z" />
<glyph unicode="&#xe90a;" glyph-name="gamepad" d="M353.373 514.328c-40.504 0-74.469-33.142-74.469-73.118 0-39.771 33.754-73.118 74.469-73.118 40.717 0 74.47 33.138 74.47 73.118 0 39.975-33.965 73.118-74.47 73.118zM353.373 401.44c-21.94 0-40.504 18.227-40.504 39.771 0 21.539 18.565 39.767 40.504 39.767s40.505-18.227 40.505-39.767c0-21.543-18.565-39.771-40.505-39.771zM1022.96 316.94l-8.44 76.43c-3.375 29.83-52.319 252.289-77.844 285.637l-37.132 56.547c-1.686 1.657-3.375 3.314-5.061 4.971v6.628c0 3.314-1.69 6.628-3.375 9.942-1.69 1.657-28.692 39.77-72.783 44.741-25.316 3.314-50.629-6.628-76.158-28.17-3.375-3.314-5.061-8.285-5.061-11.6v-16.57c-3.375-1.657-5.065-3.314-6.751-4.972-1.69-1.657-8.44-3.314-21.941-1.657h-392.176c-13.502-1.657-20.252 0-21.94 1.657s-3.376 3.314-6.751 4.972v16.57c0 4.972-1.688 9.943-5.063 11.6-23.628 21.542-48.943 31.484-76.157 28.17-43.88-4.971-72.782-43.084-72.782-44.741-1.688-3.314-3.375-6.628-3.375-9.942v-6.628c-1.688-1.657-3.375-3.314-5.063-4.971l-37.129-56.754c-25.315-33.141-74.469-255.604-77.845-285.635l-8.438-76.434c-6.751-69.805 6.751-121.175 38.817-152.659 21.94-21.539 47.255-26.51 54.217-28.168 71.094-16.573 121.724 39.771 138.602 74.776l54.217 132.769c18.565-13.253 42.192-19.881 66.031-19.881 27.003 0 54.218 9.941 76.159 26.51h167.503c21.937-16.569 47.254-26.51 76.154-26.51 23.631 0 45.568 6.628 66.032 19.881l54.217-132.769c15.191-28.172 54.217-76.434 111.6-76.434 8.436 0 16.876 1.658 25.312 3.316 6.751 0 30.381 4.97 54.217 28.168 29.747 31.484 43.248 81.404 38.187 151.209zM771.072 753.575c15.187 11.599 28.688 16.571 42.193 14.913 15.187-1.657 28.688-9.942 37.128-18.228-20.252 1.657-47.258 3.314-81.219 0v3.314h1.898zM370.245 705.313h284.166v-129.458c0-8.285-8.44-16.57-16.88-16.57h-250.409c-8.439 0-16.877 8.284-16.877 16.57v129.458zM211.391 770.146c13.501 1.657 28.691-3.314 42.192-14.914v-3.314c-33.754 3.314-60.968 1.657-81.22 0 10.126 6.628 22.151 16.571 39.028 18.228zM924.861 169.047c-1.686 0-1.686 0-3.375 0-62.657-16.573-98.095 53.232-99.785 54.89l-57.592 141.056c-1.686 3.316-3.375 6.628-8.44 8.287l-11.811 6.628c-3.375 1.654-5.065 1.654-8.44 1.654s-8.436-1.654-11.811-3.312c-15.191-13.257-35.442-19.885-55.906-19.885-21.941 0-42.193 8.287-57.592 21.543-3.375 3.312-6.751 4.97-11.815 4.97h-175.939c-3.375 0-8.44-1.658-11.815-4.97-15.187-13.257-35.441-21.543-57.591-21.543-20.252 0-40.505 6.628-55.905 19.885-5.063 4.97-13.501 4.97-18.565 1.658l-11.814-6.628c-3.375-1.658-6.751-4.97-8.438-8.287l-57.593-141.056c-1.688-3.316-37.129-71.463-99.784-54.89h-1.688c-3.375 0-76.157 9.941-64.343 144.372l6.751 76.43c3.375 43.083 55.904 248.975 71.094 269.066 0 0 0 0 1.688 1.657l33.754 51.369c13.501 3.314 57.592 11.6 121.724 3.314 6.751-6.628 21.94-13.256 47.255-9.943h16.877v-129.458c0-26.514 23.628-49.712 50.63-49.712h250.199c28.692 0 50.633 23.198 50.633 49.712v129.458h16.876c25.312-3.314 38.817 3.314 47.254 9.943 64.343 8.285 106.535 0 121.726-3.314l33.753-51.369c0 0 0-1.657 1.69-1.657 15.187-19.885 67.718-225.775 71.093-269.066l8.436-76.43c14.769-134.432-58.014-144.372-61.389-144.372zM671.275 514.328c-40.503 0-74.468-33.142-74.468-73.118 0-39.771 33.753-73.118 74.468-73.118 40.507 0 74.472 33.138 74.472 73.118 0 39.975-33.965 73.118-74.472 73.118zM671.275 401.44c-21.937 0-40.503 18.227-40.503 39.771 0 21.539 18.566 39.767 40.503 39.767 21.941 0 40.507-18.227 40.507-39.767 0-21.543-18.566-39.771-40.507-39.771zM749.135 534.619c23.186 0 41.98 18.456 41.98 41.22s-18.794 41.22-41.98 41.22-41.98-18.454-41.98-41.22c0-22.764 18.794-41.22 41.98-41.22zM894.499 534.619c23.186 0 41.984 18.456 41.984 41.22s-18.798 41.22-41.984 41.22-41.98-18.454-41.98-41.22c0-22.764 18.794-41.22 41.98-41.22zM818.326 459.871c23.186 0 41.984 18.452 41.984 41.216 0 22.768-18.798 41.22-41.984 41.22s-41.98-18.452-41.98-41.22c0-22.764 18.794-41.216 41.98-41.216zM818.326 604.446c23.186 0 41.984 18.455 41.984 41.22s-18.798 41.22-41.984 41.22c-23.186 0-41.98-18.454-41.98-41.22s18.794-41.22 41.98-41.22zM172.366 615.622l18.565-16.571c3.375-3.314 6.751-4.971 11.814-4.971s8.438 1.657 11.814 4.971l18.564 18.228c3.376 3.314 5.063 6.628 5.063 9.942l3.375 24.856c0 4.971-1.688 9.942-5.063 13.256-23.628 23.199-52.319 13.256-66.031 0-3.375-3.314-5.063-8.285-5.063-13.256l3.375-24.856c-1.477-4.971 0.211-8.285 3.586-11.6zM231.637 531.113l-18.564 16.573c-6.751 6.628-16.877 4.97-23.628 0l-18.565-18.227c-3.375-3.316-5.063-6.628-5.063-9.945l-3.375-24.856c0-4.97 1.688-9.941 5.063-13.257 10.126-9.941 21.94-13.257 32.066-13.257 13.502 0 27.003 6.628 33.754 13.257 3.376 3.316 5.063 8.287 5.063 13.257l-3.376 24.856c1.688 4.766 0 9.945-3.375 11.599zM283.958 536.092c5.063 0 8.439 1.654 11.814 4.97 23.628 23.198 13.501 51.369 0 64.832-3.375 3.314-8.438 4.971-13.501 4.971l-25.315-3.314c-3.375 0-8.439-1.657-10.126-4.972l-16.877-18.228c-6.751-6.628-5.063-16.571 0-23.2l18.564-18.227c3.376-3.312 6.751-4.97 10.126-4.97l25.315-3.312c-1.688 1.449 0 1.449 0 1.449zM177.412 584.141l-16.877 18.228c-3.375 3.314-6.751 4.971-10.126 4.971l-27.003 3.314c-5.063 0-10.126-1.657-13.501-4.971-13.502-13.256-23.628-41.427 0-64.833 3.375-3.312 6.751-4.97 11.814-4.97h1.688l23.628 3.312c3.375 0 6.751 1.658 10.126 4.974l18.565 18.227c6.751 5.178 6.751 15.12 1.688 21.748zM571.498 441.442h-67.718c-8.436 0-16.876-8.287-16.876-16.569 0-8.287 8.44-16.573 16.876-16.573h67.718c8.44 0 16.876 8.287 16.876 16.573 0 8.283-6.751 16.569-16.876 16.569zM459.902 446.385c-11.815 0-21.941-9.945-21.941-21.543s10.126-21.539 21.941-21.539c11.811 0 21.941 9.941 21.941 21.539-1.69 11.599-10.13 21.543-21.941 21.543z" />
<glyph unicode="&#xe90b;" glyph-name="hair-dryer" d="M146.286 565.029c0-43.886 14.629-81.92 40.96-114.103 23.406-38.034 46.811-143.36 46.811-184.32v-61.44c0-26.331 14.629-52.663 40.96-52.663h64.366c23.406 0 43.886 20.48 46.811 46.811 2.926 58.514 32.183 196.023 96.549 210.651v0c87.771 20.48 175.543 40.96 181.394 43.886s11.703 5.851 11.703 14.629v181.394c0 5.851-5.851 11.703-8.777 14.629-11.703 2.926-251.611 73.143-342.309 73.143-99.474 2.926-178.469-76.069-178.469-172.617zM207.726 474.331c0 2.926-2.926 2.926-2.926 2.926-17.554 23.406-29.257 55.589-29.257 87.771 0 81.92 64.366 146.286 146.286 146.286 73.143 0 275.017-55.589 321.829-67.291v-160.914c-49.737-11.703-248.686-64.366-321.829-64.366-46.811 0-87.771 20.48-114.103 55.589v0zM263.314 205.166v61.44c0 29.257-8.777 90.697-26.331 143.36 26.331-14.629 52.663-23.406 84.846-23.406 23.406 0 58.514 5.851 96.549 11.703-43.886-55.589-58.514-155.063-61.44-198.949 0-8.777-8.777-17.554-17.554-17.554h-64.366c-8.777 2.926-11.703 17.554-11.703 23.406v0zM234.057 565.029c0-46.811 38.034-87.771 87.771-87.771 46.811 0 87.771 38.034 87.771 87.771s-38.034 87.771-87.771 87.771c-49.737 0-87.771-38.034-87.771-87.771v0zM263.314 565.029c0 32.183 26.331 58.514 58.514 58.514s58.514-26.331 58.514-58.514-26.331-58.514-58.514-58.514c-32.183 0-58.514 26.331-58.514 58.514v0zM708.023 629.394c-5.851-2.926-8.777-14.629-5.851-20.48 5.851-5.851 14.629-8.777 20.48-2.926 32.183 20.48 40.96 14.629 55.589 0 11.703-11.703 23.406-20.48 40.96-20.48 11.703 0 29.257 5.851 49.737 17.554 5.851 2.926 8.777 14.629 5.851 20.48-5.851 5.851-14.629 8.777-20.48 2.926-32.183-20.48-40.96-14.629-55.589 0-11.703 11.703-23.406 20.48-40.96 20.48-11.703 0-29.257-5.851-49.737-17.554v0zM708.023 541.623c-5.851-2.926-8.777-14.629-5.851-20.48 5.851-5.851 14.629-8.777 20.48-2.926 32.183 20.48 40.96 14.629 55.589 0 11.703-11.703 23.406-20.48 40.96-20.48 14.629 0 29.257 5.851 49.737 17.554 5.851 2.926 8.777 14.629 5.851 20.48-5.851 5.851-14.629 8.777-20.48 2.926-32.183-20.48-40.96-14.629-55.589 0-11.703 11.703-23.406 20.48-40.96 20.48-11.703 0-29.257-5.851-49.737-17.554v0z" />
<glyph unicode="&#xe90c;" glyph-name="instagram" d="M707.043 893.44v0c35.261 0 68.284-6.755 99.049-20.266 31.517-13.511 58.711-31.711 81.601-54.602s41.091-50.084 54.602-81.601c13.511-30.786 20.266-63.788 20.266-99.049v-384.965c0-35.282-6.755-68.284-20.266-99.049-13.511-31.517-31.711-58.732-54.602-81.601-22.891-22.891-50.084-41.091-81.601-54.602-30.786-13.511-63.788-20.266-99.049-20.266h-384.965c-35.282 0-68.284 6.755-99.049 20.266-31.517 13.511-58.732 31.69-81.601 54.602-22.891 22.891-41.091 50.084-54.602 81.601-13.511 30.765-20.266 63.766-20.266 99.049v384.965c0 35.261 6.755 68.284 20.266 99.049 13.511 31.517 31.69 58.711 54.602 81.601 22.891 22.891 50.084 41.091 81.601 54.602 30.765 13.511 63.766 20.266 99.049 20.266h384.965zM514.56 188.804c35.261 0 68.672 6.755 100.189 20.266 30.764 13.511 57.786 31.883 81.042 55.161 23.256 23.256 41.65 50.256 55.161 81.042 13.511 31.517 20.266 64.907 20.266 100.189 0 35.261-6.755 68.672-20.266 100.189-13.511 30.765-31.905 57.786-55.161 81.042-23.278 23.256-50.277 41.65-81.042 55.161-31.517 13.511-64.907 20.266-100.189 20.266s-68.672-6.755-100.189-20.266c-30.786-13.511-57.786-31.905-81.042-55.161-23.278-23.278-41.65-50.277-55.161-81.042-13.511-31.517-20.266-64.907-20.266-100.189s6.755-68.672 20.266-100.189c13.511-30.786 31.883-57.786 55.161-81.042 23.256-23.278 50.256-41.65 81.042-55.161 31.517-13.511 64.907-20.266 100.189-20.266v0zM514.56 637.923c53.268 0 98.662-18.76 136.203-56.28 37.52-37.541 56.28-82.935 56.28-136.203 0-53.289-18.76-98.683-56.28-136.203-37.541-37.541-82.935-56.28-136.203-56.28-53.289 0-98.683 18.738-136.203 56.28-37.541 37.52-56.28 82.914-56.28 136.203 0 53.268 18.738 98.662 56.28 136.203 37.52 37.52 82.914 56.28 136.203 56.28v0zM771.196 637.923c17.254 0 32.077 6.196 44.469 18.566s18.566 27.58 18.566 45.587c0 17.254-6.196 32.077-18.566 44.469-12.392 12.392-27.215 18.566-44.469 18.566-18.007 0-33.196-6.196-45.587-18.566-12.392-12.392-18.566-27.215-18.566-44.469 0-18.007 6.196-33.196 18.566-45.587s27.58-18.566 45.587-18.566v0z" />
<glyph unicode="&#xe90d;" glyph-name="locales" d="M512 960l264.533-196.267h230.4v-793.6h-443.733v256h-102.4v-256h-443.733v785.067h230.4l264.533 204.8zM110.933 64h247.467v247.467h298.667v-247.467h247.467v597.333h-162.133l-230.4 170.667-230.4-170.667h-170.667v-597.333z" />
<glyph unicode="&#xe90e;" glyph-name="mobile" d="M354.011 769.829h315.977c17.554 0 32.183-14.629 32.183-32.183v-579.291c0-17.554-14.629-32.183-32.183-32.183h-315.977c-17.554 0-32.183 14.629-32.183 32.183v579.291c0 17.554 14.629 32.183 32.183 32.183zM348.16 737.646v-70.217h327.68v70.217c0 2.926-2.926 5.851-5.851 5.851h-315.977c-2.926 0-5.851-2.926-5.851-5.851zM348.16 281.234h330.606v359.863h-330.606v-359.863zM348.16 158.354c0-2.926 2.926-5.851 5.851-5.851h318.903c2.926 0 5.851 2.926 5.851 5.851v96.549h-330.606v-96.549zM447.634 693.76v26.331h125.806v-26.331h-125.806zM485.669 202.24c0 14.629 11.703 26.331 26.331 26.331s26.331-11.703 26.331-26.331c0-14.629-11.703-26.331-26.331-26.331s-26.331 11.703-26.331 26.331z" />
<glyph unicode="&#xe90f;" glyph-name="mouse" d="M295.148 960c0-67.554 53.043-122.923 117.76-122.923 47.514 0 87.654-35.701 96.256-82.732-130.662-11.33-233.472-126.13-233.472-265.298v-286.893c0-146.653 114.483-266.153 254.976-266.153s254.976 119.501 254.976 266.153v286.893c0 140.024-104.448 255.678-236.544 265.298-9.421 70.119-66.765 123.778-136.192 123.778-43.008 0-78.438 36.77-78.438 81.877h-39.322zM314.809 202.153v286.893c0 124.204 96.87 225.322 215.859 225.322s215.859-101.118 215.859-225.322v-286.893c0-124.203-96.87-225.323-215.859-225.323-118.989 0.217-215.859 101.333-215.859 225.323zM471.891 529.877v-81.877c0-33.989 26.214-61.57 58.778-61.57s58.778 27.581 58.778 61.57v81.877c0 33.993-26.214 61.355-58.778 61.355-32.563 0.214-58.778-27.362-58.778-61.355zM511.008 448v81.877c0 11.331 8.602 20.523 19.661 20.523s19.661-8.98 19.661-20.523v-81.877c0-11.544-8.602-20.523-19.661-20.523s-19.661 8.98-19.661 20.523z" />
<glyph unicode="&#xe910;" glyph-name="pacifier" d="M687.543 740.571c-32.183 0-61.44-14.629-84.846-38.034-17.554-17.554-23.406-38.034-29.257-58.514-5.851-17.554-8.777-35.109-20.48-52.663-128.731 114.103-216.503 149.211-266.24 102.4-43.886-43.886-11.703-119.954 43.886-196.023l-64.366-64.366c-29.257-29.257-46.811-70.217-46.811-114.103s17.554-84.846 46.811-114.103c29.257-29.257 70.217-46.811 114.103-46.811s84.846 17.554 114.103 46.811l64.366 64.366c52.663-38.034 102.4-64.366 143.36-64.366 20.48 0 38.034 5.851 52.663 20.48 46.811 46.811 11.703 137.509-102.4 266.24 17.554 11.703 35.109 17.554 52.663 20.48 20.48 5.851 40.96 11.703 58.514 29.257 23.406 23.406 38.034 55.589 38.034 84.846 0 32.183-8.777 61.44-32.183 84.846-20.48 20.48-49.737 32.183-78.994 32.183 0-2.926 0-2.926-2.926-2.926v0zM509.074 445.074c-20.48 20.48-38.034 46.811-55.589 73.143 5.851 2.926 17.554 5.851 26.331 5.851 23.406 2.926 49.737 8.777 78.994 35.109 26.331 26.331 32.183 52.663 38.034 76.069 5.851 17.554 8.777 35.109 20.48 46.811 20.48 20.48 43.886 32.183 70.217 32.183s49.737-8.777 67.291-26.331c17.554-17.554 26.331-40.96 26.331-67.291s-11.703-49.737-32.183-70.217c-11.703-11.703-29.257-17.554-46.811-20.48-23.406-5.851-49.737-11.703-76.069-38.034-29.257-29.257-32.183-55.589-35.109-78.994-2.926-11.703-2.926-20.48-5.851-26.331-32.183 17.554-55.589 38.034-76.069 58.514v0zM456.411 392.411c-137.509 140.434-193.097 242.834-152.137 286.72 35.109 35.109 119.954 0 234.057-102.4-20.48-20.48-40.96-23.406-61.44-26.331-17.554-2.926-35.109-5.851-46.811-17.554-2.926-2.926-5.851-8.777-2.926-14.629 17.554-35.109 40.96-64.366 64.366-87.771s52.663-46.811 87.771-64.366c2.926 0 2.926-2.926 5.851-2.926s5.851 0 8.777 2.926c14.629 14.629 17.554 29.257 17.554 46.811 2.926 20.48 5.851 40.96 26.331 61.44 102.4-114.103 137.509-196.023 102.4-234.057-8.777-8.777-20.48-14.629-35.109-14.629-52.663 0-140.434 58.514-248.686 166.766v0zM283.794 219.794c-26.331 26.331-40.96 61.44-40.96 99.474s14.629 73.143 40.96 99.474l64.366 64.366c8.777-8.777 14.629-17.554 23.406-29.257l-61.44-61.44c-40.96-40.96-40.96-105.326 0-143.36 20.48-20.48 46.811-29.257 73.143-29.257s52.663 8.777 73.143 29.257l61.44 61.44c8.777-8.777 17.554-14.629 29.257-23.406l-64.366-64.366c-26.331-26.331-61.44-40.96-99.474-40.96-38.034-2.926-73.143 11.703-99.474 38.034zM327.68 260.754c-29.257 32.183-29.257 78.994 0 111.177l58.514 58.514c17.554-20.48 35.109-38.034 52.663-58.514 17.554-17.554 38.034-35.109 58.514-52.663l-58.514-61.44c-14.629-14.629-35.109-23.406-55.589-23.406-20.48 5.851-40.96 11.703-55.589 26.331z" />
<glyph unicode="&#xe911;" glyph-name="pc" d="M292.571 740.571c-29.257 0-52.663-23.406-52.663-49.737v-289.646l-49.737-178.469c0 0 0-2.926 0-2.926v-32.183c0-17.554 14.629-32.183 32.183-32.183h579.291c17.554 0 32.183 14.629 32.183 32.183v32.183c0 0 0 2.926 0 2.926l-49.737 178.469v289.646c0 29.257-23.406 49.737-52.663 49.737h-438.857zM266.24 690.834c0 14.629 11.703 26.331 26.331 26.331h438.857c14.629 0 26.331-11.703 26.331-26.331v-280.869h-491.52c0 0 0 280.869 0 280.869zM263.314 383.634h497.371l43.886-152.137h-585.143c0 0 43.886 152.137 43.886 152.137zM216.503 187.611v20.48h590.994v-20.48c0-2.926-2.926-5.851-5.851-5.851h-579.291c-2.926 0-5.851 2.926-5.851 5.851v0zM307.2 690.834h412.526c5.851 0 11.703-5.851 11.703-11.703v-228.206c0-5.851-5.851-11.703-11.703-11.703h-412.526c-5.851 0-11.703 5.851-11.703 11.703v228.206c0 5.851 5.851 11.703 11.703 11.703zM318.903 459.703h386.194v204.8h-386.194v-204.8zM435.931 333.897c-5.851 0-11.703-2.926-11.703-8.777l-14.629-52.663c0-2.926 0-8.777 2.926-11.703s5.851-5.851 8.777-5.851h178.469c2.926 0 8.777 2.926 8.777 5.851 2.926 2.926 2.926 5.851 2.926 11.703l-11.703 49.737c0 5.851-5.851 8.777-11.703 8.777 2.926 2.926-152.137 2.926-152.137 2.926zM444.709 307.566h134.583l5.851-26.331h-146.286l5.851 26.331z" />
<glyph unicode="&#xe912;" glyph-name="search" d="M1011.488 8.835l-291.197 291.197c56.405 69.673 90.367 158.206 90.367 254.632 0 223.486-181.844 405.33-405.33 405.33s-405.328-181.842-405.328-405.328 181.844-405.33 405.33-405.33c96.425 0 184.958 33.962 254.632 90.367l291.197-291.197c8.32-8.32 19.242-12.502 30.166-12.502s21.846 4.182 30.166 12.502c16.682 16.682 16.682 43.648-0.002 60.329zM405.33 234.669c-176.468 0-319.997 143.529-319.997 319.997s143.529 319.997 319.997 319.997 319.997-143.529 319.997-319.997-143.531-319.997-319.997-319.997z" />
<glyph unicode="&#xe913;" glyph-name="sewing-machine" d="M839.68 626.469h-29.257v2.926c0 8.777 0 17.554-8.777 26.331-5.851 5.851-17.554 8.777-32.183 8.777v0 64.366c0 5.851-5.851 11.703-11.703 11.703s-11.703-5.851-11.703-11.703v-67.291h-43.886v67.291c0 5.851-5.851 11.703-11.703 11.703s-11.703-5.851-11.703-11.703v-64.366l-333.531 2.926v23.406c0 5.851-5.851 11.703-11.703 11.703h-14.629v8.777c0 5.851-5.851 11.703-11.703 11.703s-11.703-5.851-11.703-11.703v-8.777h-14.629c-8.777 0-11.703-5.851-11.703-11.703v-23.406h-35.109c-17.554 0-32.183-14.629-32.183-32.183l8.777-193.097c0-11.703 11.703-23.406 23.406-23.406h52.663v-67.291h-99.474c-5.851 0-8.777-2.926-11.703-8.777l-14.629-64.366c0-2.926 0-2.926 0-5.851v-90.697c0-17.554 14.629-29.257 29.257-29.257h585.143c17.554 0 35.109 14.629 35.109 32.183v277.943h29.257c5.851 0 23.406 0 23.406 78.994 0 84.846-17.554 84.846-23.406 84.846v0zM292.571 679.131h29.257v-14.629l-29.257 2.926c0 0 0 11.703 0 11.703zM310.126 421.669h29.257c8.777 0 17.554 5.851 20.48 14.629l29.257 64.366c2.926 5.851 8.777 11.703 17.554 11.703h140.434c14.629 0 23.406-11.703 23.406-23.406v-122.88c0-2.926-2.926-5.851-5.851-5.851h-257.463l2.926 61.44zM196.023 330.971h90.697v-17.554c0-5.851 5.851-11.703 11.703-11.703s11.703 5.851 11.703 11.703v17.554h257.463c17.554 0 29.257 11.703 29.257 29.257v122.88c0 26.331-20.48 46.811-46.811 46.811h-140.434c-17.554 0-32.183-8.777-40.96-26.331l-29.257-64.366h-105.326l-8.777 190.171c0 5.851 2.926 8.777 8.777 8.777h40.96c0 0 2.926 0 2.926 0h491.52c14.629 0 17.554 0 17.554 0s0-5.851 0-8.777v-342.309h-599.771l8.777 43.886zM775.314 178.834h-585.143c-2.926 0-5.851 2.926-5.851 5.851v78.994h602.697v-76.069c0-2.926-5.851-8.777-11.703-8.777v0zM810.423 603.063h23.406c2.926-5.851 5.851-26.331 5.851-55.589s-2.926-49.737-5.851-55.589h-23.406v111.177zM690.469 486.034c40.96 0 70.217 32.183 70.217 70.217s-32.183 70.217-70.217 70.217c-40.96 0-70.217-32.183-70.217-70.217s29.257-70.217 70.217-70.217zM690.469 603.063c26.331 0 46.811-20.48 46.811-46.811s-20.48-46.811-46.811-46.811c-26.331 0-46.811 20.48-46.811 46.811-2.926 23.406 20.48 46.811 46.811 46.811v0zM690.469 316.343c40.96 0 70.217 32.183 70.217 70.217s-32.183 70.217-70.217 70.217c-40.96 0-70.217-32.183-70.217-70.217s29.257-70.217 70.217-70.217zM690.469 433.371c26.331 0 46.811-20.48 46.811-46.811s-20.48-46.811-46.811-46.811c-26.331 0-46.811 20.48-46.811 46.811-2.926 26.331 20.48 46.811 46.811 46.811z" />
<glyph unicode="&#xe914;" glyph-name="shopper" d="M326.51 672.11v-64.366h-146.988c-8.777 0-16.969-4.096-23.406-11.323-7.256-8.251-10.854-19.836-9.567-30.106l48.947-367.675c2.311-16.238 16.472-28.584 32.973-28.584h479.349c16.238 0 30.661 13.4 32.973 30.632l48.947 365.627c1.258 10.269-2.341 21.855-9.567 30.106-6.437 7.197-14.658 11.323-23.406 11.323h-147.046v64.366c0 78-63.576 141.605-141.605 141.605-78 0-141.605-63.605-141.605-141.605zM352.315 672.11c0 63.839 51.961 115.858 115.829 115.858 63.839 0 115.858-52.019 115.858-115.858v-64.366h-231.717v64.366zM220.95 202.24l-48.918 367.645c-0.468 3.101 1.024 6.963 3.394 9.83 1.258 1.521 2.809 2.545 4.096 2.545h577.243c1.287 0 2.838-1.024 4.125-2.545 2.341-2.867 3.803-6.729 3.335-9.83l-48.918-365.597c-0.527-4.096-4.389-8.485-7.49-8.485h-479.349c-3.891 0-6.992 2.838-7.49 6.437zM584.031 504.759c0-14.16 11.527-25.746 25.688-25.746s25.746 11.586 25.746 25.746-11.586 25.746-25.746 25.746-25.688-11.586-25.688-25.746zM300.793 504.759c0-14.16 11.615-25.746 25.746-25.746 14.16 0 25.746 11.586 25.746 25.746s-11.586 25.746-25.746 25.746c-14.131 0-25.746-11.586-25.746-25.746z" />
<glyph unicode="&#xe915;" glyph-name="simple-cart" d="M835.277 68.45c-31.251 0.093-56.543 25.223-56.59 56.483 0.047 31.213 25.339 56.39 56.59 56.483 31.39-0.093 56.683-25.316 56.73-56.483-0.047-31.213-25.339-56.483-56.73-56.483zM835.277 220.774c-53.071 0-96.051-42.961-96.051-95.842 0-52.927 43.027-95.842 96.051-95.842 53.164 0.093 96.191 42.868 96.191 95.842s-43.027 95.842-96.191 95.842zM338.924 68.45c-31.298 0.093-56.636 25.27-56.636 56.483 0 31.167 25.385 56.39 56.636 56.483 31.298-0.093 56.589-25.27 56.589-56.483s-25.292-56.483-56.589-56.483zM338.924 220.774c-53.117 0-96.098-42.915-96.098-95.842 0-52.973 42.981-95.842 96.098-95.842 53.070 0.14 95.958 42.868 96.098 95.842 0 52.927-42.981 95.842-96.098 95.842zM966.004 717.952l-117.872-297.539h-413.251l-105.436 297.539h636.558zM407.057 381.054h467.965l148.978 376.255h-750.251l9.244-26.253 124.064-350.002zM232.269 331.357v4.352c0.094 23.398 18.91 42.212 42.512 42.305h47.158l-180.231 488.895h-141.707v-39.357h114.21l151.42-410.743c-41.057-4.586-72.731-39.121-72.777-81.054v-4.492c0.047-45.065 36.553-81.427 81.833-81.617h696.479v39.405h-696.479c-23.508 0.093-42.325 18.86-42.418 42.305z" />
<glyph unicode="&#xe916;" glyph-name="spark" d="M302.285 531.763c11.725 20.634 10.752 43.827-1.536 54.118l-213.811 153.446c-22.221 13.21-55.603-2.714-74.496-36.198-18.995-33.587-15.616-71.014 6.554-84.224l236.851-112.794c14.848-5.632 34.918 5.171 46.592 25.805l-0.102-0.154zM302.285 365.619c11.725-20.634 10.752-43.827-1.536-54.221l-213.862-153.293c-22.221-13.158-55.603 2.765-74.496 36.25-18.995 33.485-15.616 71.014 6.554 84.173l236.851 112.742c14.848 5.683 34.918-5.018 46.592-25.754l-0.102 0.102zM442.931 282.419c23.296 0 42.496-12.288 45.056-28.314l23.040-266.138c0-26.419-30.106-47.974-67.994-47.974s-67.942 21.555-67.942 47.974l22.989 266.138c2.509 16.026 21.709 28.314 44.954 28.314h-0.154zM583.68 365.568c11.622 20.634 31.744 31.334 46.592 25.651l236.8-112.64c22.272-13.21 25.498-50.688 6.656-84.275-18.944-33.434-52.378-49.357-74.547-36.198l-213.914 153.344c-12.237 10.394-13.158 33.587-1.536 54.221l-0.051-0.102zM583.68 531.968c11.622-20.685 31.744-31.488 46.592-25.805l236.8 112.742c22.272 13.21 25.498 50.637 6.656 84.224-18.944 33.587-52.378 49.408-74.547 36.198l-213.965-153.446c-12.237-10.291-13.158-33.485-1.536-54.118l-0.051 0.154zM442.931 614.912c23.296 0 42.496 12.442 45.056 28.416l23.040 266.189c-0.051 26.368-30.106 47.923-67.994 47.923s-67.942-21.606-67.942-47.974l22.989-266.24c2.509-15.923 21.709-28.314 44.954-28.314h-0.154zM943.514 175.923h4.915c5.274 0 9.984 1.69 9.984 6.4 0 3.84-2.355 6.451-9.318 6.451-2.816 0-4.454-0.205-5.632-0.512v-12.339zM943.514 153.549h-7.168v39.782c3.84 0.666 8.090 1.126 13.466 1.126 6.502 0 9.779-1.126 12.288-3.072 2.355-1.638 3.994-4.762 3.994-8.346 0-4.966-3.43-8.090-7.68-9.523v-0.512c3.533-1.382 5.325-4.454 6.502-9.472 1.178-6.144 1.843-8.55 2.816-9.984h-7.424c-1.178 1.434-2.099 4.915-3.072 10.445-0.922 4.352-3.533 6.144-9.062 6.144h-4.659v-16.589zM950.067 205.773c-16.794 0-29.645-14.080-29.645-31.283 0-17.664 12.8-31.437 30.106-31.437 16.742-0.307 29.082 13.773 29.082 31.232 0 17.408-12.339 31.437-29.338 31.437h-0.205zM950.528 212.378c20.941 0 37.53-16.64 37.53-37.888 0-21.658-16.589-38.4-37.786-38.4-21.248 0-37.99 16.742-37.99 38.4 0 21.248 16.742 37.888 37.99 37.888h0.256z" />
<glyph unicode="&#xe917;" glyph-name="super-cart" d="M146.286 769.829v-29.257h99.474c2.926 0 5.851-2.926 5.851-5.851l108.251-435.931c2.926-14.629 17.554-26.331 35.109-26.331h380.343c17.554 0 32.183 11.703 35.109 29.257l67.291 307.2c2.926 11.703 0 23.406-8.777 32.183-5.851 8.777-17.554 14.629-29.257 14.629h-535.406l-23.406 90.697c-2.926 14.629-17.554 26.331-35.109 26.331h-99.474zM702.171 623.543h140.434c2.926 0 5.851-2.926 5.851-2.926s2.926-2.926 0-5.851l-17.554-78.994h-137.509l8.777 87.771zM497.371 623.543h175.543l-5.851-87.771h-157.989l-11.703 87.771zM310.126 623.543h157.989l5.851-87.771h-143.36l-20.48 87.771zM690.469 506.514h134.583l-17.554-87.771h-122.88l5.851 87.771zM509.074 506.514h152.137l-8.777-87.771h-137.509l-5.851 87.771zM339.383 506.514h137.509l5.851-87.771h-122.88l-20.48 87.771zM672.914 301.714l5.851 87.771h119.954l-17.554-81.92c0-2.926-2.926-5.851-5.851-5.851h-102.4zM526.629 301.714l-5.851 87.771h134.583l-5.851-87.771h-122.88zM397.897 301.714c-2.926 0-5.851 2.926-5.851 5.851l-20.48 81.92h119.954l5.851-87.771c0 0-99.474 0-99.474 0zM672.914 184.686c0-32.183 26.331-58.514 58.514-58.514s58.514 26.331 58.514 58.514-26.331 58.514-58.514 58.514c-32.183 0-58.514-26.331-58.514-58.514zM702.171 184.686c0 14.629 14.629 29.257 29.257 29.257s29.257-14.629 29.257-29.257-14.629-29.257-29.257-29.257c-14.629 0-29.257 14.629-29.257 29.257zM380.343 184.686c0-32.183 26.331-58.514 58.514-58.514s58.514 26.331 58.514 58.514-26.331 58.514-58.514 58.514c-32.183 0-58.514-26.331-58.514-58.514zM409.6 184.686c0 14.629 14.629 29.257 29.257 29.257s29.257-14.629 29.257-29.257-14.629-29.257-29.257-29.257-29.257 14.629-29.257 29.257z" />
<glyph unicode="&#xe918;" glyph-name="tent" d="M462.263 737.646c-5.851-2.926-8.777-11.703-5.851-17.554l38.034-67.291-269.166-473.966h-35.109v-23.406h643.657v26.331h-38.034l-269.166 471.040 38.034 67.291c2.926 5.851 0 14.629-5.851 17.554-2.926 0-2.926 2.926-5.851 2.926-5.851 0-8.777-2.926-11.703-5.851l-29.257-55.589-32.183 55.589c-2.926 2.926-5.851 5.851-11.703 5.851 0 0-2.926 0-5.851-2.926v0zM512 626.469l254.537-447.634h-117.029c-119.954 90.697-125.806 234.057-125.806 234.057v8.777c0 0 0 0 0 2.926 0 0 0 0-2.926 2.926 0 0 0 0-2.926 0s-2.926 0-2.926 0 0 0-2.926 0v0h-2.926c0 0 0 0-2.926 0 0 0-2.926 0-2.926-2.926v0c0 0 0-2.926-2.926-2.926 0 0 0 0 0-2.926v-2.926c0 0 0 0 0-2.926s-5.851-146.286-125.806-234.057h-117.029l254.537 447.634zM512 342.674c14.629-46.811 40.96-108.251 99.474-160.914h-198.949c58.514 52.663 84.846 114.103 99.474 160.914v0z" />
<glyph unicode="&#xe919;" glyph-name="tools" d="M266.24 737.646l-43.886-43.886c-2.926-2.926-5.851-8.777-2.926-14.629l52.663-93.623c0-2.926 2.926-2.926 5.851-5.851l67.291-23.406 87.771-87.771-198.949-198.949c-26.331-26.331-26.331-70.217 0-96.549 14.629-11.703 29.257-20.48 46.811-20.48s35.109 5.851 46.811 20.48l184.32 190.171h2.926v-29.257c0-2.926 0-5.851 2.926-8.777l146.286-152.137c14.629-14.629 35.109-23.406 52.663-23.406 20.48 0 40.96 8.777 55.589 23.406s23.406 35.109 23.406 55.589c0 20.48-8.777 38.034-23.406 52.663v0l-140.434 152.137c-2.926 2.926-5.851 2.926-8.777 2.926h-29.257v2.926l49.737 49.737c11.703-2.926 20.48-5.851 32.183-5.851 2.926 0 8.777 0 11.703 0 61.44 5.851 111.177 55.589 117.029 119.954 2.926 20.48-2.926 40.96-11.703 61.44-2.926 2.926-5.851 5.851-8.777 5.851s-8.777 0-11.703-2.926l-64.366-64.366c0 0-5.851 0-5.851 0l-35.109 35.109c0 0 0 5.851 0 5.851l67.291 67.291c2.926 2.926 2.926 5.851 2.926 11.703 0 2.926-2.926 5.851-5.851 8.777-17.554 8.777-38.034 14.629-61.44 11.703-64.366-2.926-117.029-52.663-122.88-114.103 0-14.629 0-29.257 2.926-43.886l-61.44-58.514-87.771 87.771-23.406 70.217c0 2.926-2.926 5.851-5.851 5.851l-93.623 52.663c-2.926 0-2.926 2.926-5.851 2.926 0-5.851-2.926-5.851-5.851-8.777zM599.771 538.697c-23.406 23.406-32.183 52.663-29.257 84.846 5.851 49.737 49.737 90.697 102.4 93.623h2.926c11.703 0 20.48 0 29.257-2.926l-55.589-55.589c-2.926-5.851-5.851-11.703-5.851-20.48 0-5.851 2.926-14.629 8.777-20.48l35.109-35.109c11.703-11.703 29.257-11.703 38.034 0l52.663 52.663c2.926-11.703 2.926-20.48 2.926-32.183-2.926-49.737-43.886-93.623-96.549-96.549-2.926 0-5.851 0-8.777 0-29.257 0-55.589 11.703-76.069 32.183zM362.789 576.731c0 0-2.926 2.926-5.851 2.926l-64.366 23.406-46.811 81.92 29.257 29.257 81.92-46.811 23.406-67.291c0 0 2.926-2.926 2.926-2.926l125.806-125.806-20.48-20.48-125.806 125.806zM506.149 506.514l52.663 52.663c5.851-14.629 14.629-26.331 26.331-35.109 11.703-11.703 23.406-17.554 35.109-26.331l-26.331-26.331v8.777c0 2.926 0 5.851-2.926 8.777l-11.703 8.777c-5.851 5.851-11.703 8.777-20.48 8.777s-14.629-2.926-20.48-8.777l-11.703-11.703c0 0-20.48 20.48-20.48 20.48zM479.817 398.263c0 0 0 2.926 0 2.926 0 2.926 0 2.926 0 5.851l76.069 76.069c0 0 2.926 0 2.926 0 2.926 0 2.926 0 5.851-2.926l5.851-5.851v-49.737c0-5.851 5.851-11.703 11.703-11.703h35.109l146.286-140.434c8.777-8.777 14.629-23.406 14.629-38.034s-5.851-29.257-17.554-38.034c-23.406-23.406-55.589-23.406-76.069 0l-140.434 146.286v35.109c0 5.851-5.851 11.703-11.703 11.703h-49.737c2.926 0-2.926 8.777-2.926 8.777zM257.463 193.463c-17.554 17.554-17.554 46.811 0 61.44l198.949 198.949 20.48-20.48-11.703-11.703c-5.851-5.851-8.777-14.629-8.777-20.48 0-8.777 2.926-14.629 8.777-20.48l8.777-11.703c2.926-2.926 5.851-2.926 8.777-2.926h8.777l-169.691-172.617c-8.777-8.777-20.48-11.703-32.183-11.703-14.629-2.926-23.406 2.926-32.183 11.703v0zM596.846 603.063l70.217-70.217 17.554 17.554-70.217 70.217-17.554-17.554zM576.366 383.634c-5.851-5.851-5.851-11.703 0-17.554l146.286-146.286c2.926-2.926 5.851-2.926 8.777-2.926s5.851 0 8.777 2.926c5.851 5.851 5.851 11.703 0 17.554l-146.286 146.286c-2.926 2.926-5.851 2.926-8.777 2.926s-5.851-2.926-8.777-2.926zM277.943 237.349c0-11.703 11.703-23.406 23.406-23.406s23.406 11.703 23.406 23.406-11.703 23.406-23.406 23.406c-11.703 0-23.406-8.777-23.406-23.406z" />
<glyph unicode="&#xe91a;" glyph-name="toy" d="M588.069 769.829c-26.331 11.703-52.663 11.703-78.994 11.703s-52.663-2.926-76.069-14.629c-17.554 26.331-49.737 43.886-81.92 43.886-55.589 0-102.4-49.737-102.4-108.251 0-40.96 17.554-76.069 46.811-93.623-2.926-11.703-2.926-20.48-2.926-32.183 0-40.96 11.703-76.069 32.183-108.251-5.851 2.926-11.703 5.851-17.554 8.777s-14.629 5.851-20.48 8.777c-11.703 5.851-20.48 5.851-32.183 5.851-35.109 0-67.291-23.406-78.994-55.589-14.629-43.886 2.926-90.697 43.886-111.177 23.406-11.703 46.811-23.406 81.92-29.257-14.629-14.629-38.034-35.109-61.44-58.514-17.554-17.554-26.331-43.886-23.406-67.291 2.926-26.331 14.629-49.737 32.183-64.366l8.777-5.851c29.257-23.406 70.217-26.331 96.549-2.926 23.406 17.554 73.143 49.737 137.509 49.737h29.257c64.366 0 114.103-29.257 137.509-49.737 14.629-8.777 29.257-14.629 46.811-14.629s35.109 5.851 52.663 17.554l5.851 5.851c20.48 14.629 32.183 38.034 32.183 64.366 2.926 26.331-5.851 49.737-23.406 67.291-23.406 26.331-46.811 46.811-61.44 58.514 35.109 5.851 58.514 17.554 81.92 29.257 29.257 14.629 46.811 43.886 46.811 78.994 0 11.703-2.926 20.48-5.851 29.257-8.777 23.406-23.406 40.96-46.811 49.737-20.48 8.777-43.886 8.777-64.366 0-5.851-2.926-14.629-5.851-20.48-8.777-8.777-2.926-14.629-5.851-23.406-8.777 20.48 32.183 35.109 70.217 35.109 108.251 0 11.703 0 20.48-2.926 32.183 29.257 17.554 55.589 55.589 55.589 96.549 0 61.44-46.811 108.251-102.4 108.251-20.48 5.851-58.514-11.703-76.069-40.96zM608.549 746.423c11.703 26.331 32.183 38.034 61.44 38.034 40.96 0 73.143-35.109 73.143-78.994 0-32.183-14.629-58.514-38.034-70.217v0c-5.851 0-11.703-8.777-11.703-17.554 0-2.926 0-2.926 0-5.851 2.926-11.703 2.926-23.406 2.926-35.109 0-96.549-81.92-175.543-184.32-175.543s-184.32 78.994-184.32 175.543c0 11.703 0 23.406 2.926 38.034v2.926c0 8.777-5.851 11.703-11.703 14.629-23.406 11.703-38.034 38.034-38.034 70.217 0 43.886 32.183 78.994 73.143 78.994 26.331 0 49.737-14.629 61.44-40.96 2.926-5.851 11.703-8.777 17.554-5.851 26.331 11.703 49.737 17.554 76.069 17.554 29.257 0 52.663 0 73.143-14.629 2.926-2.926 5.851-2.926 8.777-2.926 8.777 2.926 14.629 5.851 17.554 11.703v0zM277.943 126.171l-8.777 5.851c-11.703 8.777-20.48 26.331-23.406 43.886 0 17.554 5.851 35.109 14.629 46.811 49.737 52.663 87.771 78.994 87.771 78.994 5.851 2.926 5.851 11.703 5.851 14.629-2.926 5.851-5.851 8.777-14.629 8.777-49.737 0-76.069 14.629-108.251 29.257-26.331 11.703-38.034 43.886-26.331 73.143 8.777 23.406 29.257 38.034 49.737 38.034 5.851 0 11.703-2.926 20.48-5.851 5.851-2.926 11.703-5.851 20.48-8.777 17.554-8.777 38.034-17.554 61.44-20.48 11.703-11.703 26.331-23.406 43.886-32.183-8.777-17.554-14.629-40.96-14.629-61.44 0-76.069 55.589-137.509 122.88-137.509s122.88 61.44 122.88 137.509c0 23.406-5.851 43.886-14.629 61.44 14.629 8.777 29.257 20.48 40.96 32.183 26.331 0 46.811 8.777 64.366 20.48 5.851 2.926 11.703 5.851 20.48 8.777 11.703 5.851 26.331 5.851 38.034 0 14.629-5.851 26.331-17.554 29.257-32.183 2.926-5.851 2.926-14.629 2.926-20.48 0-23.406-11.703-43.886-32.183-52.663-29.257-14.629-55.589-29.257-105.326-29.257-5.851 0-11.703-2.926-14.629-8.777s0-11.703 5.851-14.629c0 0 38.034-29.257 87.771-78.994 11.703-11.703 17.554-29.257 14.629-46.811 0-17.554-8.777-32.183-23.406-43.886l-5.851-5.851c-17.554-14.629-43.886-14.629-61.44-2.926-26.331 20.48-81.92 52.663-155.063 52.663h-26.331c-73.143 0-128.731-35.109-155.063-52.663-8.777-8.777-20.48-11.703-29.257-11.703-11.703 0-23.406 5.851-35.109 14.629zM590.994 389.486c5.851-14.629 11.703-32.183 11.703-49.737 0-58.514-40.96-108.251-93.623-108.251-49.737 0-93.623 46.811-93.623 108.251 0 17.554 2.926 35.109 11.703 49.737 26.331-8.777 52.663-14.629 81.92-14.629s58.514 5.851 81.92 14.629zM631.954 734.72l26.331-11.703c0 2.926 5.851 2.926 8.777 2.926 8.777 0 14.629-8.777 14.629-17.554h29.257c0 23.406-20.48 46.811-43.886 46.811-17.554-2.926-29.257-8.777-35.109-20.48zM307.2 708.389h29.257c0 8.777 8.777 14.629 14.629 14.629s8.777-2.926 11.703-8.777l26.331 14.629c-8.777 14.629-23.406 23.406-38.034 23.406-20.48 0-43.886-20.48-43.886-43.886zM555.886 638.171c0-14.629 14.629-29.257 29.257-29.257s29.257 14.629 29.257 29.257-14.629 29.257-29.257 29.257-29.257-11.703-29.257-29.257zM409.6 638.171c0-14.629 14.629-29.257 29.257-29.257s29.257 14.629 29.257 29.257-14.629 29.257-29.257 29.257-29.257-11.703-29.257-29.257zM468.114 579.657v-14.629c0-17.554 11.703-35.109 29.257-40.96 0-17.554-14.629-32.183-32.183-32.183s-29.257 14.629-32.183 32.183h-29.257v-2.926c2.926-32.183 29.257-58.514 61.44-58.514 17.554 0 35.109 8.777 46.811 23.406 11.703-14.629 26.331-23.406 43.886-23.406v0c32.183 0 58.514 26.331 58.514 58.514v2.926l-29.257-2.926c0-17.554-14.629-29.257-32.183-29.257s-29.257 14.629-29.257 32.183c17.554 5.851 29.257 23.406 29.257 40.96v14.629c2.926 0-84.846 0-84.846 0z" />
<glyph unicode="&#xe91b;" glyph-name="tv" d="M172.617 778.606h684.617c17.554 0 35.109-14.629 35.109-35.109v-468.114c0-17.554-14.629-35.109-35.109-35.109h-207.726v-90.697h152.137v-29.257h-579.291v29.257h152.137v90.697h-207.726c-17.554 0-35.109 14.629-35.109 35.109v471.040c0 17.554 20.48 35.109 40.96 35.109zM160.914 269.531v473.966c0 2.926 2.926 5.851 5.851 5.851v0h684.617c2.926 0 5.851-2.926 5.851-5.851v0-471.040c0-2.926-2.926-5.851-5.851-5.851v0h-678.766c-8.777-2.926-11.703 0-11.703 2.926v0zM406.674 140.8h213.577v90.697h-213.577v-90.697zM207.726 720.091c-8.777 0-14.629-5.851-14.629-14.629v0-394.971c0-8.777 5.851-14.629 14.629-14.629v0h608.549c8.777 0 14.629 5.851 14.629 14.629v0 394.971c0 8.777-5.851 14.629-14.629 14.629v0h-608.549zM222.354 325.12h579.291v365.714h-579.291v-365.714z" />
<glyph unicode="&#xe91c;" glyph-name="twitter" d="M1023.672 759.194l-1.188-1.188c-13.578-19.948-28.938-38.707-46.080-56.259-17.162-17.551-36.106-33.915-56.852-49.070v1.188c0-3.994 0-8.192 0-12.575 0-4.403 0-8.97 0-13.763v-1.188c0-67.83-12.78-136.868-38.298-207.073-26.337-69.427-64.635-132.26-114.893-188.518-50.278-56.259-112.517-102.339-186.716-138.24-74.199-35.123-159.601-52.654-256.143-52.654h-1.188c-59.064 0-115.712 8.172-169.964 24.535-54.272 16.343-104.141 38.892-149.606 67.625h-2.417c8.765-0.799 17.347-1.393 25.743-1.802 8.376-0.41 16.937-0.594 25.743-0.594h1.188c49.459 0 96.358 7.782 140.636 23.347s83.968 36.905 119.091 64.041c-45.486 0.778-85.996 14.541-121.487 41.288-35.512 26.726-60.436 60.846-74.813 102.339h-1.188c7.188-0.799 14.152-1.618 20.951-2.396 6.779-0.799 13.353-1.188 19.743-1.188 10.363 0 20.132 0.594 29.327 1.802 9.155 1.188 18.145 2.99 26.931 5.386-48.681 9.585-88.986 33.096-120.893 70.615-31.928 37.499-47.882 81.388-47.882 131.666v2.396l-1.188 1.188c14.356-7.987 29.512-14.356 45.486-19.149 15.954-4.792 32.707-7.188 50.278-7.188-27.935 18.35-50.483 42.496-67.625 72.417-17.162 29.921-25.743 62.833-25.743 98.755 0 19.149 2.58 37.499 7.782 55.050 5.181 17.551 12.165 33.915 20.951 49.070l1.188-1.188c25.518-31.13 54.252-59.453 86.18-84.972 31.908-25.539 66.232-47.493 102.932-65.823 36.7-18.371 75.407-33.116 116.101-44.278 39.895-11.182 81.777-17.551 125.665-19.149-1.618 7.188-2.99 14.746-4.198 22.733-1.188 7.967-1.802 15.954-1.802 23.941 0 56.648 20.541 105.124 61.645 145.428 41.083 40.284 90.767 60.436 149.012 60.436 30.31 0 58.45-5.796 84.378-17.347 25.928-11.571 48.476-27.341 67.625-47.268 23.941 4.792 47.063 11.366 69.427 19.743 22.323 8.376 43.868 18.555 64.635 30.515l-1.188-2.396c-7.987-23.163-19.743-44.483-35.308-64.041s-34.12-35.717-55.665-48.476l1.188 1.188c21.545 2.396 42.291 6.369 62.239 11.96 19.948 5.55 38.707 11.94 56.259 19.128v0z" />
<glyph unicode="&#xe91d;" glyph-name="wash-machine" d="M263.314 740.571c-17.554 0-29.257-14.629-29.257-29.257v-526.629c0-17.554 14.629-29.257 29.257-29.257h494.446c17.554 0 29.257 14.629 29.257 29.257v526.629c0 17.554-14.629 29.257-29.257 29.257h-494.446zM257.463 711.314c0 2.926 2.926 5.851 5.851 5.851h494.446c2.926 0 5.851-2.926 5.851-5.851v-90.697h-506.149c0-2.926 0 90.697 0 90.697zM257.463 184.686v409.6h506.149v-409.6c0-2.926-2.926-5.851-5.851-5.851h-494.446c-2.926 0-5.851 2.926-5.851 5.851zM693.394 667.429c0-14.629 11.703-23.406 23.406-23.406s23.406 11.703 23.406 23.406c0 11.703-11.703 23.406-23.406 23.406s-23.406-8.777-23.406-23.406zM620.251 667.429c0-14.629 11.703-23.406 23.406-23.406 14.629 0 23.406 11.703 23.406 23.406s-11.703 23.406-23.406 23.406-23.406-8.777-23.406-23.406zM354.011 386.56c0-87.771 70.217-157.989 157.989-157.989s157.989 70.217 157.989 157.989-70.217 157.989-157.989 157.989-157.989-70.217-157.989-157.989zM512 521.143c70.217 0 128.731-55.589 131.657-128.731-61.44-52.663-90.697-29.257-125.806 2.926-32.183 29.257-73.143 61.44-137.509 17.554 14.629 61.44 67.291 108.251 131.657 108.251zM380.343 383.634c61.44 49.737 87.771 26.331 122.88-5.851 20.48-17.554 43.886-38.034 78.994-38.034 17.554 0 38.034 5.851 61.44 23.406-11.703-61.44-67.291-108.251-131.657-108.251-73.143-2.926-131.657 55.589-131.657 128.731z" />
<glyph unicode="&#xe91e;" glyph-name="youtube" d="M983.753 651.881c6.351-68.682 9.527-123.672 9.527-165.010v-77.763c0-41.358-3.176-96.348-9.527-165.010-11.287-51.869-23.99-85.495-38.088-100.898-18.346-20.337-36.672-32.237-54.998-35.74-18.346-3.524-32.101-5.96-41.244-7.349-33.84-2.799-70.533-4.913-110.017-6.302-39.504-1.409-75.994-2.457-109.471-3.161-33.497-0.705-61.532-1.047-84.085-1.047h-74.052c-26.801 0.685-58.356 1.389-94.664 2.094-36.328 0.685-72.454 1.732-108.419 3.161-36.672 1.389-64.525 2.799-83.559 4.208-11.287 2.094-27.327 4.893-48.121 8.417-20.814 3.504-40.374 15.404-58.7 35.74-14.119 15.404-26.801 49.030-38.088 100.898-6.351 68.662-9.527 123.651-9.527 165.010v77.763c0 41.338 3.176 96.328 9.527 165.010 11.267 51.849 23.969 85.475 38.088 100.898 18.326 20.317 36.652 32.398 54.998 36.264 18.326 3.846 32.081 6.121 41.244 6.826 33.84 2.799 70.513 4.893 110.017 6.302 39.484 1.389 75.974 2.457 109.471 3.161 33.476 0.685 61.511 1.047 84.085 1.047h67.681c22.554 0 50.589-0.362 84.085-1.047 33.476-0.705 69.987-1.752 109.471-3.161s76.156-3.524 110.017-6.302c9.163-0.705 22.897-2.98 41.244-6.826 18.326-3.866 36.652-15.947 54.998-36.264 14.139-15.444 26.821-49.070 38.108-100.919v0zM412.552 315.559l260.205 142.941-260.205 143.988v-286.929z" />
<glyph unicode="&#xe91f;" glyph-name="agenda" d="M905.823-64h-744.724c-76.8 0-139.637 60.432-139.637 134.294v649.095c0 73.862 62.837 134.294 139.637 134.294h93.091v61.552c0 24.621 20.946 44.765 46.546 44.765s46.545-20.144 46.545-44.765v-61.552h372.364v61.552c0 24.621 20.946 44.765 46.546 44.765s46.544-20.144 46.544-44.765v-61.552h93.089c76.8 0 139.642-60.433 139.642-134.294v-649.095c0-74.98-62.842-134.294-139.642-134.294zM161.098 25.529h744.724c25.6 0 46.545 20.141 46.545 44.765v369.313h-837.815v-369.313c0-25.742 20.946-44.765 46.546-44.765zM905.823 764.153h-93.089v-50.36c0-24.621-20.945-44.765-46.544-44.765s-46.546 20.144-46.546 44.765v50.36h-372.364v-50.36c0-24.621-20.945-44.765-46.545-44.765s-46.546 20.144-46.546 44.765v50.36h-93.091c-25.6 0-46.546-20.144-46.546-44.765v-190.252h837.815v190.252c0 24.62-20.945 44.765-46.545 44.765z" />
<glyph unicode="&#xe920;" glyph-name="armchair" d="M339.383 740.571c-38.034 0-67.291-29.257-67.291-70.217v-125.806c-5.851 0-8.777 0-14.629 0-55.589 0-99.474-43.886-99.474-96.549 0-38.034 23.406-73.143 55.589-87.771v-78.994c0-35.109 23.406-64.366 55.589-67.291v-55.589h29.257v55.589h421.303v-55.589h29.257v58.514c32.183 8.777 55.589 35.109 55.589 67.291v78.994c32.183 14.629 55.589 49.737 55.589 87.771 0 52.663-43.886 96.549-99.474 96.549-5.851 0-8.777 0-14.629 0v125.806c0 38.034-32.183 70.217-73.143 70.217 5.851-2.926-333.531-2.926-333.531-2.926zM356.937 448c0 38.034-23.406 73.143-55.589 87.771v134.583c0 23.406 17.554 40.96 38.034 40.96h336.457c23.406 0 43.886-20.48 43.886-40.96v-134.583c-32.183-14.629-55.589-49.737-55.589-87.771v-70.217h-307.2v70.217zM681.691 351.451c8.777 0 14.629 5.851 14.629 14.629v84.846c0 38.034 32.183 70.217 70.217 70.217s70.217-32.183 70.217-70.217c0-38.034-32.183-70.217-70.217-70.217h-14.629v-29.257h14.629c5.851 0 8.777 0 14.629 0v-70.217c0-23.406-20.48-40.96-43.886-40.96h-453.486c-23.406 0-38.034 17.554-38.034 40.96v70.217c5.851 0 8.777 0 14.629 0h14.629v29.257h-14.629c-38.034 0-70.217 32.183-70.217 70.217s32.183 70.217 70.217 70.217c38.034 0 70.217-32.183 70.217-70.217v-84.846c0-8.777 5.851-14.629 14.629-14.629-2.926 0 336.457 0 336.457 0z" />
<glyph unicode="&#xe921;" glyph-name="arrow__link" d="M346.206 272.755l322.732 302.044v-256.53h28.963v289.631c0 4.138-4.138 8.275-4.138 12.413-2.069 2.069-6.206 2.069-12.413 4.138h-289.631v-28.963h256.53l-322.732-302.044 20.688-20.688z" />
<glyph unicode="&#xe922;" glyph-name="arrow-down" d="M1010.368 713.641c-18.174 18.174-47.647 18.178-65.825-0.003l-432.531-432.541-432.553 432.544c-18.174 18.174-47.647 18.178-65.825-0.003-18.178-18.178-18.178-47.647 0-65.825l465.467-465.455c8.729-8.729 20.567-13.632 32.911-13.632s24.185 4.906 32.911 13.635l465.442 465.455c18.181 18.174 18.181 47.647 0.003 65.825z" />
<glyph unicode="&#xe923;" glyph-name="arrow-next" d="M409.6 611.84l163.84-163.84-163.84-163.84 11.703-11.703 169.691 169.691c2.926 2.926 2.926 8.777 0 11.703l-169.691 169.691-11.703-11.703z" />
<glyph unicode="&#xe924;" glyph-name="refrigerator" d="M244.641 920.411c-26.419 0-47.718-21.504-47.718-47.923v-860.57c0-26.419 21.504-47.718 47.718-47.718h554.598c26.419 0 47.718 21.504 47.718 47.718v860.774c0 26.419-21.299 47.923-47.718 47.923l-554.598-0.205zM235.016 872.692c0 5.325 4.301 9.626 9.626 9.626h554.598c5.325 0 9.626-4.301 9.626-9.626v-296.346h-573.85v296.346zM235.425 126.811v411.238h573.645v-411.238h-0.41c0-5.325-4.506-9.626-9.626-9.626h-553.984c-5.325 0.205-9.626 4.301-9.626 9.626zM798.83 79.092c3.482 0 6.554 1.229 9.626 1.843v-68.813c0.205-5.325-3.891-9.626-9.216-9.626h-554.598c-5.325 0-9.626 4.096-9.626 9.626v68.813c3.072-0.614 6.144-1.843 9.626-1.843h554.189zM273.313 652.737h38.298v152.986h-38.298v-152.986zM273.313 308.468h38.298v152.986h-38.298v-152.986z" />
<glyph unicode="&#xe925;" glyph-name="blender" d="M751.955 805.723h-19.046v69.018c0 22.938-22.938 45.875-49.766 45.875h-401.816c-22.938 0-45.875-22.938-45.875-45.875v-68.813h-57.344c-7.578 0-15.36-3.891-19.046-11.469s0-15.36 3.891-19.046l88.064-111.002 61.235-374.989-65.126-263.987c-3.891-15.36 0-30.515 7.578-42.189 7.578-11.469 22.938-19.046 38.298-19.046h382.77c15.36 0 30.515 7.578 38.298 19.046 7.578 11.469 11.469 26.829 7.578 42.189l-65.126 263.987 72.704 478.413h22.938c53.658 0 95.642-42.189 95.642-95.642v-172.646h38.298v172.237c-0.205 72.704-61.44 133.939-134.144 133.939zM273.543 874.74c0 3.891 3.891 7.578 7.578 7.578h401.816c7.578 0 11.469-3.891 11.469-7.578v-68.813h-420.862v68.813zM683.142 5.979c0 0-3.891-3.891-7.578-3.891h-382.77c-3.891 0-7.578 3.891-7.578 3.891s-3.891 3.891 0 7.578l61.235 256.41h275.454l61.235-256.41c3.686-3.891 0-7.578 0-7.578zM621.907 308.263h-118.784v88.064l72.704 68.813-26.829 26.829-61.235-61.235-61.235 61.235-26.829-26.829 68.813-68.813v-88.064h-118.578l-61.030 367.411c0 3.891-3.891 7.578-3.891 7.578l-68.813 84.173h470.629l-64.922-459.162zM484.076 231.668c-53.658 0-95.64-42.189-95.64-95.642 0-53.658 42.187-95.642 95.64-95.642s95.642 42.189 95.642 95.642c0 53.658-41.984 95.642-95.642 95.642zM484.076 78.683c-30.515 0-57.344 26.829-57.344 57.344s26.829 57.344 57.344 57.344c30.515 0 57.344-26.829 57.344-57.344s-26.829-57.344-57.344-57.344z" />
<glyph unicode="&#xe926;" glyph-name="dropdown" d="M511.999 156.146c-18.352 0-36.702 7.007-50.694 20.992l-440.297 440.301c-28.009 28.009-28.009 73.42 0 101.417 27.997 27.997 73.399 27.997 101.41 0l389.58-389.603 389.583 389.589c28.009 27.997 73.406 27.997 101.401 0 28.022-27.997 28.022-73.408 0-101.417l-440.29-440.301c-13.999-13.987-32.349-20.979-50.694-20.979z" />
</font>
</defs>
</svg>
