<?xml version="1.0" encoding="utf-8"?>
<!-- Generator: Adobe Illustrator 24.3.0, SVG Export Plug-In . SVG Version: 6.00 Build 0)  -->
<svg version="1.1" id="Capa_1" xmlns="http://www.w3.org/2000/svg" xmlns:xlink="http://www.w3.org/1999/xlink" x="0px" y="0px"
	 viewBox="0 0 14 13" style="enable-background:new 0 0 14 13;" xml:space="preserve">
<style type="text/css">
	.st0{fill-rule:evenodd;clip-rule:evenodd;fill:#0071CE;}
</style>
<g id="Filtros-paginación">
	<g id="PLP-mobile-_x2F_-productos-solo-filtrar-blue" transform="translate(-93.000000, -178.000000)">
		<g id="Group-13_1_" transform="translate(9.000000, 168.000000)">
			<g id="Group-26" transform="translate(84.000000, 6.000000)">
				<g id="Group-13" transform="translate(0.000000, 4.000000)">
					<g id="Group-10" transform="translate(0.050000, 0.900000)">
						<polygon id="Rectangle" class="st0" points="1,0.9 8.7,0.9 8.7,1.7 6.6,1.7 1,1.7 						"/>
						<rect id="Rectangle-Copy-2" x="5.2" y="5" class="st0" width="7.6" height="1"/>
						<g id="Group-6" transform="translate(7.500000, 0.000000)">
							<polygon id="Rectangle_1_" class="st0" points="2.8,0 2.8,2.5 2,2.5 2,0 							"/>
							<rect id="Rectangle-Copy" x="2" y="0.9" class="st0" width="3.4" height="1"/>
						</g>
						<g id="Group-9" transform="translate(4.100000, 8.500000)">
							<polygon id="Rectangle-Copy-6" class="st0" points="2.8,0 2.8,2.5 2,2.5 2,0 							"/>
							<rect id="Rectangle-Copy-7" x="2" y="0.9" class="st0" width="6.8" height="1"/>
						</g>
						<g id="Group-8" transform="translate(0.000000, 4.250000)">
							<polygon id="Rectangle-Copy-3" class="st0" points="3.5,2.5 3.5,0 4.4,0 4.4,2.5 							"/>
							<rect id="Rectangle-Copy-4" x="1" y="0.7" class="st0" width="3.4" height="1"/>
						</g>
						<rect id="Rectangle-Copy-5" x="1" y="9.2" class="st0" width="4.2" height="1"/>
					</g>
				</g>
			</g>
		</g>
	</g>
</g>
</svg>
