<?xml version="1.0" encoding="utf-8"?>
<!-- Generator: Adobe Illustrator 23.0.1, SVG Export Plug-In . SVG Version: 6.00 Build 0)  -->
<svg version="1.1" id="Capa_1" xmlns="http://www.w3.org/2000/svg" xmlns:xlink="http://www.w3.org/1999/xlink" x="0px" y="0px"
	 viewBox="0 0 16.34 18.33" style="enable-background:new 0 0 16.34 18.33;" xml:space="preserve">
<style type="text/css">
	.st0{fill:#FFC223;}
</style>
<path class="st0" d="M1.61,3.92l3.94,2.77c0.11,0.1,0.17,0.24,0.17,0.42c0.01,0.18-0.04,0.37-0.13,0.54
	C5.47,7.84,5.34,7.98,5.17,8.07C5.01,8.16,4.86,8.18,4.72,8.12L0.35,6.09C0.15,5.98,0.03,5.78,0.01,5.48
	c-0.03-0.3,0.05-0.6,0.23-0.9c0.18-0.3,0.4-0.51,0.67-0.64S1.4,3.81,1.61,3.92L1.61,3.92z M0.35,12.22l4.37-2.03
	c0.14-0.05,0.29-0.04,0.45,0.05c0.16,0.09,0.3,0.23,0.41,0.42c0.1,0.18,0.14,0.36,0.13,0.54c-0.01,0.18-0.07,0.32-0.17,0.42
	L1.61,14.4c-0.21,0.12-0.44,0.12-0.71-0.01c-0.27-0.13-0.49-0.35-0.67-0.65c-0.18-0.3-0.25-0.6-0.23-0.89
	C0.03,12.55,0.15,12.35,0.35,12.22L0.35,12.22z M8.17,0C8.51,0,8.8,0.09,9.05,0.26c0.25,0.17,0.37,0.37,0.37,0.6l-0.41,4.8
	C8.98,5.8,8.89,5.92,8.72,6.02S8.37,6.17,8.17,6.17c-0.22,0-0.41-0.05-0.56-0.15C7.45,5.92,7.36,5.8,7.35,5.66l-0.43-4.8
	c0-0.23,0.12-0.43,0.36-0.6C7.51,0.09,7.81,0,8.17,0L8.17,0z M8.17,12.16c0.22,0,0.41,0.05,0.56,0.14c0.16,0.1,0.25,0.21,0.28,0.35
	l0.41,4.8c0,0.25-0.12,0.45-0.37,0.63c-0.25,0.17-0.54,0.26-0.88,0.26c-0.36,0-0.65-0.09-0.89-0.26c-0.24-0.17-0.36-0.38-0.36-0.63
	l0.43-4.8c0.01-0.14,0.1-0.25,0.26-0.35C7.76,12.21,7.95,12.16,8.17,12.16L8.17,12.16z M11.61,10.19l4.37,2.03
	c0.21,0.12,0.32,0.33,0.35,0.63c0.03,0.29-0.05,0.59-0.23,0.89c-0.18,0.3-0.4,0.52-0.67,0.65c-0.27,0.13-0.5,0.13-0.71,0.01
	l-3.94-2.77c-0.11-0.1-0.17-0.24-0.18-0.42c-0.01-0.18,0.03-0.37,0.14-0.54c0.11-0.19,0.25-0.33,0.41-0.42
	C11.33,10.15,11.48,10.14,11.61,10.19L11.61,10.19z M15.98,6.09l-4.37,2.03c-0.14,0.05-0.29,0.04-0.45-0.05
	c-0.16-0.09-0.3-0.23-0.41-0.42c-0.11-0.18-0.16-0.36-0.14-0.54c0.01-0.18,0.07-0.32,0.18-0.42l3.94-2.77
	c0.21-0.11,0.44-0.1,0.71,0.02s0.49,0.34,0.67,0.64c0.18,0.3,0.25,0.6,0.23,0.9C16.3,5.78,16.19,5.98,15.98,6.09L15.98,6.09z"/>
</svg>
