<?xml version="1.0" encoding="utf-8"?>
<!-- Generator: Adobe Illustrator 23.0.6, SVG Export Plug-In . SVG Version: 6.00 Build 0)  -->
<svg version="1.1" id="Capa_1" xmlns="http://www.w3.org/2000/svg" xmlns:xlink="http://www.w3.org/1999/xlink" x="0px" y="0px"
	 viewBox="0 0 1303 851" style="enable-background:new 0 0 1303 851;" xml:space="preserve">
<style type="text/css">
	.st0{fill:url(#SVGID_1_);}
	.st1{fill:#D4D5D6;}
	.st2{fill:#3397C9;}
	.st3{fill:#0071CE;}
	.st4{fill:#FFFFFF;}
	.st5{fill:#FFB71B;}
	.st6{fill:#EA3942;}
	.st7{fill:#0F9247;}
	.st8{fill:#F6D208;}
	.st9{fill:#2C72B3;}
	.st10{fill:#211E1E;}
	.st11{fill:#E86D00;}
	.st12{fill:#DB0A14;}
	.st13{fill:#F3A400;}
	.st14{fill:#46A8CE;}
</style>
<g>
	<g>
		<g>
			<g>
				<linearGradient id="SVGID_1_" gradientUnits="userSpaceOnUse" x1="252.2099" y1="-144.719" x2="1066.6564" y2="1018.4311">
					<stop  offset="0" style="stop-color:#C2D9E9"/>
					<stop  offset="0.2757" style="stop-color:#C2DEF0"/>
					<stop  offset="0.4598" style="stop-color:#C2E5F7"/>
					<stop  offset="0.4625" style="stop-color:#C0E3F6"/>
					<stop  offset="0.5151" style="stop-color:#ACC7D8"/>
					<stop  offset="0.5727" style="stop-color:#9CAFC0"/>
					<stop  offset="0.6378" style="stop-color:#8F9DAD"/>
					<stop  offset="0.7139" style="stop-color:#86909F"/>
					<stop  offset="0.8109" style="stop-color:#818998"/>
					<stop  offset="1" style="stop-color:#808795"/>
				</linearGradient>
				<path class="st0" d="M58.5,851C26.3,851,0,825.1,0,793.3V57.6C0,25.9,26.3,0,58.5,0h1185.9c32.3,0,58.5,25.9,58.5,57.6v735.7
					c0,31.8-26.3,57.6-58.5,57.6H58.5z"/>
				<path class="st1" d="M58.5,843.8c-28.3,0-51.2-22.6-51.2-50.5V57.6c0-27.8,23-50.5,51.2-50.5h1185.9c28.3,0,51.2,22.6,51.2,50.5
					v735.7c0,27.8-23,50.5-51.2,50.5H58.5z"/>
				<path class="st2" d="M950.4,843.8C837.2,461.6,687.9,225.3,475.5,26.4L454,7.2H58.5C30.3,7.2,7.3,29.8,7.3,57.6v735.7
					c0,27.8,23,50.5,51.2,50.5H950.4z"/>
				<path class="st3" d="M816.2,843.8C757.4,507,641.3,224.1,443.7,26.4L422.1,7.2H58.5C30.3,7.2,7.3,29.8,7.3,57.6v735.7
					c0,27.8,23,50.5,51.2,50.5H816.2z"/>
			</g>
			<g>
				<path class="st4" d="M111.3,349.3c0,0-12.1,40.8-20.4,73.7l-3.4,12.8c-1.6,6,2.5,6.2,2.5,6.2h22.8l-5.6,20.5H81.9h0.2
					c0,0-12.1,0.6-17.7-5.2c-5.6-5.8-4.2-12.8-3.8-16.3c0.3-2.7,11.2-43,11.2-43l13.9-48.7H111.3z"/>
				<path class="st4" d="M190,409.4c-4.7,7.1-8.1,20.9-3,29.9c5.3,9.5,23.7,9.6,32.4,3c9.5-7.1,12.7-28.1,16.2-40.9
					C220.7,388.5,198.4,396.8,190,409.4 M272.8,349.2l-18.5,74.1c-11.4,38.2-50.6,39-50.6,39c-22.5,1.7-42-7.3-44.1-27
					c-4.4-41.5,40.9-67.2,80.5-51.4c2.4-11.9,6.8-22.9,9.2-34.8H272.8z"/>
				<path class="st4" d="M310.6,413.4c10.1-0.7,28.1-4,24.8-13.5c-2-5.8-13.7-6.7-20.8-5.5c-11,1.9-19,10-23.3,17.5
					C296.6,413.3,303.5,413.9,310.6,413.4 M286.8,426.4c-4.2,26.6,36.5,22.6,49.6,12.5c-1.5,6.1-1.7,13.3-3,19.5
					c-31.9,9.5-68.2,2.7-71.4-25.5c-3.8-33.9,24.6-51.7,54.2-53.9c16.9-1.2,36.3,1.7,41.5,13.5c3.2,7.1,0.5,16.6-3.5,21.4
					C342.2,428.2,310.1,431.7,286.8,426.4"/>
				<path class="st4" d="M435.7,380.5c0,0-6.4,17.9-6.6,18.5c-6.5-1.9-9.3-5.4-18.2-4.5c-23,2.3-28.4,31-32.8,54.2l-2.2,13.9H352
					c6.5-26.7,13.1-55.6,19.8-82c7.6,0,15.9,0,23.5,0l-1.3,6.5C403.8,380.6,420.3,376.7,435.7,380.5"/>
				<path class="st4" d="M162.5,380.9c-6.1,26.9-13.2,54.5-19.1,81.6h-24.3c5-21.5,10.1-42.9,15.2-64.4l-12.7,0l4.4-17.2H162.5z"/>
				<path class="st4" d="M167.1,359.9c0,8.4-6.9,11.8-15.3,11.8c-8.5,0-15.3-5.3-15.3-11.8c0-6.5,6.9-11.9,15.3-11.9
					C160.2,348,167.1,353.3,167.1,359.9"/>
				<path class="st5" d="M549.9,374.4c4.6,0,8.4-2.4,8.9-5.4l4.6-50.8c0-5-6-9.1-13.5-9.1c-7.5,0-13.5,4.1-13.5,9.1L541,369
					C541.5,372,545.3,374.4,549.9,374.4L549.9,374.4z"/>
				<path class="st5" d="M522,390.3c2.3-3.9,2.1-8.4-0.3-10.3l-42.4-29.3c-4.4-2.5-11,0.5-14.8,6.9c-3.8,6.4-3.1,13.5,1.3,16
					l46.9,21.5C515.8,396.2,519.7,394.2,522,390.3L522,390.3z"/>
				<path class="st5" d="M577.8,390.3c2.3,3.9,6.3,6,9.2,4.9l46.9-21.5c4.4-2.5,5-9.7,1.3-16c-3.8-6.4-10.4-9.4-14.8-6.9L578.1,380
					C575.7,381.9,575.5,386.3,577.8,390.3L577.8,390.3z"/>
				<path class="st5" d="M549.9,437.8c4.6,0,8.4,2.3,8.9,5.4l4.6,50.8c0,5-6,9.2-13.5,9.2c-7.5,0-13.5-4.1-13.5-9.2l4.6-50.8
					C541.5,440.2,545.3,437.8,549.9,437.8L549.9,437.8z"/>
				<path class="st5" d="M577.8,422c2.3-3.9,6.3-6,9.2-4.9l46.9,21.5c4.4,2.5,5,9.7,1.3,16.1c-3.8,6.4-10.4,9.4-14.8,6.9l-42.4-29.3
					C575.7,430.3,575.5,425.9,577.8,422L577.8,422z"/>
				<path class="st5" d="M522,422c2.3,3.9,2.1,8.3-0.3,10.3l-42.4,29.2c-4.4,2.5-11-0.5-14.8-6.9c-3.8-6.4-3.1-13.6,1.3-16.1
					l46.9-21.5C515.8,416,519.7,418,522,422L522,422z"/>
				<g>
					<path class="st5" d="M649.1,455.2c1.2,0,2.4,0.3,3.6,0.9c1.2,0.6,2.1,1.5,2.8,2.7c0.6,1.2,1,2.4,1,3.6c0,1.2-0.3,2.4-1,3.6
						c-0.7,1.2-1.5,2-2.7,2.7c-1.2,0.6-2.4,0.9-3.6,0.9c-1.3,0-2.5-0.3-3.7-0.9c-1.2-0.6-2.1-1.5-2.7-2.7c-0.7-1.2-1-2.4-1-3.6
						c0-1.3,0.3-2.5,1-3.6c0.7-1.2,1.6-2.1,2.8-2.7C646.6,455.5,647.8,455.2,649.1,455.2z M649.1,456.4c-1,0-2,0.2-3,0.8
						c-1,0.5-1.7,1.3-2.3,2.2c-0.5,1-0.8,2-0.8,3c0,1,0.3,2.1,0.8,3c0.6,1,1.3,1.7,2.3,2.2c1,0.5,2,0.8,3.1,0.8c1.1,0,2.1-0.3,3-0.8
						c1-0.5,1.7-1.3,2.3-2.2c0.5-0.9,0.8-1.9,0.8-3c0-1-0.3-2.1-0.8-3c-0.6-1-1.3-1.7-2.3-2.2C651.1,456.7,650.1,456.4,649.1,456.4z
						 M645.9,466.5v-7.8h2.7c0.9,0,1.6,0.1,2,0.2c0.4,0.2,0.7,0.4,1,0.8c0.2,0.3,0.4,0.7,0.4,1.1c0,0.6-0.2,1.1-0.6,1.5
						c-0.4,0.4-1,0.7-1.6,0.7c0.3,0.1,0.5,0.2,0.7,0.4c0.3,0.3,0.7,0.8,1.2,1.6l1,1.5h-1.6l-0.7-1.2c-0.5-1-1-1.6-1.3-1.8
						c-0.2-0.2-0.6-0.3-1-0.3h-0.8v3.3H645.9z M647.1,462.1h1.5c0.7,0,1.2-0.1,1.5-0.3c0.3-0.2,0.4-0.5,0.4-0.9
						c0-0.2-0.1-0.4-0.2-0.6c-0.1-0.2-0.3-0.3-0.5-0.4c-0.2-0.1-0.7-0.1-1.3-0.1h-1.5V462.1z"/>
				</g>
			</g>
			<g>
				<g>
					<g>
						<g>
							<path class="st6" d="M825.2,483.9c0.4,9.7,7.7,17.8,17.4,19.4c1.3,0.2,2.7,0.3,4,0.2c5.5-0.2,10.6-2.5,14.4-6.5
								c3.8-4,5.7-9.2,5.5-14.6c0-14.7,8.5-24.7,20.3-35.9c12.3-8.9,29.7-19.8,54.4-33.3c30.6-16,50.5-35,54.9-50.4l0.1-0.5
								c0.6-2,0.8-4,0.6-5.9c-0.4-9.7-7.7-17.8-17.4-19.4c-1.3-0.2-2.7-0.3-4-0.2c-5.5,0.2-10.6,2.5-14.4,6.5
								c-3.8,4-5.7,9.2-5.5,14.6c0,15.5-9.5,25.7-22.2,37.8c-27.3,21-52.4,31.4-52.4,31.4c-30.6,16-50.5,35-54.9,50.4l-0.1,0.5
								C825.3,480,825.1,482,825.2,483.9z"/>
							<path class="st7" d="M948.5,422c0,0,22.2,5.8,15.3,36.6h0c-0.4,1.6-0.5,3.3-0.4,5.1c0.8,9.1,8.9,15.8,18.1,15.1
								c9.2-0.8,16.1-8.7,15.3-17.8c-1.5-21.4-42.5-47.6-48-46.9c0,0-3.2,0.1-3.3,4.2C945.4,421.4,948.5,422,948.5,422z"/>
							<g>
								<path class="st8" d="M941.6,432.1c0,0,14.5,3.8,10,23.9h0c0,0-4.8,19-35.6,24c-34.9,5.7-34.3-6.9-34.3-6.9
									c-0.3-6.3-2.7-13.8,31.9-34.5C913.7,438.6,931.2,428.1,941.6,432.1z"/>
							</g>
						</g>
						<path class="st9" d="M857.6,339c2,27.4,41.8,60.2,65.6,72.9c6.5,3.5,14.5,2.7,16.8,1.8c10.9-4.9-0.8-9.1-0.8-9.1
							s-37.6-9.8-25.8-61.8l0,0c0.6-2.7,0.9-5.6,0.6-8.6c-1.3-15.3-15-26.7-30.6-25.4C867.9,310.1,856.3,323.6,857.6,339z"/>
					</g>
					<path class="st10" d="M1235.8,489h26.4V376.6h-26.4V489z M1248.9,364.7c8,0,14.5-6.4,14.5-14.3c0-7.9-6.5-14.3-14.5-14.3
						s-14.5,6.4-14.5,14.3C1234.4,358.3,1240.9,364.7,1248.9,364.7z M1115.1,445.2c0-13-4.7-25.6-15.5-32.9c7.5-7.6,11-17.2,11-27.1
						c0-22.7-12.2-41.5-48.6-41.5h-51.5V489h52.5C1101.7,489,1115.1,469.7,1115.1,445.2z M1037,369.5h25.6
						c16.5,0,19.3,7.8,19.3,15.7c0,7.8-3.3,15.9-17.7,15.9H1037V369.5z M1037,426.8h27.2c16.3,0,22.4,5.8,22.4,18.4
						c0,8.9-3.9,18-22.8,18H1037V426.8z M1181.6,465.7c-16.9,0-30.6-14.3-30.6-31.8v-0.4c0-17.6,13.3-31.4,30.3-31.4
						c8.9,0,16.1,3.3,23.6,10.8l18.1-18.9c-8.9-8.6-21.5-17.5-41.6-17.5c-31.5,0-57.1,25.6-57.1,57.1v0.4
						c0,31.5,25.5,57.1,56.9,57.1c15.8,0,29.3-5.5,40.9-16.9l-18.7-17.9C1196.5,462.8,1189.6,465.7,1181.6,465.7z"/>
				</g>
			</g>
			<g>
				<g id="XMLID_48_">
					<rect x="1099.6" y="661.2" class="st11" width="58.7" height="103.9"/>
					<path id="XMLID_52_" class="st12" d="M1103.3,713.2c0-21.1,10-39.8,25.6-52c-11.4-8.8-25.8-14.1-41.4-14.1
						c-37,0-67.1,29.6-67.1,66.1c0,36.5,30,66.1,67.1,66.1c15.6,0,30-5.3,41.4-14.1C1113.3,753,1103.3,734.3,1103.3,713.2z"/>
					<path d="M1231,754.1V752h0.9v-0.4h-2.2v0.4h0.9v2.1H1231z M1235.3,754.1v-2.6h-0.7l-0.8,1.8l-0.8-1.8h-0.7v2.6h0.5v-1.9
						l0.7,1.7h0.5l0.7-1.7v1.9H1235.3z"/>
					<path class="st13" d="M1237.4,713.2c0,36.5-30,66.1-67.1,66.1c-15.6,0-30-5.3-41.4-14.1c15.6-12.1,25.6-30.9,25.6-52
						c0-21.1-10-39.8-25.6-52c11.4-8.8,25.8-14.1,41.4-14.1C1207.4,647.1,1237.4,676.7,1237.4,713.2z"/>
				</g>
				<path id="XMLID_27_" d="M1059.9,812.5v-11c0-4.1-2.7-6.9-7-7c-2.3,0-4.6,0.7-6.3,3.1c-1.2-1.9-3.2-3.1-5.9-3.1
					c-1.9,0-3.8,0.6-5.2,2.6v-2.2h-3.9v17.6h3.9v-9.7c0-3,1.7-4.7,4.4-4.7c2.6,0,3.9,1.6,3.9,4.6v9.8h3.9v-9.7c0-3,1.8-4.7,4.4-4.7
					c2.6,0,3.9,1.6,3.9,4.6v9.8H1059.9z M1117.8,794.9h-6.3v-5.3h-3.9v5.3h-3.6v3.5h3.6v8c0,4.1,1.6,6.5,6.2,6.5
					c1.7,0,3.6-0.5,4.8-1.4l-1.1-3.3c-1.2,0.7-2.4,1-3.4,1c-1.9,0-2.6-1.2-2.6-2.9v-7.9h6.3V794.9z M1150.8,794.5
					c-2.2,0-3.7,1-4.7,2.6v-2.1h-3.8v17.6h3.9v-9.8c0-2.9,1.3-4.5,3.8-4.5c0.8,0,1.6,0.1,2.4,0.4l1.2-3.6
					C1152.7,794.6,1151.6,794.5,1150.8,794.5L1150.8,794.5z M1100.8,796.3c-1.9-1.2-4.4-1.8-7.3-1.8c-4.5,0-7.4,2.1-7.4,5.6
					c0,2.9,2.2,4.6,6.1,5.2l1.8,0.3c2.1,0.3,3.1,0.8,3.1,1.8c0,1.4-1.4,2.1-4.1,2.1c-2.7,0-4.6-0.8-5.9-1.8l-1.8,3
					c2.1,1.5,4.8,2.3,7.7,2.3c5.1,0,8.1-2.4,8.1-5.7c0-3.1-2.3-4.7-6.2-5.2l-1.8-0.3c-1.7-0.2-3-0.5-3-1.7c0-1.3,1.3-2.1,3.4-2.1
					c2.3,0,4.5,0.8,5.6,1.5L1100.8,796.3z M1204.6,794.5c-2.2,0-3.7,1-4.7,2.6v-2.1h-3.8v17.6h3.9v-9.8c0-2.9,1.3-4.5,3.8-4.5
					c0.8,0,1.6,0.1,2.4,0.4l1.2-3.6C1206.5,794.6,1205.4,794.5,1204.6,794.5L1204.6,794.5z M1154.7,803.7c0,5.3,3.8,9.2,9.5,9.2
					c2.7,0,4.5-0.6,6.4-2.1l-1.9-3.1c-1.5,1-3,1.6-4.7,1.6c-3.1,0-5.4-2.2-5.4-5.6c0-3.4,2.3-5.6,5.4-5.6c1.7,0,3.2,0.5,4.7,1.6
					l1.9-3.1c-1.9-1.5-3.7-2.1-6.4-2.1C1158.5,794.5,1154.7,798.4,1154.7,803.7L1154.7,803.7z M1191,803.7v-8.8h-3.9v2.1
					c-1.2-1.6-3.1-2.6-5.6-2.6c-5,0-8.9,3.9-8.9,9.2c0,5.4,3.9,9.2,8.9,9.2c2.5,0,4.4-1,5.6-2.6v2.1h3.9V803.7z M1176.6,803.7
					c0-3.1,2.1-5.6,5.4-5.6c3.2,0,5.4,2.4,5.4,5.6c0,3.2-2.2,5.6-5.4,5.6C1178.6,809.3,1176.6,806.8,1176.6,803.7L1176.6,803.7z
					 M1129.8,794.5c-5.2,0-8.9,3.7-8.9,9.2c0,5.6,3.8,9.2,9.1,9.2c2.7,0,5.1-0.7,7.3-2.5l-1.9-2.8c-1.5,1.2-3.4,1.8-5.2,1.8
					c-2.5,0-4.8-1.1-5.3-4.3h13.2c0-0.5,0.1-1,0.1-1.5C1138.2,798.2,1134.8,794.5,1129.8,794.5L1129.8,794.5z M1129.8,797.9
					c2.5,0,4.1,1.5,4.5,4.3h-9.2C1125.4,799.6,1127,797.9,1129.8,797.9L1129.8,797.9z M1227,803.7v-15.8h-3.9v9.2
					c-1.2-1.6-3.1-2.6-5.6-2.6c-5,0-8.9,3.9-8.9,9.2c0,5.4,3.9,9.2,8.9,9.2c2.5,0,4.4-1,5.6-2.6v2.1h3.9V803.7z M1212.5,803.7
					c0-3.1,2-5.6,5.4-5.6c3.2,0,5.4,2.4,5.4,5.6c0,3.2-2.2,5.6-5.4,5.6C1214.6,809.3,1212.5,806.8,1212.5,803.7L1212.5,803.7z
					 M1081.7,803.7v-8.8h-3.9v2.1c-1.2-1.6-3.1-2.6-5.6-2.6c-5,0-8.9,3.9-8.9,9.2c0,5.4,3.9,9.2,8.9,9.2c2.5,0,4.4-1,5.6-2.6v2.1
					h3.9V803.7z M1067.3,803.7c0-3.1,2-5.6,5.4-5.6c3.2,0,5.4,2.4,5.4,5.6c0,3.2-2.2,5.6-5.4,5.6
					C1069.3,809.3,1067.3,806.8,1067.3,803.7z M1233.4,809.9c0.2,0,0.5,0,0.7,0.1c0.2,0.1,0.4,0.2,0.6,0.4c0.2,0.2,0.3,0.3,0.4,0.6
					c0.1,0.2,0.1,0.4,0.1,0.7c0,0.2,0,0.5-0.1,0.7c-0.1,0.2-0.2,0.4-0.4,0.6c-0.2,0.2-0.4,0.3-0.6,0.4c-0.2,0.1-0.5,0.1-0.7,0.1
					c-0.3,0-0.5,0-0.7-0.1c-0.2-0.1-0.4-0.2-0.6-0.4c-0.2-0.2-0.3-0.3-0.4-0.6c-0.1-0.2-0.1-0.4-0.1-0.7c0-0.2,0-0.5,0.1-0.7
					c0.1-0.2,0.2-0.4,0.4-0.6c0.2-0.2,0.4-0.3,0.6-0.4C1232.9,810,1233.2,809.9,1233.4,809.9z M1233.4,813c0.2,0,0.4,0,0.5-0.1
					c0.2-0.1,0.3-0.2,0.4-0.3c0.1-0.1,0.2-0.3,0.3-0.4c0.1-0.2,0.1-0.3,0.1-0.5c0-0.2,0-0.4-0.1-0.5c-0.1-0.2-0.2-0.3-0.3-0.4
					c-0.1-0.1-0.3-0.2-0.4-0.3c-0.2-0.1-0.3-0.1-0.5-0.1c-0.2,0-0.4,0-0.5,0.1c-0.2,0.1-0.3,0.2-0.4,0.3c-0.1,0.1-0.2,0.3-0.3,0.4
					c-0.1,0.2-0.1,0.3-0.1,0.5c0,0.2,0,0.4,0.1,0.5c0.1,0.2,0.2,0.3,0.3,0.4c0.1,0.1,0.3,0.2,0.4,0.3
					C1233,813,1233.2,813,1233.4,813z M1233.5,810.9c0.2,0,0.4,0.1,0.5,0.1c0.1,0.1,0.2,0.2,0.2,0.4c0,0.1,0,0.2-0.1,0.3
					c-0.1,0.1-0.2,0.1-0.4,0.2l0.5,0.6h-0.4l-0.5-0.6h-0.2v0.6h-0.4v-1.6H1233.5z M1233.1,811.2v0.4h0.4c0.1,0,0.2,0,0.2-0.1
					c0.1,0,0.1-0.1,0.1-0.2c0-0.1,0-0.1-0.1-0.2c-0.1,0-0.1-0.1-0.2-0.1H1233.1z"/>
			</g>
		</g>
	</g>
	<g id="FeC1I1_1_">
		<g>
			<path class="st14" d="M134,186.1c0,22.2,0,44.4,0,66.5c0,1,0.3,1.2,1.2,1.2c10.7,0,21.5,0,32.2,0c3.5,0,6.9,0,10.4,0
				c0.6,0,1-0.2,0.9-0.9c0-0.2,0-0.4,0-0.6c0-33.1,0-66.1,0-99.2c0-1.5,0-1.5,1.5-1.5c5.7,0,11.5,0,17.2,0c6.8,0,13.6,0,20.5,0
				c3.9,0,7.7,0,11.6,0c0.6,0,1,0,1-0.8c-0.1-3.1,0.1-6.1-0.4-9.2c-0.9-5.9-3.4-11-7.6-15.2c-5.4-5.4-12-8.1-19.6-8.1
				c-22.6,0-45.1,0-67.7,0c-1,0-1.2,0.3-1.2,1.3C134,141.8,134,164,134,186.1z M104.5,220.3c-5,0-9.9,0-14.9,0c-2.5,0-5,0-7.4,0
				c-0.5,0-0.9,0-0.9,0.7c0.1,3.1-0.2,6.2,0.3,9.3c1,6.6,4,12.3,9,16.7c4.5,3.9,9.7,6.3,15.6,6.7c6.8,0.4,13.7,0.1,20.6,0.2
				c0.8,0,1-0.2,1-1c0-10.5,0-20.9,0-31.4c0-0.9-0.2-1.1-1.1-1.1C119.2,220.4,111.8,220.3,104.5,220.3z M127.7,135.2
				C127.7,135.2,127.7,135.2,127.7,135.2c0-5.2,0-10.4,0-15.6c0-0.8-0.2-1.1-1.1-1.1c-5.9,0-11.8,0-17.7,0c-2.8,0-5.5,0.4-8.1,1.2
				c-7.5,2.3-13,7-16.6,13.9c-1.2,2.3-2.1,4.7-2.5,7.3c-0.5,3.1-0.4,6.3-0.4,9.5c0,1.3,0,1.3,1.3,1.3c5.8,0,11.6,0,17.5,0
				c8.8,0,17.7,0,26.5,0c0.7,0,1.2,0,1.1-0.9C127.7,145.6,127.7,140.4,127.7,135.2z M207.8,220.3c-6.7,0-13.4,0-20,0
				c-2.7,0-2.7,0-2.7,2.6c0,9.9,0,19.8,0,29.7c0,0.7,0.1,1.2,1,1.2c5.5,0,11,0,16.5,0c2.6,0,5.2-0.2,7.7-1c5.3-1.5,9.7-4.2,13.4-8.3
				c3.2-3.7,5.3-7.9,6.3-12.7c0.7-3.6,0.5-7.3,0.6-10.9c0-0.7-0.4-0.7-0.9-0.7C222.3,220.3,215.1,220.3,207.8,220.3z M104.4,183
				C104.4,183,104.4,183,104.4,183c7.4,0,14.7,0,22.1,0c0.9,0,1.2-0.2,1.2-1.2c-0.1-2.4,0-4.9,0-7.3c0-5.1,0-10.2,0-15.3
				c0-0.7,0-1.2-1-1.1c-5,0-10,0-15,0c-9.8,0-19.6,0-29.4,0c-0.9,0-1.1,0.3-1.1,1.1c0,7.6,0,15.2,0,22.8c0,0.8,0.2,1,1,1
				C89.6,183,97,183,104.4,183z M104.4,189.3c-7.4,0-14.7,0-22.1,0c-0.8,0-1.1,0.2-1.1,1.1c0,7.3,0,14.5,0,21.8c0,1.8,0,1.8,1.8,1.8
				c14.5,0,28.9,0,43.4,0c1,0,1.3-0.2,1.3-1.3c0-7.4,0-14.7,0-22.1c0-1.1-0.3-1.2-1.3-1.2C119.1,189.4,111.8,189.3,104.4,189.3z
				 M208.2,183c7.1,0,14.1,0,21.2,0c0.8,0,1.1-0.1,1.1-1c0-7.6,0-15.3,0-22.9c0-0.7-0.2-1-1-1c-13.2,0-26.4,0-39.6,0
				c-1.1,0-2.2,0-3.3,0c-1.4-0.1-1.4-0.1-1.5,1.2c0,7.6,0,15.2,0,22.7c0,0.9,0.2,1.2,1.2,1.1c0.6-0.1,1.2-0.1,1.9-0.1
				C194.8,183,201.5,183,208.2,183z M207.8,189.3c-7.1,0-14.3,0-21.4,0c-1.3,0-1.3,0-1.3,1.3c0,7.3,0,14.7,0,22
				c0,1.1,0.4,1.3,1.4,1.3c14.3,0,28.7,0,43,0c0.9,0,1.1-0.3,1.1-1.1c0-7.5,0-14.9,0-22.4c0-1-0.3-1.1-1.2-1.1
				C222.1,189.4,214.9,189.3,207.8,189.3z"/>
			<path class="st14" d="M134,186.1c0-22.1,0-44.3,0-66.4c0-1,0.2-1.3,1.2-1.3c22.6,0,45.1,0,67.7,0c7.6,0,14.2,2.7,19.6,8.1
				c4.2,4.2,6.8,9.3,7.6,15.2c0.4,3.1,0.3,6.1,0.4,9.2c0,0.8-0.4,0.8-1,0.8c-3.9,0-7.7,0-11.6,0c-6.8,0-13.6,0-20.5,0
				c-5.7,0-11.5,0-17.2,0c-1.5,0-1.5,0-1.5,1.5c0,33.1,0,66.1,0,99.2c0,0.2,0,0.4,0,0.6c0.1,0.7-0.3,0.9-0.9,0.9
				c-3.5,0-6.9,0-10.4,0c-10.7,0-21.5,0-32.2,0c-0.9,0-1.2-0.2-1.2-1.2C134,230.5,134,208.3,134,186.1z"/>
			<path class="st14" d="M104.5,220.3c7.4,0,14.7,0,22.1,0c0.9,0,1.1,0.2,1.1,1.1c0,10.5,0,20.9,0,31.4c0,0.8-0.2,1-1,1
				c-6.9-0.1-13.7,0.3-20.6-0.2c-5.9-0.4-11.2-2.8-15.6-6.7c-5-4.5-8-10.1-9-16.7c-0.5-3.1-0.2-6.2-0.3-9.3c0-0.7,0.4-0.7,0.9-0.7
				c2.5,0,5,0,7.4,0C94.6,220.3,99.5,220.3,104.5,220.3z"/>
			<path class="st14" d="M127.7,135.2c0,5.2,0,10.4,0,15.6c0,1-0.5,0.9-1.1,0.9c-8.8,0-17.7,0-26.5,0c-5.8,0-11.6,0-17.5,0
				c-1.3,0-1.3,0-1.3-1.3c0-3.2-0.1-6.3,0.4-9.5c0.4-2.6,1.3-5,2.5-7.3c3.6-6.9,9.1-11.6,16.6-13.9c2.7-0.8,5.4-1.2,8.1-1.2
				c5.9,0,11.8,0,17.7,0c0.9,0,1.1,0.3,1.1,1.1C127.7,124.8,127.7,130,127.7,135.2C127.7,135.2,127.7,135.2,127.7,135.2z"/>
			<path class="st14" d="M207.8,220.3c7.3,0,14.5,0,21.8,0c0.5,0,0.9,0,0.9,0.7c0,3.6,0.2,7.3-0.6,10.9c-1,4.8-3.1,9-6.3,12.7
				c-3.6,4.1-8.1,6.8-13.4,8.3c-2.5,0.7-5.1,0.9-7.7,1c-5.5,0-11,0-16.5,0c-0.9,0-1-0.4-1-1.2c0-9.9,0-19.8,0-29.7
				c0-2.6,0-2.6,2.7-2.6C194.4,220.3,201.1,220.3,207.8,220.3z"/>
			<path class="st14" d="M104.4,183c-7.4,0-14.8,0-22.2,0c-0.8,0-1-0.3-1-1c0-7.6,0-15.2,0-22.8c0-0.9,0.2-1.1,1.1-1.1
				c9.8,0,19.6,0,29.4,0c5,0,10,0.1,15,0c0.9,0,1,0.5,1,1.1c0,5.1,0,10.2,0,15.3c0,2.4,0,4.9,0,7.3c0,0.9-0.3,1.2-1.2,1.2
				C119.2,182.9,111.8,183,104.4,183C104.4,183,104.4,183,104.4,183z"/>
			<path class="st14" d="M104.4,189.3c7.3,0,14.7,0,22,0c1,0,1.3,0.2,1.3,1.2c0,7.4-0.1,14.7,0,22.1c0,1.1-0.3,1.3-1.3,1.3
				c-14.5,0-28.9,0-43.4,0c-1.8,0-1.8,0-1.8-1.8c0-7.3,0-14.5,0-21.8c0-0.9,0.3-1.1,1.1-1.1C89.7,189.4,97.1,189.3,104.4,189.3z"/>
			<path class="st14" d="M208.2,183c-6.7,0-13.4,0-20.1,0c-0.6,0-1.2,0-1.9,0.1c-0.9,0.2-1.2-0.2-1.2-1.1c0-7.6,0-15.2,0-22.7
				c0-1.3,0.1-1.3,1.5-1.2c1.1,0.1,2.2,0,3.3,0c13.2,0,26.4,0,39.6,0c0.8,0,1,0.3,1,1c0,7.6,0,15.3,0,22.9c0,0.9-0.3,1-1.1,1
				C222.3,183,215.2,183,208.2,183z"/>
			<path class="st14" d="M207.8,189.3c7.2,0,14.3,0,21.5,0c0.9,0,1.2,0.1,1.2,1.1c0,7.5,0,14.9,0,22.4c0,0.8-0.2,1.1-1.1,1.1
				c-14.3,0-28.7,0-43,0c-1,0-1.4-0.2-1.4-1.3c0.1-7.3,0-14.7,0-22c0-1.3,0-1.3,1.3-1.3C193.5,189.4,200.6,189.3,207.8,189.3z"/>
		</g>
	</g>
	<g>
		<g>
			<path class="st14" d="M256.9,161.6c1.2,0,2.4,0.4,3.4,1.2c7.3,6.2,11.4,15.3,11.4,24.9c0,10.2-4.7,19.7-12.8,25.9
				c-2.3,1.8-5.5,1.3-7.3-0.9c-1.8-2.3-1.3-5.5,0.9-7.3c5.5-4.3,8.7-10.7,8.7-17.7c0-6.5-2.8-12.7-7.8-17c-2.2-1.9-2.4-5.1-0.6-7.3
				C254,162.2,255.4,161.6,256.9,161.6z"/>
		</g>
		<g>
			<path class="st14" d="M276.1,150c1.4,0,2.7,0.5,3.7,1.6c9.5,9.7,14.7,22.6,14.7,36.1c0,13.5-5.2,26.3-14.5,36
				c-2,2.1-5.3,2.1-7.3,0.1c-2.1-2-2.1-5.3-0.1-7.3c7.5-7.8,11.6-18,11.6-28.8c0-10.9-4.2-21.1-11.7-28.9c-2-2.1-2-5.3,0.1-7.3
				C273.5,150.4,274.8,150,276.1,150z"/>
		</g>
		<g>
			<path class="st14" d="M293.6,136.8c1.4,0,2.8,0.6,3.9,1.7c12.1,13.5,18.8,31,18.8,49.1c0,17.4-6.2,34.2-17.4,47.5
				c-1.8,2.2-5.1,2.5-7.3,0.6c-2.2-1.9-2.5-5.1-0.6-7.3c9.6-11.4,14.9-25.9,14.9-40.8c0-15.6-5.7-30.6-16.1-42.2
				c-1.9-2.1-1.7-5.4,0.4-7.3C291.2,137.3,292.4,136.8,293.6,136.8z"/>
		</g>
	</g>
</g>
</svg>
