<?xml version="1.0" encoding="utf-8"?>
<!-- Generator: Adobe Illustrator 25.4.1, SVG Export Plug-In . SVG Version: 6.00 Build 0)  -->
<svg version="1.1" id="Capa_1" xmlns="http://www.w3.org/2000/svg" xmlns:xlink="http://www.w3.org/1999/xlink" x="0px" y="0px"
	 viewBox="0 0 206.4 31" style="enable-background:new 0 0 206.4 31;" xml:space="preserve">
<style type="text/css">
	.st0{fill-rule:evenodd;clip-rule:evenodd;fill:#041E42;}
	.st1{fill:#FFFFFF;}
	.st2{font-family:'Bogle-Black';}
	.st3{font-size:15px;}
	.st4{fill:#FCC400;}
	.st5{fill:#EA244F;}
</style>
<path id="Rectangle_00000176004227432841569540000014686257030224030600_" class="st0" d="M16.2,0h174.7c8.6,0,15.5,6.9,15.5,15.5
	l0,0c0,8.6-6.9,15.5-15.5,15.5H16.2C7.6,31,0.7,24.1,0.7,15.5l0,0C0.7,6.9,7.6,0,16.2,0z"/>
<g>
	<text transform="matrix(1 0 0 1 19.4249 20.5086)" class="st1 st2 st3">Siempre hay ganas de</text>
	<g>
		<path class="st4" d="M185.2,10.2c0-0.2,0.1-0.4,0.3-0.4l2.9-0.3c0.2,0,0.5,0.3,0.5,0.7c0,0.4-0.2,0.9-0.4,0.9l-2.9-0.2
			C185.4,10.6,185.2,10.4,185.2,10.2L185.2,10.2z"/>
		<path class="st4" d="M184.3,8.6c-0.2-0.1-0.3-0.3-0.3-0.4l1.2-2.7c0.1-0.2,0.5-0.3,1-0.1c0.3,0.2,0.5,0.5,0.4,0.9l-1.6,2.5
			C184.7,8.7,184.5,8.8,184.3,8.6L184.3,8.6z"/>
		<path class="st4" d="M184.4,11.7c0.2-0.1,0.4-0.1,0.5,0l1.7,2.4c0.1,0.2,0,0.5-0.3,0.9c-0.3,0.3-0.9,0.2-1,0l-1.3-2.6
			C184.1,12,184.2,11.9,184.4,11.7L184.4,11.7z"/>
		<path class="st5" d="M172.3,4.9h0.1H172.3c0.1,0.1,0.1,0.2,0.2,0.2l0,0c0,0.1,0,0.1,0,0.1v0.2v0.1l0,0l0.1,0.1v0.1v0.1l0,0v0.2
			v0.1v0.1v0.1v0.1v0.1v0.1l-0.1,0.9v0.1l0,0v0.1l-0.1,0.9v0.1c0,0,0,0.1-0.1,0.3v0.1v0.4v0.5h0.1v0.2c0,0-0.1,0-0.1,0.1l0,0v0.2
			v1.2c0,0.1,0,0.1,0,0.1v0.1v0.4c0,0.1,0,0.1,0,0.1v0.1v0.1V13l0,0c0,0.1,0,0.1,0,0.1l0,0c0,0.3,0,0.4-0.1,0.5v0.1v0.3v0.1
			c0,0,0.1,0,0.1,0.1h-0.1l0.1,0.3c0,0-0.1,0-0.1,0.1v0.2c0,0.1,0,0.1,0,0.1v0.1v0.2c0,0,0,0.1,0.1,0.1v0.2v0.1l0,0
			c0,0.3,0.1,0.9,0.1,1.3v0.1l0,0c0,0.1,0.1,0.2,0.1,0.5c0,0.1,0,0.2,0,0.3h0.1c0,0.1,0,0.2,0,0.2v0.1v0.1h0.1l-0.1,0.2
			c0,0.2,0.1,0.2,0.2,0.2l0,0h-0.1v0.3c0,0,0,0.1,0.1,0.1c-0.1,0.1-0.1,0.1-0.1,0.2c0,0.2,0.1,0.4,0.1,0.5v0.1l0,0l0,0v0.2v0.3
			c0,0.1,0,0.3,0,0.5v0.1v0.1c0,0.1,0,0.2-0.1,0.5c0,0.1,0.1,0.2,0.1,0.3h-0.1l0,0v0.2v0.7l0,0c0,0.3,0.1,0.5,0.2,0.5V24
			c-0.2,0.1-0.3,0.1-0.3,0.2v0.1c0.1,0.2,0.2,0.3,0.2,0.3l0,0l0,0v0.2h0.1l0,0V25c-0.1,0-0.2,0-0.2,0.1l0,0c-0.1,0-0.2,0-0.2,0.1
			h-0.1l0,0v-0.1h-0.1l0,0c0-0.1-0.2-0.2-0.5-0.2h-0.2V25c-0.1,0-0.1,0-0.1-0.1h-0.1l0,0c-0.1,0-0.1,0-0.1,0.1H171h-0.1v0.1l0,0
			c0,0-0.1,0-0.4-0.1v0.1h-0.1V25c0,0-0.1,0-0.3,0.1c0,0,0-0.1-0.1-0.1v0.1c-0.1,0-0.2-0.1-0.3-0.1c0,0-0.1,0.1-0.2,0.1l0,0l0,0h0.1
			V25h-0.1v0.1l0,0V25l0,0c-0.2,0-0.3,0-0.4-0.1h-0.2V25h0.1v0.1l0,0h-0.1c-0.1,0.2-0.3,0.2-0.5,0.2c-0.1,0-0.2-0.1-0.3-0.1v-0.1
			c0-0.1,0-0.3-0.1-0.4h0.1v-0.2h-0.1l0,0l0.1-0.1h-0.1c0-0.1,0.1-0.1,0.1-0.2V24l0,0v-0.1l0.1-0.2c-0.1,0-0.1-0.1-0.1-0.1l0,0
			c0.1-0.1,0.2-0.2,0.2-0.5v-0.1c0,0,0-0.1,0.1-0.1v-0.1v-0.1l0,0l-0.4-1.5h0.1v-0.2v-0.1c0-0.1,0-0.1,0-0.1s-0.1-0.3-0.1-1l0,0
			c0-0.1,0-0.2-0.1-0.5V19v-0.1v-0.1v-0.2l0,0v-0.1v-0.1v-0.1v-0.1c0,0,0-0.1-0.1-0.3v-0.1c0-0.1,0-0.1-0.1-0.1v-0.1l0,0h0.1l0,0
			c0-0.2,0-0.2-0.1-0.2v-0.2v-0.3v-0.2c0-0.2,0-0.3,0-0.5v-0.2c-0.1,0-0.1,0-0.1-0.1h0.1c0-0.2,0-0.3-0.1-0.4h0.1v-0.1
			c0-0.1,0-0.2,0-0.3v-0.1c0-0.1-0.1-0.2-0.1-0.4s0-0.2,0.1-0.2l0,0v-0.2v-0.1h0.1l0,0l-0.1-0.1h0.1c0-0.1,0-0.1,0-0.1l0,0
			c0-0.4-0.1-1-0.1-1.4c0,0-0.1,0-0.1-0.1h0.1v-0.5c0-0.1,0-0.1,0-0.1c0-0.1,0-0.1,0.1-0.1l-0.1-0.1h0.1l0,0v-0.4l0,0h0.1v-0.3
			c-0.1,0.1-0.2,0.1-0.2,0.1v0.1c-0.1,0-0.2,0.1-0.2,0.2l-0.1,0.2v0.1H167c-0.1,0.1-0.1,0.2-0.1,0.2h-0.2c-0.2-0.1-0.3-0.2-0.3-0.4
			l-0.5-1c0,0-0.1-0.1-0.2-0.2l0,0h-0.1v0.4h0.1l0,0l-0.3-0.4c0-0.1-0.1-0.1-0.1-0.1c-0.1,0-0.1,0.1-0.2,0.1l0,0V9.4V9.2
			c0.1,0,0.2-0.2,0.5-0.5l0,0c-0.1,0-0.1,0-0.1-0.1l0,0h0.1c0.1-0.3,0.2-0.4,0.3-0.4c0-0.1,0.1-0.2,0.2-0.4c0,0,0.1-0.2,0.3-0.5
			c0-0.1,0.1-0.3,0.2-0.4V6.3l0.1,0.1c0,0,0-0.1,0.1-0.2l0,0c0,0,0.1,0,0.1-0.1c0,0,0.1-0.1,0.3-0.4V5.6c0-0.1,0.1-0.1,0.2-0.2
			c0.1,0,0.3,0,0.9,0.1V5.3l0.1,0.1h0.1c0,0,0,0.1,0.1,0.1h0.3c0.1,0,0.1,0,0.1-0.1h0.1c0.2,0,0.4,0,0.5,0l0,0h0.2
			c0,0,0.1,0,0.3-0.1h0.1c0.1,0,0.3-0.1,0.9-0.1V5.1h0.2h0.1h0.1h0.2h0.1L172.3,4.9z M168.1,8.5L168.1,8.5L168.1,8.5
			c0.1,0.1,0.1,0.1,0,0.1v0.1v0.1c0,0-0.1,0-0.1,0.1l0,0l0,0L168.1,8.5L168.1,8.5z M168.1,7.7C168.1,7.7,168.2,7.8,168.1,7.7
			l0.1,0.4l0,0L168.1,7.7L168.1,7.7z"/>
		<g>
			<path class="st5" d="M178.4,13.9h0.1l0,0c0,0,0.1,0,0.2,0v-0.1L178.4,13.9L178.4,13.9z"/>
			<path class="st5" d="M179,13.7h0.1h0.1c0,0,0-0.1,0.1-0.1v-0.1l0,0L179,13.7C179,13.6,178.9,13.6,179,13.7c-0.1-0.1-0.1,0-0.2,0
				l0,0C178.8,13.7,178.9,13.7,179,13.7L179,13.7z"/>
			<path class="st5" d="M184,21.6h0.1l-0.1-0.2v-0.1c0-0.1,0-0.1,0-0.3v-0.2v-0.1l0,0v-0.1c0-0.1,0-0.1,0-0.1s-0.1-0.4-0.2-1.3h0.1
				l0,0c0,0-0.1-0.1-0.1-0.3l0,0l-0.1-0.5l0,0l0,0c0,0-0.1-0.1-0.1-0.3l0,0c0,0,0-0.1-0.1-0.1v-0.1l-0.1-0.2v-0.1l-0.1-0.2v-0.3
				c0,0,0-0.1-0.1-0.1v-0.1c0,0-0.1,0-0.1-0.1l-0.2-0.5c0-0.1-0.1-0.1-0.2-0.2v-0.1v-0.1h-0.1l0,0c-0.1-0.2-0.1-0.3-0.1-0.3
				c-0.2-0.1-0.4-0.3-0.8-0.5l0,0l0.1-0.1h-0.1v-0.1h0.2h0.1l0,0l-0.1-0.1l0,0h0.1c0,0,0.1,0,0.1-0.1h0.1h0.1c0.1,0,0.2,0,0.2-0.1
				c0-0.1,0.1-0.1,0.1-0.1l0,0c0.1-0.3,0.2-0.5,0.2-0.5l0,0c0.1-0.2,0.1-0.3,0.2-0.3V13h-0.1l0,0c0-0.1,0.1-0.2,0.1-0.3
				c0.1-0.4,0.1-0.7,0.1-0.7l0,0v-0.4c0,0,0.1-0.1,0.1-0.3v-0.1c0,0,0.1-0.1,0.1-0.3v-0.1c0,0,0.1-0.1,0.1-0.2l0,0l0.1-0.1v-0.2V10
				c0-0.1,0-0.3,0-0.5V9.2c0,0-0.1-0.1-0.1-0.2l0,0c0-0.1,0-0.1,0-0.1V8.8c-0.1-0.2-0.1-0.3-0.1-0.3V8.4c-0.1-0.4-0.2-0.9-0.3-1.1
				V7.2h-0.1c-0.1-0.4-0.3-0.7-0.4-0.9V6.2c-0.1,0-0.2-0.1-0.2-0.2c-0.9-0.7-1.4-1.1-1.7-1.2l0,0V4.7h-0.1l0,0V4.6h-0.1h-0.1l0,0
				c-0.1,0-0.2,0-0.2-0.1h-0.1c-0.2-0.1-0.3-0.1-0.3-0.2h-0.1c-0.1,0-0.1,0-0.1,0h-0.1h-0.1c-0.1,0-0.1,0-0.1,0l-0.5,0.2l0,0l0,0
				h-0.2h-0.1h-0.1l0,0H178v0.1h-0.1c-0.5,0-1,0.1-1.2,0.3l0,0l0,0c0,0.1-0.1,0.1-0.1,0.1c-0.2,0.1-0.3,0.2-0.3,0.3h-0.1
				c0,0.1,0,0.1-0.1,0.1c-0.1,0.2-0.3,0.3-0.3,0.3c0,0.2-0.1,0.3-0.1,0.3c-0.1,0.1-0.1,0.2-0.2,0.2v0.1c-0.2,0.3-0.4,0.4-0.4,0.4
				l0,0c-0.1,0.2-0.1,0.3-0.2,0.3v0.1v0.2c0,0.1,0,0.2-0.1,0.2c-0.1,0.3-0.1,0.4-0.2,0.4v0.1l0,0h-0.1l0,0c0,0.1,0,0.3,0,0.5h-0.1
				l0,0h0.1v0.1c0,0,0,0.1-0.1,0.1v0.1c0,0.1,0,0.1-0.1,0.1l0.1,0.1v0.2h-0.1l0,0h0.1l-0.1,0.4l0,0c-0.1,0-0.1,0-0.1,0.1
				c0.1,0,0.1,0,0.1,0.1c0,0-0.1,0.3-0.1,1c0,0,0.1,0.1,0.1,0.3c0,0.2,0.1,0.2,0.1,0.2s0,0.1-0.1,0.1l0,0c0.1,0,0.1,0,0.1,0.1
				c0.1,0,0.2,0.2,0.3,0.4l-0.1,0.1c0.1,0,0.1,0,0.2,0v0.1c0,0,0,0.1,0.1,0.1c0.1,0.2,0.2,0.3,0.4,0.4l0,0l0,0
				c0.1,0,0.2,0.1,0.2,0.2h0.1c0.2,0.1,0.4,0.2,0.4,0.2v0.1c-0.1,0.1-0.1,0.2-0.2,0.2h-0.2l0,0v0.1c-0.1,0-0.1,0.1-0.1,0.1
				c-0.1,0.2-0.2,0.4-0.2,0.4c-0.1,0.1-0.1,0.2-0.1,0.2l0,0c0,0.1-0.1,0.1-0.2,0.1c0,0,0,0.1,0.1,0.1c-0.1,0.2-0.1,0.3-0.1,0.4h-0.1
				l0,0h-0.1v0.2v0.1c-0.1,0.1-0.1,0.2-0.1,0.2c0,0.1,0,0.1,0,0.1c-0.1,0.2-0.1,0.3-0.1,0.4h-0.1l0,0v0.1v0.1h-0.1v0.1v0.1h-0.1v0.1
				l0,0c0,0,0,0.1-0.1,0.1c0,0.1-0.1,0.2-0.2,0.2l0,0c0.1,0,0.2,0.1,0.2,0.2c-0.1,0.2-0.2,0.5-0.2,1v0.2c-0.1,0-0.1,0-0.1,0.1h0.1
				v0.1c0,0.1,0,0.1,0,0.1s0,0.1,0.1,0.3h-0.1l0,0c0.1,0,0.1,0.1,0.1,0.3c0,0.1,0,0.2-0.1,0.4c0,0,0,0,0.1,0.1h-0.1
				c0.1,0.1,0.1,0.2,0.1,0.4h-0.1c0,0,0,0.1,0.1,0.1v0.2v1.3h-0.1v0.2h-0.1l0,0c0.1,0,0.1,0.1,0.1,0.2v0.1h0.1v0.3v0.1l0,0
				c0.1,0.5,0.2,1,0.3,1l-0.1,0.1c0.1,0,0.1,0.1,0.2,0.3l0,0h-0.1l0,0c0,0,0.1,0.1,0.2,0.1v0.1v0.1c0.1,0,0.2,0.1,0.2,0.2h0.1
				c0,0.1,0,0.1,0,0.1h-0.1h-0.1v0.2h0.1h0.2l0,0h-0.1c0,0,0,0.1,0.1,0.1c0.1,0.1,0.2,0.2,0.3,0.3c0.3,0.2,0.5,0.3,0.5,0.3
				c0.1,0,0.2,0,0.2,0.1l0,0c0.3,0.1,0.5,0.1,0.5,0.2h0.1l0,0l0,0l0.5,0.2h0.1h0.3v-0.2l0,0l0,0l0,0c0.1,0,0.2,0.1,0.3,0.2v-0.2h0.2
				c0,0.1,0,0.1,0.1,0.1l0,0l0,0l0,0h0.1h0.4h0.1c0,0,0.1,0.1,0.4,0.1c0.2,0,0.3,0,0.3-0.1v0.1h0.1v-0.1h0.1c0,0,0.1,0,0.1-0.1h-0.1
				l0,0h0.1h0.1l0,0h0.1c0.2,0,0.5-0.1,1.1-0.2c0,0,0.2-0.1,0.5-0.3c0.1-0.1,0.2-0.2,0.3-0.3v0.1h0.1v-0.1c0.1-0.2,0.2-0.2,0.2-0.2
				c0.1,0,0.2-0.2,0.4-0.5c0.1-0.2,0.1-0.2,0.2-0.2c0.1-0.3,0.2-0.5,0.2-0.5l0,0V24h0.1v-0.1v-0.1c0,0,0,0,0.1-0.1v-0.1l0.1-0.1
				v-0.2v-0.1l0.1-0.1v-0.1c0,0,0-0.1,0.1-0.3l0,0c0-0.1,0.1-0.2,0.1-0.2v-0.2h0.1v-0.1V22l0,0L184,21.6z M180.5,9.2L180.5,9.2
				L180.5,9.2C180.5,9.2,180.4,9.1,180.5,9.2z M180.2,9.1C180.2,9.1,180.3,9.1,180.2,9.1L180.2,9.1z M179.2,7.5L179.2,7.5L179.2,7.5
				z M178.8,7.1L178.8,7.1C178.8,7,178.8,7,178.8,7.1C178.8,7,178.8,7.1,178.8,7.1L178.8,7.1L178.8,7.1L178.8,7.1L178.8,7.1z
				 M176.6,9.1L176.6,9.1L176.6,9.1z M181,19.8L181,19.8v0.1l0,0v0.2l0,0c0,0.2-0.1,0.3-0.1,0.4h-0.2l0.1,0.1v0.1c0,0,0,0.1-0.1,0.1
				v0.2c0,0,0,0-0.1,0l0,0c-0.1,0.4-0.1,0.9-0.2,1.1c-0.1,0.3-0.3,0.7-0.4,1h-0.1c0,0.2,0,0.2-0.1,0.2h-0.2c0,0.1-0.1,0.1-0.4,0.2
				l0,0l-0.2,0.1h-0.1l-0.1-0.1v0.1l0,0v-0.1l0,0c-0.2,0-0.4-0.1-1-0.2c0-0.1-0.1-0.1-0.2-0.2c-0.1-0.2-0.1-0.3-0.1-0.3v-0.1
				c-0.1-0.1-0.1-0.2-0.1-0.3v-0.2c-0.1-0.1-0.1-0.2-0.1-0.2v-0.8l0.1-0.1h-0.1c0-0.1,0.1-0.2,0.1-0.3l0,0h-0.1v-0.2v-0.1l0,0v-0.2
				c0,0,0-0.1,0.1-0.1v-0.1c0,0,0.1-0.1,0.2-0.1v-0.1h-0.1c0,0-0.1,0-0.1-0.1l0,0l0,0v-0.1c0-0.2,0-0.4,0.1-0.4c0,0,0-0.1-0.1-0.1
				V19v-0.2h0.1v-0.1c0-0.3,0-0.4,0.1-0.4v-0.1v-0.2c0.2-0.2,0.2-0.3,0.2-0.4c0,0,0.1-0.1,0.2-0.1c0,0,0-0.1-0.1-0.1l0,0
				c0.2-0.3,0.4-0.5,0.5-0.5v-0.1l0,0c0.2,0,0.2,0,0.2-0.1l0,0h0.1v-0.1h0.1c0,0.1,0,0.1,0.1,0.1s0.1-0.1,0.2-0.1h0.1
				c0,0.1,0.1,0.1,0.2,0.1l0,0h0.2c0,0.1-0.1,0.1-0.1,0.1l0,0h-0.1v0.1h0.2v-0.1h0.1c0,0.1,0.1,0.2,0.2,0.2c0.1,0.1,0.2,0.3,0.3,0.5
				c0,0,0.1,0.1,0.3,0.4c0,0,0,0.1-0.1,0.1V18h0.1c0,0.1,0,0.1,0,0.2c0.1,0,0.1,0,0.1,0.1v0.1c0.1,0,0.1,0.2,0.1,0.5l0,0h0.1v0.1
				h-0.2l-0.1-0.1v0.1c0.1,0,0.2,0,0.2,0.1L181,19.8L181,19.8z M178.7,13.7L178.7,13.7c-0.1,0.1-0.1,0.1-0.2,0.1l0,0h-0.1
				c0,0-0.1,0-0.1-0.1H178.7z M178.4,12L178.4,12L178.4,12L178.4,12z M178.8,13.7L178.8,13.7c0.1,0,0.1-0.1,0.1-0.1h0.1h0.2l0,0v0.1
				c-0.1,0-0.1,0-0.1,0.1H179h-0.1h-0.1C178.9,13.7,178.8,13.7,178.8,13.7z M181.5,9.9L181.5,9.9L181.5,9.9L181.5,9.9L181.5,9.9
				L181.5,9.9L181.5,9.9C181.4,9.9,181.5,9.9,181.5,9.9s0,0.1-0.1,0.1c-0.1,0.1,0,0-0.1,0l-0.1,0.1l0,0l0,0c0,0-0.1,0-0.1,0.1l0,0
				c-0.1,0.1-0.2,0.1-0.3,0.1v0.1l0,0c0,0,0,0.1-0.1,0.1s-0.1,0.1-0.2,0.1l0,0l0,0l0,0l0,0c0,0,0,0,0,0.1l0,0l0,0v0.1
				c0,0.1,0,0.1,0,0.2l0,0c0,0.2,0.1,0.3,0.1,0.5l0,0c0,0.1,0,0,0,0.1c0,0,0.1,0.1,0.1,0.2l0,0l0,0c0.1,0,0.1,0.2,0.1,0.3v0.3l0,0
				l0,0l0,0l0,0l0,0l0,0l0,0c0,0,0,0,0,0.1l0,0l0,0l0,0v0.1l0,0l0,0l0,0l0,0c0,0,0,0-0.1,0h-0.1h-0.1l0,0c0.1,0,0,0,0,0l0,0l0,0l0,0
				l0,0l0,0h0.1l0,0c0,0,0,0-0.1,0l0,0l0,0c0,0-0.1,0-0.1-0.1l0,0h-0.1l-0.1-0.1c0,0,0,0-0.1,0l0,0c-0.1,0-0.1,0-0.1,0l0,0
				c-0.1,0-0.1,0-0.1,0l0,0c-0.1,0-0.2,0-0.2-0.1c0,0-0.1,0-0.2-0.1l0,0c-0.1,0-0.2-0.1-0.3-0.2l0,0c-0.1,0-0.1,0-0.2,0l0,0
				c-0.1,0-0.1-0.1-0.2-0.1l0,0l0,0l0,0l0,0c-0.1,0-0.3,0.2-0.4,0.2l0,0c0,0-0.1,0.1-0.1,0l0,0c0,0,0,0-0.1,0l0,0
				c-0.1,0-0.3,0.2-0.4,0.2c-0.1,0.1-0.2,0.2-0.3,0.2l0,0c0,0-0.1,0.1-0.2,0c-0.1,0-0.1,0-0.2,0l-0.1-0.1c0,0,0,0,0-0.1l0,0l0,0l0,0
				l0,0l0,0v-0.1l0,0c0,0,0,0,0-0.1l0,0c0.1-0.1,0.1-0.3,0.1-0.4l0,0c0-0.1,0-0.2,0.1-0.3l0,0c0-0.1,0.1-0.1,0.1-0.2v0.1v-0.1
				c0,0,0,0,0.1-0.1c0,0,0,0.1,0,0l0.1-0.1l0,0c0,0.1,0-0.1,0,0c0-0.1,0,0,0,0l0,0l0,0l0,0c0,0,0-0.1,0,0c0-0.1,0.1-0.1,0.1-0.2
				v-0.1l0,0l0,0l0,0l0,0l0,0l0,0l0,0l0,0c0,0,0,0-0.1-0.1c0,0-0.1-0.1,0-0.1c-0.1-0.1-0.1-0.1-0.2-0.1l0,0l-0.1-0.1l0.1,0.1
				c-0.1,0-0.1-0.1-0.2-0.1l0,0c-0.1,0,0,0-0.1-0.1l0,0c-0.1-0.1-0.1-0.1-0.2-0.1l0,0c0,0-0.1,0-0.1-0.1l0,0V9.6c-0.1,0,0,0-0.1,0
				l0,0c-0.1,0-0.1-0.1-0.2-0.1l0,0c0,0-0.1,0-0.1-0.1l0,0l0,0l0,0l0,0l0,0l0,0l0,0l0,0l0,0V9.2c0,0,0,0,0-0.1l0,0l0,0l0,0l0,0l0,0
				l0,0l0,0l0,0l0,0l0,0l0,0c0.1,0,0.1,0,0.2,0l0,0l0,0l0,0c0.1,0,0.2,0,0.3,0l0,0l0,0l0,0l0,0l0,0l0,0l0,0l0,0l0,0l0,0h0.1
				c0,0,0,0,0.1,0c-0.1,0,0,0,0,0c0.1,0,0.1-0.1,0.2-0.1h0.1h0.1l0,0l0,0l0,0h0.1l0,0c0.1,0,0.1,0,0.2,0l0,0l0,0l0,0l0,0
				c0,0,0,0,0-0.1l0,0V9V8.9V9l0,0l0,0l0,0l0,0l0,0c0-0.1,0.1-0.1,0.1-0.1l0,0c0-0.1,0.1-0.1,0.1-0.1l0,0V8.7l0,0l0,0l0,0
				c0,0,0,0,0-0.1c0,0,0-0.1,0,0l0,0c0-0.1,0-0.1,0-0.1l0,0l0,0l0,0l0,0l0,0l0,0c0,0,0,0,0,0.1c0,0,0-0.1,0.1-0.1l0,0l0,0l0,0
				c0,0,0,0,0-0.1l0,0l0.1-0.1c0,0,0,0.1,0,0s0,0,0,0c0-0.1,0,0,0-0.1l0,0l0,0l0,0c0-0.1,0-0.1,0.1-0.2l0,0c0,0,0-0.1,0.1-0.1l0,0
				l0,0l0,0l0,0l0,0c0,0,0,0,0.1,0c0-0.1,0-0.1,0-0.1c0-0.1,0-0.1,0-0.2l0,0l0,0l0,0l0,0l0,0l0,0l0,0l0,0l0.1-0.1h0.1
				c0,0,0.1,0,0.1,0.1l0,0l0,0l0,0l0,0l0,0l0,0v0.1l0,0v0.1c0,0.1,0,0.1,0,0.1c0-0.1,0,0,0,0c0,0.1,0,0.1,0,0.1l0,0
				c0,0,0,0.1,0.1,0.2l0,0c0,0.1,0,0.2,0.1,0.3l0,0l0,0l0,0l0,0l0,0l0,0c0,0,0,0.1,0.1,0.1l0,0l0,0c0,0,0,0,0,0.1l0,0l0,0l0,0v0.1
				l0,0l0,0l0,0l0,0l0,0l0,0l0,0l0,0c0,0.1,0.1,0.1,0.1,0.2l0,0l0,0l0,0l0,0l0,0l0,0l0,0l0,0l0,0l0,0l0,0l0,0l0,0l0,0
				c0.1,0,0.2,0.1,0.2,0.1c0.1,0,0.2,0.1,0.2,0l0,0l0,0l0,0c0,0,0.1,0.1,0.1,0l0,0h0.1c0.1,0,0,0,0,0s0.1,0,0.1,0.1l0,0l0,0l0,0l0,0
				l0,0c0,0,0,0,0.1,0l0,0c0,0,0.1,0,0.2,0l0,0l0,0l0,0l0,0l0,0c0,0,0,0,0.1,0l0,0h0.1l0,0l0,0l0.2,0.1
				C181.5,9.6,181.5,9.8,181.5,9.9z M176.8,10.2L176.8,10.2L176.8,10.2z"/>
		</g>
	</g>
</g>
</svg>
